<svg version="1.1" viewBox="0.0 0.0 1262.0 780.0" fill="none" stroke="none" stroke-linecap="square" stroke-miterlimit="10" width="1262" height="780" xmlns:xlink="http://www.w3.org/1999/xlink" xmlns="http://www.w3.org/2000/svg"><path fill="#ffffff" d="M0 0L1262.0 0L1262.0 780.0L0 780.0L0 0Z" fill-rule="nonzero"/><path fill="#ea4335" d="M320.95557 515.73956C288.70834 416.49277 305.92258 307.80637 367.26047 223.382C428.59833 138.95766 526.64575 89.0 631.0 89.0L631.0 415.0Z" fill-rule="nonzero"/><path fill="#4285f4" d="M631.0 89.0C797.8529 89.0 937.77325 214.98486 955.2141 380.9237C972.655 546.8626 861.98596 699.1854 698.77924 733.8761C535.57245 768.5668 372.51596 674.4261 320.95557 515.73956L631.0 415.0Z" fill-rule="nonzero"/><path fill="#1a1a1a" d="M39.921875 228.4629L39.921875 219.86916L41.078125 219.86916L45.59375 226.61916L45.59375 219.86916L46.6875 219.86916L46.6875 228.4629L45.515625 228.4629L41.0 221.7129L41.0 228.4629L39.921875 228.4629ZM52.875 228.4629L52.875 227.54103Q52.140625 228.60353 50.890625 228.60353Q50.34375 228.60353 49.859375 228.4004Q49.390625 228.18166 49.15625 227.86916Q48.921875 227.54103 48.828125 227.07228Q48.765625 226.7754 48.765625 226.0879L48.765625 222.24416L49.828125 222.24416L49.828125 225.69728Q49.828125 226.50978 49.890625 226.80666Q49.984375 227.2129 50.296875 227.4629Q50.625 227.69728 51.109375 227.69728Q51.578125 227.69728 51.984375 227.4629Q52.40625 227.2129 52.578125 226.79103Q52.765625 226.36916 52.765625 225.57228L52.765625 222.24416L53.8125 222.24416L53.8125 228.4629L52.875 228.4629ZM56.0625 228.4629L56.0625 227.25978L57.265625 227.25978L57.265625 228.4629Q57.265625 229.11916 57.03125 229.5254Q56.796875 229.94728 56.296875 230.16603L56.0 229.7129Q56.328125 229.57228 56.484375 229.2754Q56.640625 228.99416 56.671875 228.4629L56.0625 228.4629ZM65.859375 227.69728Q65.265625 228.19728 64.71875 228.4004Q64.1875 228.60353 63.5625 228.60353Q62.53125 228.60353 61.984375 228.10353Q61.4375 227.60353 61.4375 226.82228Q61.4375 226.36916 61.640625 225.99416Q61.84375 225.60353 62.1875 225.38478Q62.53125 225.1504 62.953125 225.04103Q63.25 224.94728 63.890625 224.86916Q65.15625 224.72853 65.765625 224.50978Q65.765625 224.29103 65.765625 224.24416Q65.765625 223.5879 65.46875 223.32228Q65.0625 222.97853 64.265625 222.97853Q63.53125 222.97853 63.171875 223.24416Q62.8125 223.49416 62.640625 224.1504L61.609375 224.00978Q61.75 223.35353 62.078125 222.94728Q62.40625 222.54103 63.015625 222.32228Q63.625 222.10353 64.421875 222.10353Q65.21875 222.10353 65.71875 222.29103Q66.21875 222.47853 66.453125 222.75978Q66.6875 223.04103 66.78125 223.47853Q66.828125 223.74416 66.828125 224.44728L66.828125 225.85353Q66.828125 227.32228 66.890625 227.7129Q66.96875 228.10353 67.171875 228.4629L66.0625 228.4629Q65.90625 228.13478 65.859375 227.69728ZM65.765625 225.3379Q65.1875 225.57228 64.046875 225.74416Q63.390625 225.8379 63.125 225.9629Q62.859375 226.07228 62.703125 226.29103Q62.5625 226.50978 62.5625 226.79103Q62.5625 227.2129 62.875 227.49416Q63.203125 227.7754 63.8125 227.7754Q64.421875 227.7754 64.890625 227.50978Q65.375 227.24416 65.59375 226.7754Q65.765625 226.41603 65.765625 225.72853L65.765625 225.3379ZM68.375 226.60353L69.40625 226.44728Q69.5 227.07228 69.890625 227.4004Q70.296875 227.72853 71.03125 227.72853Q71.75 227.72853 72.09375 227.44728Q72.453125 227.1504 72.453125 226.74416Q72.453125 226.38478 72.140625 226.18166Q71.921875 226.04103 71.0625 225.82228Q69.90625 225.5254 69.453125 225.32228Q69.015625 225.10353 68.78125 224.72853Q68.546875 224.35353 68.546875 223.88478Q68.546875 223.47853 68.734375 223.11916Q68.921875 222.75978 69.25 222.5254Q69.5 222.35353 69.921875 222.22853Q70.34375 222.10353 70.84375 222.10353Q71.5625 222.10353 72.109375 222.32228Q72.671875 222.5254 72.9375 222.88478Q73.203125 223.24416 73.296875 223.8379L72.265625 223.97853Q72.203125 223.50978 71.859375 223.24416Q71.53125 222.9629 70.90625 222.9629Q70.1875 222.9629 69.875 223.2129Q69.5625 223.44728 69.5625 223.7754Q69.5625 223.97853 69.6875 224.13478Q69.828125 224.30666 70.09375 224.41603Q70.25 224.47853 71.03125 224.68166Q72.15625 224.99416 72.59375 225.18166Q73.03125 225.36916 73.28125 225.72853Q73.53125 226.0879 73.53125 226.63478Q73.53125 227.16603 73.21875 227.63478Q72.921875 228.0879 72.34375 228.35353Q71.765625 228.60353 71.03125 228.60353Q69.8125 228.60353 69.171875 228.10353Q68.546875 227.5879 68.375 226.60353ZM70.40625 230.3379L70.40625 229.30666L71.625 229.30666L71.625 229.99416Q71.625 230.6504 71.40625 231.05666Q71.1875 231.4629 70.640625 231.69728L70.328125 231.19728Q70.875 230.9629 70.96875 230.3379L70.40625 230.3379ZM81.859375 227.69728Q81.265625 228.19728 80.71875 228.4004Q80.1875 228.60353 79.5625 228.60353Q78.53125 228.60353 77.984375 228.10353Q77.4375 227.60353 77.4375 226.82228Q77.4375 226.36916 77.640625 225.99416Q77.84375 225.60353 78.1875 225.38478Q78.53125 225.1504 78.953125 225.04103Q79.25 224.94728 79.890625 224.86916Q81.15625 224.72853 81.765625 224.50978Q81.765625 224.29103 81.765625 224.24416Q81.765625 223.5879 81.46875 223.32228Q81.0625 222.97853 80.265625 222.97853Q79.53125 222.97853 79.171875 223.24416Q78.8125 223.49416 78.640625 224.1504L77.609375 224.00978Q77.75 223.35353 78.078125 222.94728Q78.40625 222.54103 79.015625 222.32228Q79.625 222.10353 80.421875 222.10353Q81.21875 222.10353 81.71875 222.29103Q82.21875 222.47853 82.453125 222.75978Q82.6875 223.04103 82.78125 223.47853Q82.828125 223.74416 82.828125 224.44728L82.828125 225.85353Q82.828125 227.32228 82.890625 227.7129Q82.96875 228.10353 83.171875 228.4629L82.0625 228.4629Q81.90625 228.13478 81.859375 227.69728ZM81.765625 225.3379Q81.1875 225.57228 80.046875 225.74416Q79.390625 225.8379 79.125 225.9629Q78.859375 226.07228 78.703125 226.29103Q78.5625 226.50978 78.5625 226.79103Q78.5625 227.2129 78.875 227.49416Q79.203125 227.7754 79.8125 227.7754Q80.421875 227.7754 80.890625 227.50978Q81.375 227.24416 81.59375 226.7754Q81.765625 226.41603 81.765625 225.72853L81.765625 225.3379ZM88.828125 228.4629L88.828125 227.68166Q88.234375 228.60353 87.09375 228.60353Q86.34375 228.60353 85.71875 228.19728Q85.09375 227.7754 84.75 227.04103Q84.40625 226.30666 84.40625 225.35353Q84.40625 224.43166 84.71875 223.66603Q85.03125 222.9004 85.65625 222.50978Q86.28125 222.10353 87.046875 222.10353Q87.609375 222.10353 88.046875 222.3379Q88.484375 222.57228 88.765625 222.94728L88.765625 219.86916L89.8125 219.86916L89.8125 228.4629L88.828125 228.4629ZM85.5 225.35353Q85.5 226.55666 86.0 227.1504Q86.5 227.72853 87.1875 227.72853Q87.875 227.72853 88.359375 227.16603Q88.84375 226.60353 88.84375 225.44728Q88.84375 224.16603 88.34375 223.57228Q87.859375 222.97853 87.140625 222.97853Q86.4375 222.97853 85.96875 223.55666Q85.5 224.11916 85.5 225.35353ZM91.40625 225.35353Q91.40625 223.61916 92.359375 222.79103Q93.15625 222.10353 94.3125 222.10353Q95.59375 222.10353 96.40625 222.94728Q97.234375 223.7754 97.234375 225.25978Q97.234375 226.4629 96.875 227.1504Q96.515625 227.8379 95.8125 228.22853Q95.125 228.60353 94.3125 228.60353Q93.015625 228.60353 92.203125 227.7754Q91.40625 226.93166 91.40625 225.35353ZM92.484375 225.35353Q92.484375 226.54103 93.0 227.13478Q93.53125 227.72853 94.3125 227.72853Q95.109375 227.72853 95.625 227.13478Q96.140625 226.54103 96.140625 225.32228Q96.140625 224.16603 95.609375 223.57228Q95.09375 222.97853 94.3125 222.97853Q93.53125 222.97853 93.0 223.57228Q92.484375 224.1504 92.484375 225.35353ZM98.796875 230.85353L98.796875 222.24416L99.75 222.24416L99.75 223.04103Q100.09375 222.57228 100.515625 222.3379Q100.953125 222.10353 101.5625 222.10353Q102.359375 222.10353 102.96875 222.50978Q103.578125 222.91603 103.875 223.66603Q104.1875 224.41603 104.1875 225.30666Q104.1875 226.25978 103.84375 227.0254Q103.515625 227.79103 102.859375 228.19728Q102.203125 228.60353 101.484375 228.60353Q100.953125 228.60353 100.53125 228.38478Q100.109375 228.1504 99.84375 227.82228L99.84375 230.85353L98.796875 230.85353ZM99.75 225.38478Q99.75 226.5879 100.234375 227.16603Q100.71875 227.72853 101.40625 227.72853Q102.109375 227.72853 102.609375 227.13478Q103.109375 226.54103 103.109375 225.29103Q103.109375 224.10353 102.625 223.5254Q102.140625 222.93166 101.453125 222.93166Q100.78125 222.93166 100.265625 223.55666Q99.75 224.18166 99.75 225.38478ZM108.09375 227.5254L108.25 228.44728Q107.796875 228.54103 107.453125 228.54103Q106.875 228.54103 106.5625 228.36916Q106.25 228.18166 106.109375 227.88478Q105.984375 227.5879 105.984375 226.63478L105.984375 223.05666L105.21875 223.05666L105.21875 222.24416L105.984375 222.24416L105.984375 220.69728L107.03125 220.07228L107.03125 222.24416L108.09375 222.24416L108.09375 223.05666L107.03125 223.05666L107.03125 226.69728Q107.03125 227.1504 107.078125 227.2754Q107.140625 227.4004 107.265625 227.47853Q107.390625 227.55666 107.625 227.55666Q107.8125 227.55666 108.09375 227.5254ZM112.859375 227.69728Q112.265625 228.19728 111.71875 228.4004Q111.1875 228.60353 110.5625 228.60353Q109.53125 228.60353 108.984375 228.10353Q108.4375 227.60353 108.4375 226.82228Q108.4375 226.36916 108.640625 225.99416Q108.84375 225.60353 109.1875 225.38478Q109.53125 225.1504 109.953125 225.04103Q110.25 224.94728 110.890625 224.86916Q112.15625 224.72853 112.765625 224.50978Q112.765625 224.29103 112.765625 224.24416Q112.765625 223.5879 112.46875 223.32228Q112.0625 222.97853 111.265625 222.97853Q110.53125 222.97853 110.171875 223.24416Q109.8125 223.49416 109.640625 224.1504L108.609375 224.00978Q108.75 223.35353 109.078125 222.94728Q109.40625 222.54103 110.015625 222.32228Q110.625 222.10353 111.421875 222.10353Q112.21875 222.10353 112.71875 222.29103Q113.21875 222.47853 113.453125 222.75978Q113.6875 223.04103 113.78125 223.47853Q113.828125 223.74416 113.828125 224.44728L113.828125 225.85353Q113.828125 227.32228 113.890625 227.7129Q113.96875 228.10353 114.171875 228.4629L113.0625 228.4629Q112.90625 228.13478 112.859375 227.69728ZM112.765625 225.3379Q112.1875 225.57228 111.046875 225.74416Q110.390625 225.8379 110.125 225.9629Q109.859375 226.07228 109.703125 226.29103Q109.5625 226.50978 109.5625 226.79103Q109.5625 227.2129 109.875 227.49416Q110.203125 227.7754 110.8125 227.7754Q111.421875 227.7754 111.890625 227.50978Q112.375 227.24416 112.59375 226.7754Q112.765625 226.41603 112.765625 225.72853L112.765625 225.3379Z" fill-rule="nonzero"/><path fill="#9e9e9e" d="M39.5 243.19728L40.5625 243.05666Q40.734375 243.94728 41.171875 244.35353Q41.609375 244.74416 42.234375 244.74416Q42.984375 244.74416 43.5 244.22853Q44.015625 243.7129 44.015625 242.94728Q44.015625 242.22853 43.53125 241.75978Q43.0625 241.2754 42.328125 241.2754Q42.03125 241.2754 41.578125 241.4004L41.703125 240.4629Q41.8125 240.47853 41.875 240.47853Q42.546875 240.47853 43.078125 240.13478Q43.625 239.7754 43.625 239.04103Q43.625 238.4629 43.234375 238.0879Q42.84375 237.69728 42.21875 237.69728Q41.609375 237.69728 41.1875 238.0879Q40.78125 238.47853 40.671875 239.24416L39.609375 239.05666Q39.796875 238.00978 40.484375 237.43166Q41.171875 236.8379 42.1875 236.8379Q42.890625 236.8379 43.484375 237.1504Q44.078125 237.44728 44.390625 237.9629Q44.703125 238.47853 44.703125 239.07228Q44.703125 239.61916 44.40625 240.0879Q44.109375 240.54103 43.53125 240.80666Q44.28125 240.97853 44.703125 241.54103Q45.125 242.0879 45.125 242.93166Q45.125 244.05666 44.296875 244.8379Q43.484375 245.61916 42.234375 245.61916Q41.109375 245.61916 40.359375 244.94728Q39.609375 244.25978 39.5 243.19728ZM46.5 241.22853Q46.5 239.69728 46.8125 238.7754Q47.125 237.8379 47.734375 237.3379Q48.359375 236.8379 49.296875 236.8379Q49.984375 236.8379 50.5 237.11916Q51.03125 237.4004 51.375 237.93166Q51.71875 238.44728 51.90625 239.19728Q52.09375 239.94728 52.09375 241.22853Q52.09375 242.74416 51.78125 243.66603Q51.484375 244.5879 50.859375 245.10353Q50.25 245.60353 49.296875 245.60353Q48.0625 245.60353 47.34375 244.7129Q46.5 243.6504 46.5 241.22853ZM47.578125 241.22853Q47.578125 243.3379 48.078125 244.04103Q48.578125 244.74416 49.296875 244.74416Q50.03125 244.74416 50.515625 244.04103Q51.015625 243.3379 51.015625 241.22853Q51.015625 239.10353 50.515625 238.41603Q50.03125 237.7129 49.28125 237.7129Q48.5625 237.7129 48.125 238.32228Q47.578125 239.10353 47.578125 241.22853ZM54.09375 245.4629L54.09375 244.25978L55.296875 244.25978L55.296875 245.4629L54.09375 245.4629ZM56.5 241.22853Q56.5 239.69728 56.8125 238.7754Q57.125 237.8379 57.734375 237.3379Q58.359375 236.8379 59.296875 236.8379Q59.984375 236.8379 60.5 237.11916Q61.03125 237.4004 61.375 237.93166Q61.71875 238.44728 61.90625 239.19728Q62.09375 239.94728 62.09375 241.22853Q62.09375 242.74416 61.78125 243.66603Q61.484375 244.5879 60.859375 245.10353Q60.25 245.60353 59.296875 245.60353Q58.0625 245.60353 57.34375 244.7129Q56.5 243.6504 56.5 241.22853ZM57.578125 241.22853Q57.578125 243.3379 58.078125 244.04103Q58.578125 244.74416 59.296875 244.74416Q60.03125 244.74416 60.515625 244.04103Q61.015625 243.3379 61.015625 241.22853Q61.015625 239.10353 60.515625 238.41603Q60.03125 237.7129 59.28125 237.7129Q58.5625 237.7129 58.125 238.32228Q57.578125 239.10353 57.578125 241.22853ZM63.703125 238.93166Q63.703125 238.00978 64.15625 237.36916Q64.625 236.72853 65.5 236.72853Q66.3125 236.72853 66.84375 237.30666Q67.375 237.88478 67.375 238.99416Q67.375 240.0879 66.828125 240.68166Q66.296875 241.25978 65.515625 241.25978Q64.734375 241.25978 64.21875 240.68166Q63.703125 240.10353 63.703125 238.93166ZM65.53125 237.44728Q65.140625 237.44728 64.875 237.79103Q64.625 238.13478 64.625 239.04103Q64.625 239.86916 64.875 240.2129Q65.140625 240.54103 65.53125 240.54103Q65.9375 240.54103 66.1875 240.19728Q66.453125 239.85353 66.453125 238.9629Q66.453125 238.11916 66.1875 237.79103Q65.921875 237.44728 65.53125 237.44728ZM65.53125 245.7754L70.234375 236.72853L71.09375 236.72853L66.40625 245.7754L65.53125 245.7754ZM69.25 243.44728Q69.25 242.5254 69.703125 241.88478Q70.171875 241.24416 71.0625 241.24416Q71.875 241.24416 72.40625 241.82228Q72.9375 242.38478 72.9375 243.50978Q72.9375 244.60353 72.390625 245.19728Q71.859375 245.7754 71.0625 245.7754Q70.296875 245.7754 69.765625 245.19728Q69.25 244.61916 69.25 243.44728ZM71.09375 241.9629Q70.6875 241.9629 70.421875 242.30666Q70.171875 242.6504 70.171875 243.55666Q70.171875 244.36916 70.4375 244.7129Q70.703125 245.05666 71.09375 245.05666Q71.484375 245.05666 71.75 244.7129Q72.015625 244.36916 72.015625 243.4629Q72.015625 242.63478 71.75 242.30666Q71.484375 241.9629 71.09375 241.9629Z" fill-rule="nonzero"/><path stroke="#757575" stroke-width="1.0" stroke-linecap="butt" d="M39.0 232.9629L299.0 232.9629L380.44745 232.9629" fill-rule="nonzero"/><path fill="#9e9e9e" d="M382.44745 232.9629C382.44745 231.85834 381.552 230.9629 380.44745 230.9629C379.34286 230.9629 378.44745 231.85834 378.44745 232.9629C378.44745 234.06747 379.34286 234.9629 380.44745 234.9629C381.552 234.9629 382.44745 234.06747 382.44745 232.9629" fill-rule="nonzero"/><path fill="#1a1a1a" d="M1207.9219 592.5371L1207.9219 583.94336L1210.8906 583.94336Q1211.8906 583.94336 1212.4219 584.06836Q1213.1562 584.24023 1213.6719 584.67773Q1214.3594 585.25586 1214.6875 586.1621Q1215.0312 587.05273 1215.0312 588.19336Q1215.0312 589.17773 1214.7969 589.92773Q1214.5781 590.67773 1214.2188 591.17773Q1213.8594 591.67773 1213.4219 591.959Q1213.0 592.24023 1212.4062 592.3965Q1211.8125 592.5371 1211.0312 592.5371L1207.9219 592.5371ZM1209.0625 591.5215L1210.8906 591.5215Q1211.75 591.5215 1212.2344 591.36523Q1212.7188 591.209 1213.0 590.9121Q1213.4062 590.5215 1213.625 589.834Q1213.8594 589.1465 1213.8594 588.17773Q1213.8594 586.834 1213.4062 586.11523Q1212.9688 585.38086 1212.3438 585.13086Q1211.875 584.959 1210.875 584.959L1209.0625 584.959L1209.0625 591.5215ZM1220.8594 591.7715Q1220.2656 592.2715 1219.7188 592.4746Q1219.1875 592.67773 1218.5625 592.67773Q1217.5312 592.67773 1216.9844 592.17773Q1216.4375 591.67773 1216.4375 590.8965Q1216.4375 590.44336 1216.6406 590.06836Q1216.8438 589.67773 1217.1875 589.459Q1217.5312 589.2246 1217.9531 589.11523Q1218.25 589.0215 1218.8906 588.94336Q1220.1562 588.80273 1220.7656 588.584Q1220.7656 588.36523 1220.7656 588.31836Q1220.7656 587.6621 1220.4688 587.3965Q1220.0625 587.05273 1219.2656 587.05273Q1218.5312 587.05273 1218.1719 587.31836Q1217.8125 587.56836 1217.6406 588.2246L1216.6094 588.084Q1216.75 587.42773 1217.0781 587.0215Q1217.4062 586.61523 1218.0156 586.3965Q1218.625 586.17773 1219.4219 586.17773Q1220.2188 586.17773 1220.7188 586.36523Q1221.2188 586.55273 1221.4531 586.834Q1221.6875 587.11523 1221.7812 587.55273Q1221.8281 587.81836 1221.8281 588.5215L1221.8281 589.92773Q1221.8281 591.3965 1221.8906 591.7871Q1221.9688 592.17773 1222.1719 592.5371L1221.0625 592.5371Q1220.9062 592.209 1220.8594 591.7715ZM1220.7656 589.4121Q1220.1875 589.6465 1219.0469 589.81836Q1218.3906 589.9121 1218.125 590.0371Q1217.8594 590.1465 1217.7031 590.36523Q1217.5625 590.584 1217.5625 590.86523Q1217.5625 591.2871 1217.875 591.56836Q1218.2031 591.8496 1218.8125 591.8496Q1219.4219 591.8496 1219.8906 591.584Q1220.375 591.31836 1220.5938 590.8496Q1220.7656 590.49023 1220.7656 589.80273L1220.7656 589.4121Z" fill-rule="nonzero"/><path fill="#9e9e9e" d="M1188.5625 602.06836L1188.5625 601.05273L1194.125 601.05273L1194.125 601.88086Q1193.3125 602.75586 1192.5 604.209Q1191.7031 605.6465 1191.2656 607.17773Q1190.9375 608.25586 1190.8594 609.5371L1189.7656 609.5371Q1189.7812 608.5215 1190.1562 607.084Q1190.5469 605.6465 1191.25 604.31836Q1191.9688 602.99023 1192.7812 602.06836L1188.5625 602.06836ZM1195.5 605.30273Q1195.5 603.7715 1195.8125 602.8496Q1196.125 601.9121 1196.7344 601.4121Q1197.3594 600.9121 1198.2969 600.9121Q1198.9844 600.9121 1199.5 601.19336Q1200.0312 601.4746 1200.375 602.00586Q1200.7188 602.5215 1200.9062 603.2715Q1201.0938 604.0215 1201.0938 605.30273Q1201.0938 606.81836 1200.7812 607.74023Q1200.4844 608.6621 1199.8594 609.17773Q1199.25 609.67773 1198.2969 609.67773Q1197.0625 609.67773 1196.3438 608.7871Q1195.5 607.7246 1195.5 605.30273ZM1196.5781 605.30273Q1196.5781 607.4121 1197.0781 608.11523Q1197.5781 608.81836 1198.2969 608.81836Q1199.0312 608.81836 1199.5156 608.11523Q1200.0156 607.4121 1200.0156 605.30273Q1200.0156 603.17773 1199.5156 602.49023Q1199.0312 601.7871 1198.2812 601.7871Q1197.5625 601.7871 1197.125 602.3965Q1196.5781 603.17773 1196.5781 605.30273ZM1203.0938 609.5371L1203.0938 608.334L1204.2969 608.334L1204.2969 609.5371L1203.0938 609.5371ZM1205.5 605.30273Q1205.5 603.7715 1205.8125 602.8496Q1206.125 601.9121 1206.7344 601.4121Q1207.3594 600.9121 1208.2969 600.9121Q1208.9844 600.9121 1209.5 601.19336Q1210.0312 601.4746 1210.375 602.00586Q1210.7188 602.5215 1210.9062 603.2715Q1211.0938 604.0215 1211.0938 605.30273Q1211.0938 606.81836 1210.7812 607.74023Q1210.4844 608.6621 1209.8594 609.17773Q1209.25 609.67773 1208.2969 609.67773Q1207.0625 609.67773 1206.3438 608.7871Q1205.5 607.7246 1205.5 605.30273ZM1206.5781 605.30273Q1206.5781 607.4121 1207.0781 608.11523Q1207.5781 608.81836 1208.2969 608.81836Q1209.0312 608.81836 1209.5156 608.11523Q1210.0156 607.4121 1210.0156 605.30273Q1210.0156 603.17773 1209.5156 602.49023Q1209.0312 601.7871 1208.2812 601.7871Q1207.5625 601.7871 1207.125 602.3965Q1206.5781 603.17773 1206.5781 605.30273ZM1212.7031 603.00586Q1212.7031 602.084 1213.1562 601.44336Q1213.625 600.80273 1214.5 600.80273Q1215.3125 600.80273 1215.8438 601.38086Q1216.375 601.959 1216.375 603.06836Q1216.375 604.1621 1215.8281 604.75586Q1215.2969 605.334 1214.5156 605.334Q1213.7344 605.334 1213.2188 604.75586Q1212.7031 604.17773 1212.7031 603.00586ZM1214.5312 601.5215Q1214.1406 601.5215 1213.875 601.86523Q1213.625 602.209 1213.625 603.11523Q1213.625 603.94336 1213.875 604.2871Q1214.1406 604.61523 1214.5312 604.61523Q1214.9375 604.61523 1215.1875 604.2715Q1215.4531 603.92773 1215.4531 603.0371Q1215.4531 602.19336 1215.1875 601.86523Q1214.9219 601.5215 1214.5312 601.5215ZM1214.5312 609.8496L1219.2344 600.80273L1220.0938 600.80273L1215.4062 609.8496L1214.5312 609.8496ZM1218.25 607.5215Q1218.25 606.5996 1218.7031 605.959Q1219.1719 605.31836 1220.0625 605.31836Q1220.875 605.31836 1221.4062 605.8965Q1221.9375 606.459 1221.9375 607.584Q1221.9375 608.67773 1221.3906 609.2715Q1220.8594 609.8496 1220.0625 609.8496Q1219.2969 609.8496 1218.7656 609.2715Q1218.25 608.69336 1218.25 607.5215ZM1220.0938 606.0371Q1219.6875 606.0371 1219.4219 606.38086Q1219.1719 606.7246 1219.1719 607.63086Q1219.1719 608.44336 1219.4375 608.7871Q1219.7031 609.13086 1220.0938 609.13086Q1220.4844 609.13086 1220.75 608.7871Q1221.0156 608.44336 1221.0156 607.5371Q1221.0156 606.709 1220.75 606.38086Q1220.4844 606.0371 1220.0938 606.0371Z" fill-rule="nonzero"/><path stroke="#757575" stroke-width="1.0" stroke-linecap="butt" d="M1223.0 597.0371L963.0 597.0371L881.55255 597.0371" fill-rule="nonzero"/><path fill="#9e9e9e" d="M883.55255 597.0371C883.55255 595.9325 882.6571 595.0371 881.55255 595.0371C880.448 595.0371 879.55255 595.9325 879.55255 597.0371C879.55255 598.14166 880.448 599.0371 881.55255 599.0371C882.6571 599.0371 883.55255 598.14166 883.55255 597.0371" fill-rule="nonzero"/><path fill="#757575" d="M38.96875 58.0L44.46875 43.6875L46.515625 43.6875L52.375 58.0L50.21875 58.0L48.546875 53.65625L42.5625 53.65625L40.984375 58.0L38.96875 58.0ZM43.109375 52.125L47.953125 52.125L46.46875 48.15625Q45.78125 46.34375 45.453125 45.1875Q45.171875 46.5625 44.671875 47.921875L43.109375 52.125ZM57.15625 56.421875L57.40625 57.984375Q56.671875 58.140625 56.078125 58.140625Q55.125 58.140625 54.59375 57.84375Q54.078125 57.53125 53.859375 57.046875Q53.640625 56.546875 53.640625 54.96875L53.640625 49.0L52.359375 49.0L52.359375 47.625L53.640625 47.625L53.640625 45.0625L55.390625 44.0L55.390625 47.625L57.15625 47.625L57.15625 49.0L55.390625 49.0L55.390625 55.0625Q55.390625 55.8125 55.484375 56.03125Q55.578125 56.234375 55.78125 56.375Q56.0 56.5 56.390625 56.5Q56.671875 56.5 57.15625 56.421875ZM54.6875 60.984375L54.6875 59.1875L56.5 59.1875L56.5 60.984375Q56.5 61.65625 56.140625 62.25Q55.78125 62.859375 55.015625 63.203125L54.59375 62.515625Q55.515625 62.109375 55.578125 60.984375L54.6875 60.984375ZM59.328125 45.703125L59.328125 43.6875L61.09375 43.6875L61.09375 45.703125L59.328125 45.703125ZM59.328125 58.0L59.328125 47.625L61.09375 47.625L61.09375 58.0L59.328125 58.0ZM76.09375 54.203125L77.8125 54.421875Q77.53125 56.21875 76.359375 57.234375Q75.203125 58.234375 73.5 58.234375Q71.375 58.234375 70.078125 56.84375Q68.78125 55.453125 68.78125 52.859375Q68.78125 51.171875 69.328125 49.921875Q69.890625 48.65625 71.03125 48.03125Q72.171875 47.390625 73.515625 47.390625Q75.203125 47.390625 76.265625 48.25Q77.34375 49.109375 77.65625 50.671875L75.9375 50.9375Q75.703125 49.890625 75.078125 49.375Q74.453125 48.84375 73.578125 48.84375Q72.25 48.84375 71.421875 49.796875Q70.59375 50.75 70.59375 52.796875Q70.59375 54.890625 71.390625 55.84375Q72.1875 56.78125 73.484375 56.78125Q74.515625 56.78125 75.203125 56.15625Q75.90625 55.515625 76.09375 54.203125ZM86.109375 58.0L86.109375 56.46875Q84.90625 58.234375 82.828125 58.234375Q81.90625 58.234375 81.109375 57.890625Q80.3125 57.53125 79.921875 57.0Q79.546875 56.46875 79.390625 55.6875Q79.28125 55.171875 79.28125 54.046875L79.28125 47.625L81.03125 47.625L81.03125 53.375Q81.03125 54.75 81.140625 55.234375Q81.3125 55.921875 81.84375 56.328125Q82.390625 56.71875 83.171875 56.71875Q83.96875 56.71875 84.65625 56.3125Q85.359375 55.90625 85.640625 55.21875Q85.9375 54.515625 85.9375 53.1875L85.9375 47.625L87.6875 47.625L87.6875 58.0L86.109375 58.0ZM90.3125 58.0L90.3125 47.625L91.890625 47.625L91.890625 49.078125Q92.375 48.328125 93.1875 47.859375Q94.0 47.390625 95.03125 47.390625Q96.1875 47.390625 96.921875 47.875Q97.65625 48.34375 97.96875 49.203125Q99.203125 47.390625 101.171875 47.390625Q102.71875 47.390625 103.546875 48.25Q104.375 49.109375 104.375 50.875L104.375 58.0L102.625 58.0L102.625 51.46875Q102.625 50.40625 102.453125 49.953125Q102.28125 49.484375 101.828125 49.203125Q101.390625 48.921875 100.78125 48.921875Q99.6875 48.921875 98.953125 49.65625Q98.234375 50.375 98.234375 51.96875L98.234375 58.0L96.484375 58.0L96.484375 51.265625Q96.484375 50.09375 96.046875 49.515625Q95.625 48.921875 94.640625 48.921875Q93.90625 48.921875 93.265625 49.3125Q92.640625 49.703125 92.359375 50.453125Q92.078125 51.203125 92.078125 52.625L92.078125 58.0L90.3125 58.0ZM107.3125 61.96875L107.3125 47.625L108.921875 47.625L108.921875 48.96875Q109.484375 48.1875 110.1875 47.796875Q110.90625 47.390625 111.921875 47.390625Q113.25 47.390625 114.265625 48.078125Q115.28125 48.765625 115.796875 50.015625Q116.328125 51.25 116.328125 52.734375Q116.328125 54.328125 115.75 55.609375Q115.1875 56.875 114.09375 57.5625Q113.0 58.234375 111.796875 58.234375Q110.921875 58.234375 110.21875 57.859375Q109.53125 57.484375 109.078125 56.921875L109.078125 61.96875L107.3125 61.96875ZM108.90625 52.875Q108.90625 54.875 109.71875 55.828125Q110.53125 56.78125 111.6875 56.78125Q112.859375 56.78125 113.6875 55.796875Q114.53125 54.8125 114.53125 52.71875Q114.53125 50.75 113.703125 49.765625Q112.890625 48.765625 111.765625 48.765625Q110.640625 48.765625 109.765625 49.828125Q108.90625 50.875 108.90625 52.875ZM125.09375 56.71875Q124.109375 57.546875 123.203125 57.890625Q122.296875 58.234375 121.265625 58.234375Q119.5625 58.234375 118.640625 57.40625Q117.71875 56.5625 117.71875 55.265625Q117.71875 54.5 118.0625 53.875Q118.421875 53.25 118.984375 52.875Q119.546875 52.484375 120.25 52.28125Q120.765625 52.15625 121.8125 52.015625Q123.9375 51.765625 124.9375 51.421875Q124.953125 51.0625 124.953125 50.953125Q124.953125 49.890625 124.453125 49.4375Q123.78125 48.84375 122.453125 48.84375Q121.203125 48.84375 120.609375 49.28125Q120.03125 49.71875 119.75 50.828125L118.03125 50.59375Q118.265625 49.484375 118.796875 48.8125Q119.328125 48.125 120.34375 47.765625Q121.359375 47.390625 122.703125 47.390625Q124.03125 47.390625 124.859375 47.703125Q125.6875 48.015625 126.078125 48.5Q126.46875 48.96875 126.625 49.6875Q126.71875 50.140625 126.71875 51.3125L126.71875 53.65625Q126.71875 56.109375 126.828125 56.765625Q126.9375 57.40625 127.28125 58.0L125.4375 58.0Q125.171875 57.453125 125.09375 56.71875ZM124.9375 52.796875Q123.984375 53.1875 122.0625 53.453125Q120.984375 53.609375 120.53125 53.8125Q120.09375 54.0 119.84375 54.375Q119.59375 54.75 119.59375 55.21875Q119.59375 55.921875 120.125 56.390625Q120.65625 56.859375 121.6875 56.859375Q122.703125 56.859375 123.484375 56.421875Q124.28125 55.96875 124.65625 55.203125Q124.9375 54.59375 124.9375 53.4375L124.9375 52.796875ZM124.015625 43.703125L125.21875 43.703125Q125.078125 44.921875 124.328125 45.578125Q123.578125 46.234375 122.34375 46.234375Q121.09375 46.234375 120.34375 45.59375Q119.59375 44.9375 119.453125 43.703125L120.65625 43.703125Q120.78125 44.359375 121.1875 44.6875Q121.59375 45.015625 122.28125 45.015625Q123.078125 45.015625 123.484375 44.703125Q123.890625 44.390625 124.015625 43.703125ZM129.29688 58.0L129.29688 47.625L130.875 47.625L130.875 49.203125Q131.48438 48.09375 132.0 47.75Q132.51562 47.390625 133.125 47.390625Q134.01562 47.390625 134.9375 47.953125L134.32812 49.59375Q133.6875 49.203125 133.04688 49.203125Q132.46875 49.203125 132.0 49.5625Q131.54688 49.90625 131.34375 50.515625Q131.0625 51.453125 131.0625 52.5625L131.0625 58.0L129.29688 58.0ZM143.09375 56.71875Q142.10938 57.546875 141.20312 57.890625Q140.29688 58.234375 139.26562 58.234375Q137.5625 58.234375 136.64062 57.40625Q135.71875 56.5625 135.71875 55.265625Q135.71875 54.5 136.0625 53.875Q136.42188 53.25 136.98438 52.875Q137.54688 52.484375 138.25 52.28125Q138.76562 52.15625 139.8125 52.015625Q141.9375 51.765625 142.9375 51.421875Q142.95312 51.0625 142.95312 50.953125Q142.95312 49.890625 142.45312 49.4375Q141.78125 48.84375 140.45312 48.84375Q139.20312 48.84375 138.60938 49.28125Q138.03125 49.71875 137.75 50.828125L136.03125 50.59375Q136.26562 49.484375 136.79688 48.8125Q137.32812 48.125 138.34375 47.765625Q139.35938 47.390625 140.70312 47.390625Q142.03125 47.390625 142.85938 47.703125Q143.6875 48.015625 144.07812 48.5Q144.46875 48.96875 144.625 49.6875Q144.71875 50.140625 144.71875 51.3125L144.71875 53.65625Q144.71875 56.109375 144.82812 56.765625Q144.9375 57.40625 145.28125 58.0L143.4375 58.0Q143.17188 57.453125 143.09375 56.71875ZM142.9375 52.796875Q141.98438 53.1875 140.0625 53.453125Q138.98438 53.609375 138.53125 53.8125Q138.09375 54.0 137.84375 54.375Q137.59375 54.75 137.59375 55.21875Q137.59375 55.921875 138.125 56.390625Q138.65625 56.859375 139.6875 56.859375Q140.70312 56.859375 141.48438 56.421875Q142.28125 55.96875 142.65625 55.203125Q142.9375 54.59375 142.9375 53.4375L142.9375 52.796875ZM160.04688 58.0L160.04688 56.6875Q159.0625 58.234375 157.14062 58.234375Q155.90625 58.234375 154.85938 57.546875Q153.82812 56.859375 153.25 55.640625Q152.6875 54.421875 152.6875 52.828125Q152.6875 51.265625 153.20312 50.0Q153.71875 48.734375 154.75 48.0625Q155.79688 47.390625 157.0625 47.390625Q158.0 47.390625 158.73438 47.796875Q159.46875 48.1875 159.9375 48.8125L159.9375 43.6875L161.67188 43.6875L161.67188 58.0L160.04688 58.0ZM154.48438 52.828125Q154.48438 54.8125 155.32812 55.796875Q156.17188 56.78125 157.3125 56.78125Q158.46875 56.78125 159.26562 55.84375Q160.07812 54.90625 160.07812 52.96875Q160.07812 50.84375 159.25 49.84375Q158.4375 48.84375 157.23438 48.84375Q156.0625 48.84375 155.26562 49.8125Q154.48438 50.765625 154.48438 52.828125ZM164.32812 45.703125L164.32812 43.6875L166.09375 43.6875L166.09375 45.703125L164.32812 45.703125ZM164.32812 58.0L164.32812 47.625L166.09375 47.625L166.09375 58.0L164.32812 58.0ZM168.3125 58.0L168.3125 47.625L169.90625 47.625L169.90625 49.109375Q171.04688 47.390625 173.20312 47.390625Q174.14062 47.390625 174.92188 47.734375Q175.71875 48.0625 176.10938 48.609375Q176.5 49.15625 176.65625 49.90625Q176.75 50.40625 176.75 51.625L176.75 58.0L174.98438 58.0L174.98438 51.6875Q174.98438 50.609375 174.78125 50.078125Q174.57812 49.546875 174.04688 49.234375Q173.53125 48.921875 172.82812 48.921875Q171.70312 48.921875 170.89062 49.640625Q170.07812 50.34375 170.07812 52.328125L170.07812 58.0L168.3125 58.0ZM185.3125 58.0L185.3125 47.625L186.90625 47.625L186.90625 49.109375Q188.04688 47.390625 190.20312 47.390625Q191.14062 47.390625 191.92188 47.734375Q192.71875 48.0625 193.10938 48.609375Q193.5 49.15625 193.65625 49.90625Q193.75 50.40625 193.75 51.625L193.75 58.0L191.98438 58.0L191.98438 51.6875Q191.98438 50.609375 191.78125 50.078125Q191.57812 49.546875 191.04688 49.234375Q190.53125 48.921875 189.82812 48.921875Q188.70312 48.921875 187.89062 49.640625Q187.07812 50.34375 187.07812 52.328125L187.07812 58.0L185.3125 58.0ZM195.67188 52.8125Q195.67188 49.9375 197.26562 48.546875Q198.60938 47.390625 200.53125 47.390625Q202.67188 47.390625 204.01562 48.796875Q205.375 50.203125 205.375 52.671875Q205.375 54.671875 204.78125 55.828125Q204.1875 56.96875 203.03125 57.609375Q201.89062 58.234375 200.53125 58.234375Q198.34375 58.234375 197.0 56.84375Q195.67188 55.4375 195.67188 52.8125ZM197.46875 52.8125Q197.46875 54.8125 198.32812 55.796875Q199.20312 56.78125 200.53125 56.78125Q201.84375 56.78125 202.70312 55.796875Q203.57812 54.796875 203.57812 52.75Q203.57812 50.828125 202.70312 49.84375Q201.82812 48.84375 200.53125 48.84375Q199.20312 48.84375 198.32812 49.84375Q197.46875 50.828125 197.46875 52.8125ZM214.10938 58.0L214.10938 56.46875Q212.90625 58.234375 210.82812 58.234375Q209.90625 58.234375 209.10938 57.890625Q208.3125 57.53125 207.92188 57.0Q207.54688 56.46875 207.39062 55.6875Q207.28125 55.171875 207.28125 54.046875L207.28125 47.625L209.03125 47.625L209.03125 53.375Q209.03125 54.75 209.14062 55.234375Q209.3125 55.921875 209.84375 56.328125Q210.39062 56.71875 211.17188 56.71875Q211.96875 56.71875 212.65625 56.3125Q213.35938 55.90625 213.64062 55.21875Q213.9375 54.515625 213.9375 53.1875L213.9375 47.625L215.6875 47.625L215.6875 58.0L214.10938 58.0ZM221.60938 54.46875Q221.59375 54.125 221.59375 53.953125Q221.59375 52.90625 221.89062 52.15625Q222.10938 51.59375 222.59375 51.015625Q222.9375 50.59375 223.84375 49.796875Q224.76562 48.984375 225.03125 48.515625Q225.3125 48.03125 225.3125 47.46875Q225.3125 46.4375 224.5 45.671875Q223.70312 44.890625 222.54688 44.890625Q221.42188 44.890625 220.67188 45.59375Q219.92188 46.296875 219.6875 47.78125L217.875 47.5625Q218.125 45.5625 219.32812 44.5Q220.53125 43.4375 222.51562 43.4375Q224.625 43.4375 225.875 44.578125Q227.125 45.71875 227.125 47.34375Q227.125 48.28125 226.67188 49.078125Q226.23438 49.859375 224.95312 51.0Q224.09375 51.765625 223.82812 52.125Q223.57812 52.484375 223.4375 52.953125Q223.3125 53.421875 223.29688 54.46875L221.60938 54.46875ZM221.5 58.0L221.5 56.0L223.5 56.0L223.5 58.0L221.5 58.0Z" fill-rule="nonzero"/></svg>