<svg version="1.1" viewBox="0.0 0.0 1262.0 780.0" fill="none" stroke="none" stroke-linecap="square" stroke-miterlimit="10" width="1262" height="780" xmlns:xlink="http://www.w3.org/1999/xlink" xmlns="http://www.w3.org/2000/svg"><path fill="#ffffff" d="M0 0L1262.0 0L1262.0 780.0L0 780.0L0 0Z" fill-rule="nonzero"/><path fill="#ea4335" d="M587.54846 91.90874C601.9513 89.97175 616.4675 89.0 631.0 89.0L631.0 415.0Z" fill-rule="nonzero"/><path fill="#4285f4" d="M631.0 89.0C806.8045 89.0 950.9434 228.40038 956.81793 404.10672C962.69244 579.81305 828.18634 728.52954 652.7744 740.272C477.36246 752.01447 324.2345 622.5528 306.63724 447.6312C289.03995 272.7096 413.31256 115.34119 587.54846 91.90874L631.0 415.0Z" fill-rule="nonzero"/><path fill="#1a1a1a" d="M39.921875 101.4916L39.921875 92.89785L41.078125 92.89785L45.59375 99.64785L45.59375 92.89785L46.6875 92.89785L46.6875 101.4916L45.515625 101.4916L41.0 94.7416L41.0 101.4916L39.921875 101.4916ZM52.875 101.4916L52.875 100.569725Q52.140625 101.632225 50.890625 101.632225Q50.34375 101.632225 49.859375 101.4291Q49.390625 101.21035 49.15625 100.89785Q48.921875 100.569725 48.828125 100.100975Q48.765625 99.8041 48.765625 99.1166L48.765625 95.27285L49.828125 95.27285L49.828125 98.725975Q49.828125 99.538475 49.890625 99.83535Q49.984375 100.2416 50.296875 100.4916Q50.625 100.725975 51.109375 100.725975Q51.578125 100.725975 51.984375 100.4916Q52.40625 100.2416 52.578125 99.819725Q52.765625 99.39785 52.765625 98.600975L52.765625 95.27285L53.8125 95.27285L53.8125 101.4916L52.875 101.4916ZM56.0625 101.4916L56.0625 100.288475L57.265625 100.288475L57.265625 101.4916Q57.265625 102.14785 57.03125 102.5541Q56.796875 102.975975 56.296875 103.194725L56.0 102.7416Q56.328125 102.600975 56.484375 102.3041Q56.640625 102.02285 56.671875 101.4916L56.0625 101.4916ZM65.859375 100.725975Q65.265625 101.225975 64.71875 101.4291Q64.1875 101.632225 63.5625 101.632225Q62.53125 101.632225 61.984375 101.132225Q61.4375 100.632225 61.4375 99.850975Q61.4375 99.39785 61.640625 99.02285Q61.84375 98.632225 62.1875 98.413475Q62.53125 98.1791 62.953125 98.069725Q63.25 97.975975 63.890625 97.89785Q65.15625 97.757225 65.765625 97.538475Q65.765625 97.319725 65.765625 97.27285Q65.765625 96.6166 65.46875 96.350975Q65.0625 96.007225 64.265625 96.007225Q63.53125 96.007225 63.171875 96.27285Q62.8125 96.52285 62.640625 97.1791L61.609375 97.038475Q61.75 96.382225 62.078125 95.975975Q62.40625 95.569725 63.015625 95.350975Q63.625 95.132225 64.421875 95.132225Q65.21875 95.132225 65.71875 95.319725Q66.21875 95.507225 66.453125 95.788475Q66.6875 96.069725 66.78125 96.507225Q66.828125 96.77285 66.828125 97.475975L66.828125 98.882225Q66.828125 100.350975 66.890625 100.7416Q66.96875 101.132225 67.171875 101.4916L66.0625 101.4916Q65.90625 101.163475 65.859375 100.725975ZM65.765625 98.3666Q65.1875 98.600975 64.046875 98.77285Q63.390625 98.8666 63.125 98.9916Q62.859375 99.100975 62.703125 99.319725Q62.5625 99.538475 62.5625 99.819725Q62.5625 100.2416 62.875 100.52285Q63.203125 100.8041 63.8125 100.8041Q64.421875 100.8041 64.890625 100.538475Q65.375 100.27285 65.59375 99.8041Q65.765625 99.444725 65.765625 98.757225L65.765625 98.3666ZM68.375 99.632225L69.40625 99.475975Q69.5 100.100975 69.890625 100.4291Q70.296875 100.757225 71.03125 100.757225Q71.75 100.757225 72.09375 100.475975Q72.453125 100.1791 72.453125 99.77285Q72.453125 99.413475 72.140625 99.21035Q71.921875 99.069725 71.0625 98.850975Q69.90625 98.5541 69.453125 98.350975Q69.015625 98.132225 68.78125 97.757225Q68.546875 97.382225 68.546875 96.913475Q68.546875 96.507225 68.734375 96.14785Q68.921875 95.788475 69.25 95.5541Q69.5 95.382225 69.921875 95.257225Q70.34375 95.132225 70.84375 95.132225Q71.5625 95.132225 72.109375 95.350975Q72.671875 95.5541 72.9375 95.913475Q73.203125 96.27285 73.296875 96.8666L72.265625 97.007225Q72.203125 96.538475 71.859375 96.27285Q71.53125 95.9916 70.90625 95.9916Q70.1875 95.9916 69.875 96.2416Q69.5625 96.475975 69.5625 96.8041Q69.5625 97.007225 69.6875 97.163475Q69.828125 97.33535 70.09375 97.444725Q70.25 97.507225 71.03125 97.71035Q72.15625 98.02285 72.59375 98.21035Q73.03125 98.39785 73.28125 98.757225Q73.53125 99.1166 73.53125 99.663475Q73.53125 100.194725 73.21875 100.663475Q72.921875 101.1166 72.34375 101.382225Q71.765625 101.632225 71.03125 101.632225Q69.8125 101.632225 69.171875 101.132225Q68.546875 100.6166 68.375 99.632225ZM70.40625 103.3666L70.40625 102.33535L71.625 102.33535L71.625 103.02285Q71.625 103.6791 71.40625 104.08535Q71.1875 104.4916 70.640625 104.725975L70.328125 104.225975Q70.875 103.9916 70.96875 103.3666L70.40625 103.3666ZM81.859375 99.21035L82.890625 99.350975Q82.71875 100.413475 82.015625 101.02285Q81.3125 101.632225 80.296875 101.632225Q79.015625 101.632225 78.234375 100.8041Q77.46875 99.96035 77.46875 98.39785Q77.46875 97.39785 77.796875 96.64785Q78.140625 95.882225 78.8125 95.507225Q79.5 95.132225 80.3125 95.132225Q81.3125 95.132225 81.953125 95.64785Q82.609375 96.14785 82.796875 97.100975L81.765625 97.257225Q81.625 96.632225 81.25 96.319725Q80.875 95.9916 80.34375 95.9916Q79.546875 95.9916 79.046875 96.569725Q78.546875 97.132225 78.546875 98.3666Q78.546875 99.632225 79.03125 100.194725Q79.515625 100.757225 80.28125 100.757225Q80.90625 100.757225 81.3125 100.382225Q81.734375 100.007225 81.859375 99.21035ZM87.875 101.4916L87.875 100.569725Q87.140625 101.632225 85.890625 101.632225Q85.34375 101.632225 84.859375 101.4291Q84.390625 101.21035 84.15625 100.89785Q83.921875 100.569725 83.828125 100.100975Q83.765625 99.8041 83.765625 99.1166L83.765625 95.27285L84.828125 95.27285L84.828125 98.725975Q84.828125 99.538475 84.890625 99.83535Q84.984375 100.2416 85.296875 100.4916Q85.625 100.725975 86.109375 100.725975Q86.578125 100.725975 86.984375 100.4916Q87.40625 100.2416 87.578125 99.819725Q87.765625 99.39785 87.765625 98.600975L87.765625 95.27285L88.8125 95.27285L88.8125 101.4916L87.875 101.4916ZM90.796875 101.4916L90.796875 95.27285L91.734375 95.27285L91.734375 96.14785Q92.03125 95.6791 92.515625 95.413475Q93.0 95.132225 93.625 95.132225Q94.3125 95.132225 94.75 95.413475Q95.203125 95.694725 95.375 96.21035Q96.125 95.132225 97.296875 95.132225Q98.234375 95.132225 98.71875 95.64785Q99.21875 96.14785 99.21875 97.225975L99.21875 101.4916L98.171875 101.4916L98.171875 97.569725Q98.171875 96.944725 98.0625 96.663475Q97.96875 96.382225 97.703125 96.21035Q97.4375 96.038475 97.0625 96.038475Q96.40625 96.038475 95.96875 96.475975Q95.546875 96.913475 95.546875 97.882225L95.546875 101.4916L94.484375 101.4916L94.484375 97.444725Q94.484375 96.7416 94.21875 96.39785Q93.96875 96.038475 93.390625 96.038475Q92.9375 96.038475 92.5625 96.27285Q92.1875 96.507225 92.015625 96.96035Q91.84375 97.413475 91.84375 98.257225L91.84375 101.4916L90.796875 101.4916ZM100.796875 103.882225L100.796875 95.27285L101.75 95.27285L101.75 96.069725Q102.09375 95.600975 102.515625 95.3666Q102.953125 95.132225 103.5625 95.132225Q104.359375 95.132225 104.96875 95.538475Q105.578125 95.944725 105.875 96.694725Q106.1875 97.444725 106.1875 98.33535Q106.1875 99.288475 105.84375 100.0541Q105.515625 100.819725 104.859375 101.225975Q104.203125 101.632225 103.484375 101.632225Q102.953125 101.632225 102.53125 101.413475Q102.109375 101.1791 101.84375 100.850975L101.84375 103.882225L100.796875 103.882225ZM101.75 98.413475Q101.75 99.6166 102.234375 100.194725Q102.71875 100.757225 103.40625 100.757225Q104.109375 100.757225 104.609375 100.163475Q105.109375 99.569725 105.109375 98.319725Q105.109375 97.132225 104.625 96.5541Q104.140625 95.96035 103.453125 95.96035Q102.78125 95.96035 102.265625 96.58535Q101.75 97.21035 101.75 98.413475ZM111.859375 100.725975Q111.265625 101.225975 110.71875 101.4291Q110.1875 101.632225 109.5625 101.632225Q108.53125 101.632225 107.984375 101.132225Q107.4375 100.632225 107.4375 99.850975Q107.4375 99.39785 107.640625 99.02285Q107.84375 98.632225 108.1875 98.413475Q108.53125 98.1791 108.953125 98.069725Q109.25 97.975975 109.890625 97.89785Q111.15625 97.757225 111.765625 97.538475Q111.765625 97.319725 111.765625 97.27285Q111.765625 96.6166 111.46875 96.350975Q111.0625 96.007225 110.265625 96.007225Q109.53125 96.007225 109.171875 96.27285Q108.8125 96.52285 108.640625 97.1791L107.609375 97.038475Q107.75 96.382225 108.078125 95.975975Q108.40625 95.569725 109.015625 95.350975Q109.625 95.132225 110.421875 95.132225Q111.21875 95.132225 111.71875 95.319725Q112.21875 95.507225 112.453125 95.788475Q112.6875 96.069725 112.78125 96.507225Q112.828125 96.77285 112.828125 97.475975L112.828125 98.882225Q112.828125 100.350975 112.890625 100.7416Q112.96875 101.132225 113.171875 101.4916L112.0625 101.4916Q111.90625 101.163475 111.859375 100.725975ZM111.765625 98.3666Q111.1875 98.600975 110.046875 98.77285Q109.390625 98.8666 109.125 98.9916Q108.859375 99.100975 108.703125 99.319725Q108.5625 99.538475 108.5625 99.819725Q108.5625 100.2416 108.875 100.52285Q109.203125 100.8041 109.8125 100.8041Q110.421875 100.8041 110.890625 100.538475Q111.375 100.27285 111.59375 99.8041Q111.765625 99.444725 111.765625 98.757225L111.765625 98.3666ZM111.015625 92.913475L111.734375 92.913475Q111.640625 93.64785 111.1875 94.038475Q110.75 94.4291 110.0 94.4291Q109.25 94.4291 108.796875 94.038475Q108.359375 93.64785 108.265625 92.913475L108.984375 92.913475Q109.078125 93.3041 109.3125 93.507225Q109.5625 93.71035 109.96875 93.71035Q110.4375 93.71035 110.6875 93.52285Q110.9375 93.319725 111.015625 92.913475ZM114.78125 101.4916L114.78125 95.27285L115.734375 95.27285L115.734375 96.21035Q116.09375 95.5541 116.390625 95.350975Q116.703125 95.132225 117.078125 95.132225Q117.609375 95.132225 118.15625 95.46035L117.796875 96.444725Q117.40625 96.21035 117.03125 96.21035Q116.671875 96.21035 116.390625 96.4291Q116.125 96.632225 116.015625 97.007225Q115.828125 97.569725 115.828125 98.225975L115.828125 101.4916L114.78125 101.4916ZM122.859375 100.725975Q122.265625 101.225975 121.71875 101.4291Q121.1875 101.632225 120.5625 101.632225Q119.53125 101.632225 118.984375 101.132225Q118.4375 100.632225 118.4375 99.850975Q118.4375 99.39785 118.640625 99.02285Q118.84375 98.632225 119.1875 98.413475Q119.53125 98.1791 119.953125 98.069725Q120.25 97.975975 120.890625 97.89785Q122.15625 97.757225 122.765625 97.538475Q122.765625 97.319725 122.765625 97.27285Q122.765625 96.6166 122.46875 96.350975Q122.0625 96.007225 121.265625 96.007225Q120.53125 96.007225 120.171875 96.27285Q119.8125 96.52285 119.640625 97.1791L118.609375 97.038475Q118.75 96.382225 119.078125 95.975975Q119.40625 95.569725 120.015625 95.350975Q120.625 95.132225 121.421875 95.132225Q122.21875 95.132225 122.71875 95.319725Q123.21875 95.507225 123.453125 95.788475Q123.6875 96.069725 123.78125 96.507225Q123.828125 96.77285 123.828125 97.475975L123.828125 98.882225Q123.828125 100.350975 123.890625 100.7416Q123.96875 101.132225 124.171875 101.4916L123.0625 101.4916Q122.90625 101.163475 122.859375 100.725975ZM122.765625 98.3666Q122.1875 98.600975 121.046875 98.77285Q120.390625 98.8666 120.125 98.9916Q119.859375 99.100975 119.703125 99.319725Q119.5625 99.538475 119.5625 99.819725Q119.5625 100.2416 119.875 100.52285Q120.203125 100.8041 120.8125 100.8041Q121.421875 100.8041 121.890625 100.538475Q122.375 100.27285 122.59375 99.8041Q122.765625 99.444725 122.765625 98.757225L122.765625 98.3666Z" fill-rule="nonzero"/><path fill="#9e9e9e" d="M45.046875 117.475975L45.046875 118.4916L39.359375 118.4916Q39.359375 118.1166 39.484375 117.757225Q39.703125 117.1791 40.171875 116.6166Q40.65625 116.0541 41.5625 115.319725Q42.96875 114.163475 43.453125 113.4916Q43.953125 112.819725 43.953125 112.225975Q43.953125 111.600975 43.5 111.1791Q43.046875 110.7416 42.328125 110.7416Q41.5625 110.7416 41.109375 111.194725Q40.65625 111.64785 40.640625 112.46035L39.5625 112.350975Q39.671875 111.132225 40.390625 110.507225Q41.125 109.8666 42.359375 109.8666Q43.59375 109.8666 44.3125 110.5541Q45.03125 111.2416 45.03125 112.257225Q45.03125 112.77285 44.8125 113.27285Q44.609375 113.757225 44.109375 114.319725Q43.625 114.8666 42.5 115.819725Q41.546875 116.6166 41.265625 116.913475Q41.0 117.194725 40.828125 117.475975L45.046875 117.475975ZM47.09375 118.4916L47.09375 117.288475L48.296875 117.288475L48.296875 118.4916L47.09375 118.4916ZM53.46875 118.4916L52.421875 118.4916L52.421875 111.77285Q52.03125 112.132225 51.40625 112.507225Q50.796875 112.8666 50.3125 113.038475L50.3125 112.02285Q51.1875 111.600975 51.84375 111.02285Q52.515625 110.4291 52.796875 109.8666L53.46875 109.8666L53.46875 118.4916ZM56.703125 111.96035Q56.703125 111.038475 57.15625 110.39785Q57.625 109.757225 58.5 109.757225Q59.3125 109.757225 59.84375 110.33535Q60.375 110.913475 60.375 112.02285Q60.375 113.1166 59.828125 113.71035Q59.296875 114.288475 58.515625 114.288475Q57.734375 114.288475 57.21875 113.71035Q56.703125 113.132225 56.703125 111.96035ZM58.53125 110.475975Q58.140625 110.475975 57.875 110.819725Q57.625 111.163475 57.625 112.069725Q57.625 112.89785 57.875 113.2416Q58.140625 113.569725 58.53125 113.569725Q58.9375 113.569725 59.1875 113.225975Q59.453125 112.882225 59.453125 111.9916Q59.453125 111.14785 59.1875 110.819725Q58.921875 110.475975 58.53125 110.475975ZM58.53125 118.8041L63.234375 109.757225L64.09375 109.757225L59.40625 118.8041L58.53125 118.8041ZM62.25 116.475975Q62.25 115.5541 62.703125 114.913475Q63.171875 114.27285 64.0625 114.27285Q64.875 114.27285 65.40625 114.850975Q65.9375 115.413475 65.9375 116.538475Q65.9375 117.632225 65.390625 118.225975Q64.859375 118.8041 64.0625 118.8041Q63.296875 118.8041 62.765625 118.225975Q62.25 117.64785 62.25 116.475975ZM64.09375 114.9916Q63.6875 114.9916 63.421875 115.33535Q63.171875 115.6791 63.171875 116.58535Q63.171875 117.39785 63.4375 117.7416Q63.703125 118.08535 64.09375 118.08535Q64.484375 118.08535 64.75 117.7416Q65.015625 117.39785 65.015625 116.4916Q65.015625 115.663475 64.75 115.33535Q64.484375 114.9916 64.09375 114.9916Z" fill-rule="nonzero"/><path stroke="#757575" stroke-width="1.0" stroke-linecap="butt" d="M39.0 105.9916L299.0 105.9916L610.31433 105.9916" fill-rule="nonzero"/><path fill="#9e9e9e" d="M612.31433 105.9916C612.31433 104.88703 611.4189 103.9916 610.31433 103.9916C609.2098 103.9916 608.31433 104.88703 608.31433 105.9916C608.31433 107.09617 609.2098 107.9916 610.31433 107.9916C611.4189 107.9916 612.31433 107.09617 612.31433 105.9916" fill-rule="nonzero"/><path fill="#1a1a1a" d="M1207.9219 719.5084L1207.9219 710.9147L1210.8906 710.9147Q1211.8906 710.9147 1212.4219 711.0397Q1213.1562 711.21155 1213.6719 711.64905Q1214.3594 712.2272 1214.6875 713.1334Q1215.0312 714.02405 1215.0312 715.1647Q1215.0312 716.14905 1214.7969 716.89905Q1214.5781 717.64905 1214.2188 718.14905Q1213.8594 718.64905 1213.4219 718.9303Q1213.0 719.21155 1212.4062 719.3678Q1211.8125 719.5084 1211.0312 719.5084L1207.9219 719.5084ZM1209.0625 718.4928L1210.8906 718.4928Q1211.75 718.4928 1212.2344 718.33655Q1212.7188 718.1803 1213.0 717.8834Q1213.4062 717.4928 1213.625 716.8053Q1213.8594 716.1178 1213.8594 715.14905Q1213.8594 713.8053 1213.4062 713.08655Q1212.9688 712.3522 1212.3438 712.1022Q1211.875 711.9303 1210.875 711.9303L1209.0625 711.9303L1209.0625 718.4928ZM1220.8594 718.7428Q1220.2656 719.2428 1219.7188 719.4459Q1219.1875 719.64905 1218.5625 719.64905Q1217.5312 719.64905 1216.9844 719.14905Q1216.4375 718.64905 1216.4375 717.8678Q1216.4375 717.4147 1216.6406 717.0397Q1216.8438 716.64905 1217.1875 716.4303Q1217.5312 716.1959 1217.9531 716.08655Q1218.25 715.9928 1218.8906 715.9147Q1220.1562 715.77405 1220.7656 715.5553Q1220.7656 715.33655 1220.7656 715.2897Q1220.7656 714.6334 1220.4688 714.3678Q1220.0625 714.02405 1219.2656 714.02405Q1218.5312 714.02405 1218.1719 714.2897Q1217.8125 714.5397 1217.6406 715.1959L1216.6094 715.0553Q1216.75 714.39905 1217.0781 713.9928Q1217.4062 713.58655 1218.0156 713.3678Q1218.625 713.14905 1219.4219 713.14905Q1220.2188 713.14905 1220.7188 713.33655Q1221.2188 713.52405 1221.4531 713.8053Q1221.6875 714.08655 1221.7812 714.52405Q1221.8281 714.7897 1221.8281 715.4928L1221.8281 716.89905Q1221.8281 718.3678 1221.8906 718.7584Q1221.9688 719.14905 1222.1719 719.5084L1221.0625 719.5084Q1220.9062 719.1803 1220.8594 718.7428ZM1220.7656 716.3834Q1220.1875 716.6178 1219.0469 716.7897Q1218.3906 716.8834 1218.125 717.0084Q1217.8594 717.1178 1217.7031 717.33655Q1217.5625 717.5553 1217.5625 717.83655Q1217.5625 718.2584 1217.875 718.5397Q1218.2031 718.8209 1218.8125 718.8209Q1219.4219 718.8209 1219.8906 718.5553Q1220.375 718.2897 1220.5938 717.8209Q1220.7656 717.46155 1220.7656 716.77405L1220.7656 716.3834Z" fill-rule="nonzero"/><path fill="#9e9e9e" d="M1188.6562 734.52405L1189.6719 734.4303Q1189.7969 735.14905 1190.1562 735.4772Q1190.5312 735.7897 1191.0938 735.7897Q1191.5781 735.7897 1191.9375 735.5709Q1192.3125 735.33655 1192.5469 734.9772Q1192.7812 734.6022 1192.9375 733.9772Q1193.0938 733.33655 1193.0938 732.6803Q1193.0938 732.6022 1193.0938 732.46155Q1192.7812 732.96155 1192.2344 733.2897Q1191.6875 733.6022 1191.0469 733.6022Q1189.9688 733.6022 1189.2344 732.83655Q1188.5 732.0553 1188.5 730.7897Q1188.5 729.4772 1189.2656 728.6803Q1190.0469 727.8834 1191.2031 727.8834Q1192.0312 727.8834 1192.7188 728.33655Q1193.4219 728.7897 1193.7812 729.6334Q1194.1406 730.46155 1194.1406 732.0397Q1194.1406 733.6803 1193.7812 734.6647Q1193.4375 735.6334 1192.7188 736.14905Q1192.0156 736.64905 1191.0781 736.64905Q1190.0625 736.64905 1189.4219 736.1022Q1188.7812 735.5397 1188.6562 734.52405ZM1192.9688 730.7272Q1192.9688 729.8209 1192.4844 729.2897Q1192.0156 728.7584 1191.3281 728.7584Q1190.625 728.7584 1190.0938 729.33655Q1189.5781 729.89905 1189.5781 730.8209Q1189.5781 731.6334 1190.0781 732.14905Q1190.5781 732.6647 1191.2969 732.6647Q1192.0312 732.6647 1192.5 732.14905Q1192.9688 731.6334 1192.9688 730.7272ZM1195.5625 729.0397L1195.5625 728.02405L1201.125 728.02405L1201.125 728.8522Q1200.3125 729.7272 1199.5 731.1803Q1198.7031 732.6178 1198.2656 734.14905Q1197.9375 735.2272 1197.8594 736.5084L1196.7656 736.5084Q1196.7812 735.4928 1197.1562 734.0553Q1197.5469 732.6178 1198.25 731.2897Q1198.9688 729.96155 1199.7812 729.0397L1195.5625 729.0397ZM1203.0938 736.5084L1203.0938 735.3053L1204.2969 735.3053L1204.2969 736.5084L1203.0938 736.5084ZM1205.6562 734.52405L1206.6719 734.4303Q1206.7969 735.14905 1207.1562 735.4772Q1207.5312 735.7897 1208.0938 735.7897Q1208.5781 735.7897 1208.9375 735.5709Q1209.3125 735.33655 1209.5469 734.9772Q1209.7812 734.6022 1209.9375 733.9772Q1210.0938 733.33655 1210.0938 732.6803Q1210.0938 732.6022 1210.0938 732.46155Q1209.7812 732.96155 1209.2344 733.2897Q1208.6875 733.6022 1208.0469 733.6022Q1206.9688 733.6022 1206.2344 732.83655Q1205.5 732.0553 1205.5 730.7897Q1205.5 729.4772 1206.2656 728.6803Q1207.0469 727.8834 1208.2031 727.8834Q1209.0312 727.8834 1209.7188 728.33655Q1210.4219 728.7897 1210.7812 729.6334Q1211.1406 730.46155 1211.1406 732.0397Q1211.1406 733.6803 1210.7812 734.6647Q1210.4375 735.6334 1209.7188 736.14905Q1209.0156 736.64905 1208.0781 736.64905Q1207.0625 736.64905 1206.4219 736.1022Q1205.7812 735.5397 1205.6562 734.52405ZM1209.9688 730.7272Q1209.9688 729.8209 1209.4844 729.2897Q1209.0156 728.7584 1208.3281 728.7584Q1207.625 728.7584 1207.0938 729.33655Q1206.5781 729.89905 1206.5781 730.8209Q1206.5781 731.6334 1207.0781 732.14905Q1207.5781 732.6647 1208.2969 732.6647Q1209.0312 732.6647 1209.5 732.14905Q1209.9688 731.6334 1209.9688 730.7272ZM1212.7031 729.9772Q1212.7031 729.0553 1213.1562 728.4147Q1213.625 727.77405 1214.5 727.77405Q1215.3125 727.77405 1215.8438 728.3522Q1216.375 728.9303 1216.375 730.0397Q1216.375 731.1334 1215.8281 731.7272Q1215.2969 732.3053 1214.5156 732.3053Q1213.7344 732.3053 1213.2188 731.7272Q1212.7031 731.14905 1212.7031 729.9772ZM1214.5312 728.4928Q1214.1406 728.4928 1213.875 728.83655Q1213.625 729.1803 1213.625 730.08655Q1213.625 730.9147 1213.875 731.2584Q1214.1406 731.58655 1214.5312 731.58655Q1214.9375 731.58655 1215.1875 731.2428Q1215.4531 730.89905 1215.4531 730.0084Q1215.4531 729.1647 1215.1875 728.83655Q1214.9219 728.4928 1214.5312 728.4928ZM1214.5312 736.8209L1219.2344 727.77405L1220.0938 727.77405L1215.4062 736.8209L1214.5312 736.8209ZM1218.25 734.4928Q1218.25 733.5709 1218.7031 732.9303Q1219.1719 732.2897 1220.0625 732.2897Q1220.875 732.2897 1221.4062 732.8678Q1221.9375 733.4303 1221.9375 734.5553Q1221.9375 735.64905 1221.3906 736.2428Q1220.8594 736.8209 1220.0625 736.8209Q1219.2969 736.8209 1218.7656 736.2428Q1218.25 735.6647 1218.25 734.4928ZM1220.0938 733.0084Q1219.6875 733.0084 1219.4219 733.3522Q1219.1719 733.6959 1219.1719 734.6022Q1219.1719 735.4147 1219.4375 735.7584Q1219.7031 736.1022 1220.0938 736.1022Q1220.4844 736.1022 1220.75 735.7584Q1221.0156 735.4147 1221.0156 734.5084Q1221.0156 733.6803 1220.75 733.3522Q1220.4844 733.0084 1220.0938 733.0084Z" fill-rule="nonzero"/><path stroke="#757575" stroke-width="1.0" stroke-linecap="butt" d="M1223.0 724.0084L963.0 724.0084L651.68567 724.0084" fill-rule="nonzero"/><path fill="#9e9e9e" d="M653.68567 724.0084C653.68567 722.9038 652.7902 722.0084 651.68567 722.0084C650.5811 722.0084 649.68567 722.9038 649.68567 724.0084C649.68567 725.113 650.5811 726.0084 651.68567 726.0084C652.7902 726.0084 653.68567 725.113 653.68567 724.0084" fill-rule="nonzero"/><path fill="#757575" d="M38.96875 58.0L44.46875 43.6875L46.515625 43.6875L52.375 58.0L50.21875 58.0L48.546875 53.65625L42.5625 53.65625L40.984375 58.0L38.96875 58.0ZM43.109375 52.125L47.953125 52.125L46.46875 48.15625Q45.78125 46.34375 45.453125 45.1875Q45.171875 46.5625 44.671875 47.921875L43.109375 52.125ZM57.15625 56.421875L57.40625 57.984375Q56.671875 58.140625 56.078125 58.140625Q55.125 58.140625 54.59375 57.84375Q54.078125 57.53125 53.859375 57.046875Q53.640625 56.546875 53.640625 54.96875L53.640625 49.0L52.359375 49.0L52.359375 47.625L53.640625 47.625L53.640625 45.0625L55.390625 44.0L55.390625 47.625L57.15625 47.625L57.15625 49.0L55.390625 49.0L55.390625 55.0625Q55.390625 55.8125 55.484375 56.03125Q55.578125 56.234375 55.78125 56.375Q56.0 56.5 56.390625 56.5Q56.671875 56.5 57.15625 56.421875ZM54.6875 60.984375L54.6875 59.1875L56.5 59.1875L56.5 60.984375Q56.5 61.65625 56.140625 62.25Q55.78125 62.859375 55.015625 63.203125L54.59375 62.515625Q55.515625 62.109375 55.578125 60.984375L54.6875 60.984375ZM59.328125 45.703125L59.328125 43.6875L61.09375 43.6875L61.09375 45.703125L59.328125 45.703125ZM59.328125 58.0L59.328125 47.625L61.09375 47.625L61.09375 58.0L59.328125 58.0ZM76.09375 56.71875Q75.109375 57.546875 74.203125 57.890625Q73.296875 58.234375 72.265625 58.234375Q70.5625 58.234375 69.640625 57.40625Q68.71875 56.5625 68.71875 55.265625Q68.71875 54.5 69.0625 53.875Q69.421875 53.25 69.984375 52.875Q70.546875 52.484375 71.25 52.28125Q71.765625 52.15625 72.8125 52.015625Q74.9375 51.765625 75.9375 51.421875Q75.953125 51.0625 75.953125 50.953125Q75.953125 49.890625 75.453125 49.4375Q74.78125 48.84375 73.453125 48.84375Q72.203125 48.84375 71.609375 49.28125Q71.03125 49.71875 70.75 50.828125L69.03125 50.59375Q69.265625 49.484375 69.796875 48.8125Q70.328125 48.125 71.34375 47.765625Q72.359375 47.390625 73.703125 47.390625Q75.03125 47.390625 75.859375 47.703125Q76.6875 48.015625 77.078125 48.5Q77.46875 48.96875 77.625 49.6875Q77.71875 50.140625 77.71875 51.3125L77.71875 53.65625Q77.71875 56.109375 77.828125 56.765625Q77.9375 57.40625 78.28125 58.0L76.4375 58.0Q76.171875 57.453125 76.09375 56.71875ZM75.9375 52.796875Q74.984375 53.1875 73.0625 53.453125Q71.984375 53.609375 71.53125 53.8125Q71.09375 54.0 70.84375 54.375Q70.59375 54.75 70.59375 55.21875Q70.59375 55.921875 71.125 56.390625Q71.65625 56.859375 72.6875 56.859375Q73.703125 56.859375 74.484375 56.421875Q75.28125 55.96875 75.65625 55.203125Q75.9375 54.59375 75.9375 53.4375L75.9375 52.796875ZM87.046875 58.0L87.046875 56.6875Q86.0625 58.234375 84.140625 58.234375Q82.90625 58.234375 81.859375 57.546875Q80.828125 56.859375 80.25 55.640625Q79.6875 54.421875 79.6875 52.828125Q79.6875 51.265625 80.203125 50.0Q80.71875 48.734375 81.75 48.0625Q82.796875 47.390625 84.0625 47.390625Q85.0 47.390625 85.734375 47.796875Q86.46875 48.1875 86.9375 48.8125L86.9375 43.6875L88.671875 43.6875L88.671875 58.0L87.046875 58.0ZM81.484375 52.828125Q81.484375 54.8125 82.328125 55.796875Q83.171875 56.78125 84.3125 56.78125Q85.46875 56.78125 86.265625 55.84375Q87.078125 54.90625 87.078125 52.96875Q87.078125 50.84375 86.25 49.84375Q85.4375 48.84375 84.234375 48.84375Q83.0625 48.84375 82.265625 49.8125Q81.484375 50.765625 81.484375 52.828125ZM90.671875 52.8125Q90.671875 49.9375 92.265625 48.546875Q93.609375 47.390625 95.53125 47.390625Q97.671875 47.390625 99.015625 48.796875Q100.375 50.203125 100.375 52.671875Q100.375 54.671875 99.78125 55.828125Q99.1875 56.96875 98.03125 57.609375Q96.890625 58.234375 95.53125 58.234375Q93.34375 58.234375 92.0 56.84375Q90.671875 55.4375 90.671875 52.8125ZM92.46875 52.8125Q92.46875 54.8125 93.328125 55.796875Q94.203125 56.78125 95.53125 56.78125Q96.84375 56.78125 97.703125 55.796875Q98.578125 54.796875 98.578125 52.75Q98.578125 50.828125 97.703125 49.84375Q96.828125 48.84375 95.53125 48.84375Q94.203125 48.84375 93.328125 49.84375Q92.46875 50.828125 92.46875 52.8125ZM102.3125 61.96875L102.3125 47.625L103.921875 47.625L103.921875 48.96875Q104.484375 48.1875 105.1875 47.796875Q105.90625 47.390625 106.921875 47.390625Q108.25 47.390625 109.265625 48.078125Q110.28125 48.765625 110.796875 50.015625Q111.328125 51.25 111.328125 52.734375Q111.328125 54.328125 110.75 55.609375Q110.1875 56.875 109.09375 57.5625Q108.0 58.234375 106.796875 58.234375Q105.921875 58.234375 105.21875 57.859375Q104.53125 57.484375 104.078125 56.921875L104.078125 61.96875L102.3125 61.96875ZM103.90625 52.875Q103.90625 54.875 104.71875 55.828125Q105.53125 56.78125 106.6875 56.78125Q107.859375 56.78125 108.6875 55.796875Q109.53125 54.8125 109.53125 52.71875Q109.53125 50.75 108.703125 49.765625Q107.890625 48.765625 106.765625 48.765625Q105.640625 48.765625 104.765625 49.828125Q103.90625 50.875 103.90625 52.875ZM117.15625 56.421875L117.40625 57.984375Q116.671875 58.140625 116.078125 58.140625Q115.125 58.140625 114.59375 57.84375Q114.078125 57.53125 113.859375 57.046875Q113.640625 56.546875 113.640625 54.96875L113.640625 49.0L112.359375 49.0L112.359375 47.625L113.640625 47.625L113.640625 45.0625L115.390625 44.0L115.390625 47.625L117.15625 47.625L117.15625 49.0L115.390625 49.0L115.390625 55.0625Q115.390625 55.8125 115.484375 56.03125Q115.578125 56.234375 115.78125 56.375Q116.0 56.5 116.390625 56.5Q116.671875 56.5 117.15625 56.421875ZM126.09375 56.71875Q125.109375 57.546875 124.203125 57.890625Q123.296875 58.234375 122.265625 58.234375Q120.5625 58.234375 119.640625 57.40625Q118.71875 56.5625 118.71875 55.265625Q118.71875 54.5 119.0625 53.875Q119.421875 53.25 119.984375 52.875Q120.546875 52.484375 121.25 52.28125Q121.765625 52.15625 122.8125 52.015625Q124.9375 51.765625 125.9375 51.421875Q125.953125 51.0625 125.953125 50.953125Q125.953125 49.890625 125.453125 49.4375Q124.78125 48.84375 123.453125 48.84375Q122.203125 48.84375 121.609375 49.28125Q121.03125 49.71875 120.75 50.828125L119.03125 50.59375Q119.265625 49.484375 119.796875 48.8125Q120.328125 48.125 121.34375 47.765625Q122.359375 47.390625 123.703125 47.390625Q125.03125 47.390625 125.859375 47.703125Q126.6875 48.015625 127.078125 48.5Q127.46875 48.96875 127.625 49.6875Q127.71875 50.140625 127.71875 51.3125L127.71875 53.65625Q127.71875 56.109375 127.828125 56.765625Q127.9375 57.40625 128.28125 58.0L126.4375 58.0Q126.171875 57.453125 126.09375 56.71875ZM125.9375 52.796875Q124.984375 53.1875 123.0625 53.453125Q121.984375 53.609375 121.53125 53.8125Q121.09375 54.0 120.84375 54.375Q120.59375 54.75 120.59375 55.21875Q120.59375 55.921875 121.125 56.390625Q121.65625 56.859375 122.6875 56.859375Q123.703125 56.859375 124.484375 56.421875Q125.28125 55.96875 125.65625 55.203125Q125.9375 54.59375 125.9375 53.4375L125.9375 52.796875ZM143.04688 58.0L143.04688 56.6875Q142.0625 58.234375 140.14062 58.234375Q138.90625 58.234375 137.85938 57.546875Q136.82812 56.859375 136.25 55.640625Q135.6875 54.421875 135.6875 52.828125Q135.6875 51.265625 136.20312 50.0Q136.71875 48.734375 137.75 48.0625Q138.79688 47.390625 140.0625 47.390625Q141.0 47.390625 141.73438 47.796875Q142.46875 48.1875 142.9375 48.8125L142.9375 43.6875L144.67188 43.6875L144.67188 58.0L143.04688 58.0ZM137.48438 52.828125Q137.48438 54.8125 138.32812 55.796875Q139.17188 56.78125 140.3125 56.78125Q141.46875 56.78125 142.26562 55.84375Q143.07812 54.90625 143.07812 52.96875Q143.07812 50.84375 142.25 49.84375Q141.4375 48.84375 140.23438 48.84375Q139.0625 48.84375 138.26562 49.8125Q137.48438 50.765625 137.48438 52.828125ZM147.32812 45.703125L147.32812 43.6875L149.09375 43.6875L149.09375 45.703125L147.32812 45.703125ZM147.32812 58.0L147.32812 47.625L149.09375 47.625L149.09375 58.0L147.32812 58.0ZM151.3125 58.0L151.3125 47.625L152.90625 47.625L152.90625 49.109375Q154.04688 47.390625 156.20312 47.390625Q157.14062 47.390625 157.92188 47.734375Q158.71875 48.0625 159.10938 48.609375Q159.5 49.15625 159.65625 49.90625Q159.75 50.40625 159.75 51.625L159.75 58.0L157.98438 58.0L157.98438 51.6875Q157.98438 50.609375 157.78125 50.078125Q157.57812 49.546875 157.04688 49.234375Q156.53125 48.921875 155.82812 48.921875Q154.70312 48.921875 153.89062 49.640625Q153.07812 50.34375 153.07812 52.328125L153.07812 58.0L151.3125 58.0ZM168.3125 58.0L168.3125 47.625L169.90625 47.625L169.90625 49.109375Q171.04688 47.390625 173.20312 47.390625Q174.14062 47.390625 174.92188 47.734375Q175.71875 48.0625 176.10938 48.609375Q176.5 49.15625 176.65625 49.90625Q176.75 50.40625 176.75 51.625L176.75 58.0L174.98438 58.0L174.98438 51.6875Q174.98438 50.609375 174.78125 50.078125Q174.57812 49.546875 174.04688 49.234375Q173.53125 48.921875 172.82812 48.921875Q171.70312 48.921875 170.89062 49.640625Q170.07812 50.34375 170.07812 52.328125L170.07812 58.0L168.3125 58.0ZM178.67188 52.8125Q178.67188 49.9375 180.26562 48.546875Q181.60938 47.390625 183.53125 47.390625Q185.67188 47.390625 187.01562 48.796875Q188.375 50.203125 188.375 52.671875Q188.375 54.671875 187.78125 55.828125Q187.1875 56.96875 186.03125 57.609375Q184.89062 58.234375 183.53125 58.234375Q181.34375 58.234375 180.0 56.84375Q178.67188 55.4375 178.67188 52.8125ZM180.46875 52.8125Q180.46875 54.8125 181.32812 55.796875Q182.20312 56.78125 183.53125 56.78125Q184.84375 56.78125 185.70312 55.796875Q186.57812 54.796875 186.57812 52.75Q186.57812 50.828125 185.70312 49.84375Q184.82812 48.84375 183.53125 48.84375Q182.20312 48.84375 181.32812 49.84375Q180.46875 50.828125 180.46875 52.8125ZM197.10938 58.0L197.10938 56.46875Q195.90625 58.234375 193.82812 58.234375Q192.90625 58.234375 192.10938 57.890625Q191.3125 57.53125 190.92188 57.0Q190.54688 56.46875 190.39062 55.6875Q190.28125 55.171875 190.28125 54.046875L190.28125 47.625L192.03125 47.625L192.03125 53.375Q192.03125 54.75 192.14062 55.234375Q192.3125 55.921875 192.84375 56.328125Q193.39062 56.71875 194.17188 56.71875Q194.96875 56.71875 195.65625 56.3125Q196.35938 55.90625 196.64062 55.21875Q196.9375 54.515625 196.9375 53.1875L196.9375 47.625L198.6875 47.625L198.6875 58.0L197.10938 58.0ZM204.60938 54.46875Q204.59375 54.125 204.59375 53.953125Q204.59375 52.90625 204.89062 52.15625Q205.10938 51.59375 205.59375 51.015625Q205.9375 50.59375 206.84375 49.796875Q207.76562 48.984375 208.03125 48.515625Q208.3125 48.03125 208.3125 47.46875Q208.3125 46.4375 207.5 45.671875Q206.70312 44.890625 205.54688 44.890625Q204.42188 44.890625 203.67188 45.59375Q202.92188 46.296875 202.6875 47.78125L200.875 47.5625Q201.125 45.5625 202.32812 44.5Q203.53125 43.4375 205.51562 43.4375Q207.625 43.4375 208.875 44.578125Q210.125 45.71875 210.125 47.34375Q210.125 48.28125 209.67188 49.078125Q209.23438 49.859375 207.95312 51.0Q207.09375 51.765625 206.82812 52.125Q206.57812 52.484375 206.4375 52.953125Q206.3125 53.421875 206.29688 54.46875L204.60938 54.46875ZM204.5 58.0L204.5 56.0L206.5 56.0L206.5 58.0L204.5 58.0Z" fill-rule="nonzero"/></svg>