<svg version="1.1" viewBox="0.0 0.0 1262.0 780.0" fill="none" stroke="none" stroke-linecap="square" stroke-miterlimit="10" width="1262" height="780" xmlns:xlink="http://www.w3.org/1999/xlink" xmlns="http://www.w3.org/2000/svg"><path fill="#ffffff" d="M0 0L1262.0 0L1262.0 780.0L0 780.0L0 0Z" fill-rule="nonzero"/><path fill="#4285f4" d="M631.0 89.0C811.0448 89.0 957.0 234.95517 957.0 415.0C957.0 595.0448 811.0448 741.0 631.0 741.0L631.0 415.0Z" fill-rule="nonzero"/><path fill="#ea4335" d="M631.0 741.0C450.95517 741.0 305.0 595.0448 305.0 415.0C305.0 234.95517 450.95517 89.0 631.0 89.0L631.0 415.0Z" fill-rule="nonzero"/><path fill="#1a1a1a" d="M39.546875 407.73438L40.609375 407.64062Q40.6875 408.29688 40.96875 408.70312Q41.25 409.10938 41.828125 409.375Q42.421875 409.625 43.15625 409.625Q43.796875 409.625 44.296875 409.4375Q44.796875 409.23438 45.03125 408.90625Q45.28125 408.5625 45.28125 408.17188Q45.28125 407.76562 45.046875 407.46875Q44.8125 407.15625 44.28125 406.95312Q43.921875 406.8125 42.734375 406.53125Q41.5625 406.25 41.09375 406.0Q40.46875 405.67188 40.171875 405.20312Q39.875 404.71875 39.875 404.125Q39.875 403.48438 40.234375 402.92188Q40.609375 402.34375 41.3125 402.0625Q42.03125 401.76562 42.890625 401.76562Q43.84375 401.76562 44.578125 402.07812Q45.3125 402.375 45.703125 402.98438Q46.09375 403.57812 46.125 404.32812L45.03125 404.40625Q44.9375 403.59375 44.421875 403.1875Q43.921875 402.76562 42.9375 402.76562Q41.90625 402.76562 41.4375 403.14062Q40.96875 403.51562 40.96875 404.04688Q40.96875 404.51562 41.296875 404.8125Q41.625 405.10938 43.0 405.42188Q44.390625 405.73438 44.90625 405.96875Q45.65625 406.32812 46.015625 406.85938Q46.375 407.375 46.375 408.07812Q46.375 408.76562 45.984375 409.375Q45.59375 409.96875 44.859375 410.3125Q44.125 410.64062 43.203125 410.64062Q42.03125 410.64062 41.234375 410.3125Q40.453125 409.96875 40.0 409.28125Q39.5625 408.59375 39.546875 407.73438ZM51.859375 409.73438Q51.265625 410.23438 50.71875 410.4375Q50.1875 410.64062 49.5625 410.64062Q48.53125 410.64062 47.984375 410.14062Q47.4375 409.64062 47.4375 408.85938Q47.4375 408.40625 47.640625 408.03125Q47.84375 407.64062 48.1875 407.42188Q48.53125 407.1875 48.953125 407.07812Q49.25 406.98438 49.890625 406.90625Q51.15625 406.76562 51.765625 406.54688Q51.765625 406.32812 51.765625 406.28125Q51.765625 405.625 51.46875 405.35938Q51.0625 405.01562 50.265625 405.01562Q49.53125 405.01562 49.171875 405.28125Q48.8125 405.53125 48.640625 406.1875L47.609375 406.04688Q47.75 405.39062 48.078125 404.98438Q48.40625 404.57812 49.015625 404.35938Q49.625 404.14062 50.421875 404.14062Q51.21875 404.14062 51.71875 404.32812Q52.21875 404.51562 52.453125 404.79688Q52.6875 405.07812 52.78125 405.51562Q52.828125 405.78125 52.828125 406.48438L52.828125 407.89062Q52.828125 409.35938 52.890625 409.75Q52.96875 410.14062 53.171875 410.5L52.0625 410.5Q51.90625 410.17188 51.859375 409.73438ZM51.765625 407.375Q51.1875 407.60938 50.046875 407.78125Q49.390625 407.875 49.125 408.0Q48.859375 408.10938 48.703125 408.32812Q48.5625 408.54688 48.5625 408.82812Q48.5625 409.25 48.875 409.53125Q49.203125 409.8125 49.8125 409.8125Q50.421875 409.8125 50.890625 409.54688Q51.375 409.28125 51.59375 408.8125Q51.765625 408.45312 51.765625 407.76562L51.765625 407.375ZM51.015625 401.92188L51.734375 401.92188Q51.640625 402.65625 51.1875 403.04688Q50.75 403.4375 50.0 403.4375Q49.25 403.4375 48.796875 403.04688Q48.359375 402.65625 48.265625 401.92188L48.984375 401.92188Q49.078125 402.3125 49.3125 402.51562Q49.5625 402.71875 49.96875 402.71875Q50.4375 402.71875 50.6875 402.53125Q50.9375 402.32812 51.015625 401.92188ZM61.859375 408.21875L62.890625 408.35938Q62.71875 409.42188 62.015625 410.03125Q61.3125 410.64062 60.296875 410.64062Q59.015625 410.64062 58.234375 409.8125Q57.46875 408.96875 57.46875 407.40625Q57.46875 406.40625 57.796875 405.65625Q58.140625 404.89062 58.8125 404.51562Q59.5 404.14062 60.3125 404.14062Q61.3125 404.14062 61.953125 404.65625Q62.609375 405.15625 62.796875 406.10938L61.765625 406.26562Q61.625 405.64062 61.25 405.32812Q60.875 405.0 60.34375 405.0Q59.546875 405.0 59.046875 405.57812Q58.546875 406.14062 58.546875 407.375Q58.546875 408.64062 59.03125 409.20312Q59.515625 409.76562 60.28125 409.76562Q60.90625 409.76562 61.3125 409.39062Q61.734375 409.01562 61.859375 408.21875ZM67.875 410.5L67.875 409.57812Q67.140625 410.64062 65.890625 410.64062Q65.34375 410.64062 64.859375 410.4375Q64.390625 410.21875 64.15625 409.90625Q63.921875 409.57812 63.828125 409.10938Q63.765625 408.8125 63.765625 408.125L63.765625 404.28125L64.828125 404.28125L64.828125 407.73438Q64.828125 408.54688 64.890625 408.84375Q64.984375 409.25 65.296875 409.5Q65.625 409.73438 66.109375 409.73438Q66.578125 409.73438 66.984375 409.5Q67.40625 409.25 67.578125 408.82812Q67.765625 408.40625 67.765625 407.60938L67.765625 404.28125L68.8125 404.28125L68.8125 410.5L67.875 410.5ZM70.796875 410.5L70.796875 404.28125L71.734375 404.28125L71.734375 405.15625Q72.03125 404.6875 72.515625 404.42188Q73.0 404.14062 73.625 404.14062Q74.3125 404.14062 74.75 404.42188Q75.203125 404.70312 75.375 405.21875Q76.125 404.14062 77.296875 404.14062Q78.234375 404.14062 78.71875 404.65625Q79.21875 405.15625 79.21875 406.23438L79.21875 410.5L78.171875 410.5L78.171875 406.57812Q78.171875 405.95312 78.0625 405.67188Q77.96875 405.39062 77.703125 405.21875Q77.4375 405.04688 77.0625 405.04688Q76.40625 405.04688 75.96875 405.48438Q75.546875 405.92188 75.546875 406.89062L75.546875 410.5L74.484375 410.5L74.484375 406.45312Q74.484375 405.75 74.21875 405.40625Q73.96875 405.04688 73.390625 405.04688Q72.9375 405.04688 72.5625 405.28125Q72.1875 405.51562 72.015625 405.96875Q71.84375 406.42188 71.84375 407.26562L71.84375 410.5L70.796875 410.5ZM80.796875 412.89062L80.796875 404.28125L81.75 404.28125L81.75 405.07812Q82.09375 404.60938 82.515625 404.375Q82.953125 404.14062 83.5625 404.14062Q84.359375 404.14062 84.96875 404.54688Q85.578125 404.95312 85.875 405.70312Q86.1875 406.45312 86.1875 407.34375Q86.1875 408.29688 85.84375 409.0625Q85.515625 409.82812 84.859375 410.23438Q84.203125 410.64062 83.484375 410.64062Q82.953125 410.64062 82.53125 410.42188Q82.109375 410.1875 81.84375 409.85938L81.84375 412.89062L80.796875 412.89062ZM81.75 407.42188Q81.75 408.625 82.234375 409.20312Q82.71875 409.76562 83.40625 409.76562Q84.109375 409.76562 84.609375 409.17188Q85.109375 408.57812 85.109375 407.32812Q85.109375 406.14062 84.625 405.5625Q84.140625 404.96875 83.453125 404.96875Q82.78125 404.96875 82.265625 405.59375Q81.75 406.21875 81.75 407.42188ZM91.859375 409.73438Q91.265625 410.23438 90.71875 410.4375Q90.1875 410.64062 89.5625 410.64062Q88.53125 410.64062 87.984375 410.14062Q87.4375 409.64062 87.4375 408.85938Q87.4375 408.40625 87.640625 408.03125Q87.84375 407.64062 88.1875 407.42188Q88.53125 407.1875 88.953125 407.07812Q89.25 406.98438 89.890625 406.90625Q91.15625 406.76562 91.765625 406.54688Q91.765625 406.32812 91.765625 406.28125Q91.765625 405.625 91.46875 405.35938Q91.0625 405.01562 90.265625 405.01562Q89.53125 405.01562 89.171875 405.28125Q88.8125 405.53125 88.640625 406.1875L87.609375 406.04688Q87.75 405.39062 88.078125 404.98438Q88.40625 404.57812 89.015625 404.35938Q89.625 404.14062 90.421875 404.14062Q91.21875 404.14062 91.71875 404.32812Q92.21875 404.51562 92.453125 404.79688Q92.6875 405.07812 92.78125 405.51562Q92.828125 405.78125 92.828125 406.48438L92.828125 407.89062Q92.828125 409.35938 92.890625 409.75Q92.96875 410.14062 93.171875 410.5L92.0625 410.5Q91.90625 410.17188 91.859375 409.73438ZM91.765625 407.375Q91.1875 407.60938 90.046875 407.78125Q89.390625 407.875 89.125 408.0Q88.859375 408.10938 88.703125 408.32812Q88.5625 408.54688 88.5625 408.82812Q88.5625 409.25 88.875 409.53125Q89.203125 409.8125 89.8125 409.8125Q90.421875 409.8125 90.890625 409.54688Q91.375 409.28125 91.59375 408.8125Q91.765625 408.45312 91.765625 407.76562L91.765625 407.375ZM91.015625 401.92188L91.734375 401.92188Q91.640625 402.65625 91.1875 403.04688Q90.75 403.4375 90.0 403.4375Q89.25 403.4375 88.796875 403.04688Q88.359375 402.65625 88.265625 401.92188L88.984375 401.92188Q89.078125 402.3125 89.3125 402.51562Q89.5625 402.71875 89.96875 402.71875Q90.4375 402.71875 90.6875 402.53125Q90.9375 402.32812 91.015625 401.92188ZM94.78125 410.5L94.78125 404.28125L95.734375 404.28125L95.734375 405.21875Q96.09375 404.5625 96.390625 404.35938Q96.703125 404.14062 97.078125 404.14062Q97.609375 404.14062 98.15625 404.46875L97.796875 405.45312Q97.40625 405.21875 97.03125 405.21875Q96.671875 405.21875 96.390625 405.4375Q96.125 405.64062 96.015625 406.01562Q95.828125 406.57812 95.828125 407.23438L95.828125 410.5L94.78125 410.5ZM105.875 410.5L105.875 409.57812Q105.140625 410.64062 103.890625 410.64062Q103.34375 410.64062 102.859375 410.4375Q102.390625 410.21875 102.15625 409.90625Q101.921875 409.57812 101.828125 409.10938Q101.765625 408.8125 101.765625 408.125L101.765625 404.28125L102.828125 404.28125L102.828125 407.73438Q102.828125 408.54688 102.890625 408.84375Q102.984375 409.25 103.296875 409.5Q103.625 409.73438 104.109375 409.73438Q104.578125 409.73438 104.984375 409.5Q105.40625 409.25 105.578125 408.82812Q105.765625 408.40625 105.765625 407.60938L105.765625 404.28125L106.8125 404.28125L106.8125 410.5L105.875 410.5ZM108.796875 410.5L108.796875 404.28125L109.734375 404.28125L109.734375 405.15625Q110.421875 404.14062 111.71875 404.14062Q112.28125 404.14062 112.75 404.34375Q113.234375 404.54688 113.46875 404.875Q113.703125 405.20312 113.796875 405.64062Q113.84375 405.9375 113.84375 406.67188L113.84375 410.5L112.796875 410.5L112.796875 406.71875Q112.796875 406.0625 112.671875 405.75Q112.546875 405.4375 112.234375 405.25Q111.921875 405.04688 111.5 405.04688Q110.828125 405.04688 110.328125 405.48438Q109.84375 405.90625 109.84375 407.09375L109.84375 410.5L108.796875 410.5ZM122.859375 409.73438Q122.265625 410.23438 121.71875 410.4375Q121.1875 410.64062 120.5625 410.64062Q119.53125 410.64062 118.984375 410.14062Q118.4375 409.64062 118.4375 408.85938Q118.4375 408.40625 118.640625 408.03125Q118.84375 407.64062 119.1875 407.42188Q119.53125 407.1875 119.953125 407.07812Q120.25 406.98438 120.890625 406.90625Q122.15625 406.76562 122.765625 406.54688Q122.765625 406.32812 122.765625 406.28125Q122.765625 405.625 122.46875 405.35938Q122.0625 405.01562 121.265625 405.01562Q120.53125 405.01562 120.171875 405.28125Q119.8125 405.53125 119.640625 406.1875L118.609375 406.04688Q118.75 405.39062 119.078125 404.98438Q119.40625 404.57812 120.015625 404.35938Q120.625 404.14062 121.421875 404.14062Q122.21875 404.14062 122.71875 404.32812Q123.21875 404.51562 123.453125 404.79688Q123.6875 405.07812 123.78125 405.51562Q123.828125 405.78125 123.828125 406.48438L123.828125 407.89062Q123.828125 409.35938 123.890625 409.75Q123.96875 410.14062 124.171875 410.5L123.0625 410.5Q122.90625 410.17188 122.859375 409.73438ZM122.765625 407.375Q122.1875 407.60938 121.046875 407.78125Q120.390625 407.875 120.125 408.0Q119.859375 408.10938 119.703125 408.32812Q119.5625 408.54688 119.5625 408.82812Q119.5625 409.25 119.875 409.53125Q120.203125 409.8125 120.8125 409.8125Q121.421875 409.8125 121.890625 409.54688Q122.375 409.28125 122.59375 408.8125Q122.765625 408.45312 122.765625 407.76562L122.765625 407.375ZM125.796875 410.5L125.796875 404.28125L126.734375 404.28125L126.734375 405.15625Q127.421875 404.14062 128.71875 404.14062Q129.28125 404.14062 129.75 404.34375Q130.23438 404.54688 130.46875 404.875Q130.70312 405.20312 130.79688 405.64062Q130.84375 405.9375 130.84375 406.67188L130.84375 410.5L129.79688 410.5L129.79688 406.71875Q129.79688 406.0625 129.67188 405.75Q129.54688 405.4375 129.23438 405.25Q128.92188 405.04688 128.5 405.04688Q127.828125 405.04688 127.328125 405.48438Q126.84375 405.90625 126.84375 407.09375L126.84375 410.5L125.796875 410.5ZM132.79688 403.125L132.79688 401.90625L133.85938 401.90625L133.85938 403.125L132.79688 403.125ZM132.79688 410.5L132.79688 404.28125L133.85938 404.28125L133.85938 410.5L132.79688 410.5ZM135.79688 410.5L135.79688 404.28125L136.73438 404.28125L136.73438 405.15625Q137.03125 404.6875 137.51562 404.42188Q138.0 404.14062 138.625 404.14062Q139.3125 404.14062 139.75 404.42188Q140.20312 404.70312 140.375 405.21875Q141.125 404.14062 142.29688 404.14062Q143.23438 404.14062 143.71875 404.65625Q144.21875 405.15625 144.21875 406.23438L144.21875 410.5L143.17188 410.5L143.17188 406.57812Q143.17188 405.95312 143.0625 405.67188Q142.96875 405.39062 142.70312 405.21875Q142.4375 405.04688 142.0625 405.04688Q141.40625 405.04688 140.96875 405.48438Q140.54688 405.92188 140.54688 406.89062L140.54688 410.5L139.48438 410.5L139.48438 406.45312Q139.48438 405.75 139.21875 405.40625Q138.96875 405.04688 138.39062 405.04688Q137.9375 405.04688 137.5625 405.28125Q137.1875 405.51562 137.01562 405.96875Q136.84375 406.42188 136.84375 407.26562L136.84375 410.5L135.79688 410.5ZM149.85938 409.73438Q149.26562 410.23438 148.71875 410.4375Q148.1875 410.64062 147.5625 410.64062Q146.53125 410.64062 145.98438 410.14062Q145.4375 409.64062 145.4375 408.85938Q145.4375 408.40625 145.64062 408.03125Q145.84375 407.64062 146.1875 407.42188Q146.53125 407.1875 146.95312 407.07812Q147.25 406.98438 147.89062 406.90625Q149.15625 406.76562 149.76562 406.54688Q149.76562 406.32812 149.76562 406.28125Q149.76562 405.625 149.46875 405.35938Q149.0625 405.01562 148.26562 405.01562Q147.53125 405.01562 147.17188 405.28125Q146.8125 405.53125 146.64062 406.1875L145.60938 406.04688Q145.75 405.39062 146.07812 404.98438Q146.40625 404.57812 147.01562 404.35938Q147.625 404.14062 148.42188 404.14062Q149.21875 404.14062 149.71875 404.32812Q150.21875 404.51562 150.45312 404.79688Q150.6875 405.07812 150.78125 405.51562Q150.82812 405.78125 150.82812 406.48438L150.82812 407.89062Q150.82812 409.35938 150.89062 409.75Q150.96875 410.14062 151.17188 410.5L150.0625 410.5Q149.90625 410.17188 149.85938 409.73438ZM149.76562 407.375Q149.1875 407.60938 148.04688 407.78125Q147.39062 407.875 147.125 408.0Q146.85938 408.10938 146.70312 408.32812Q146.5625 408.54688 146.5625 408.82812Q146.5625 409.25 146.875 409.53125Q147.20312 409.8125 147.8125 409.8125Q148.42188 409.8125 148.89062 409.54688Q149.375 409.28125 149.59375 408.8125Q149.76562 408.45312 149.76562 407.76562L149.76562 407.375ZM152.76562 410.5L152.76562 401.90625L153.82812 401.90625L153.82812 410.5L152.76562 410.5ZM162.82812 410.5L162.82812 409.71875Q162.23438 410.64062 161.09375 410.64062Q160.34375 410.64062 159.71875 410.23438Q159.09375 409.8125 158.75 409.07812Q158.40625 408.34375 158.40625 407.39062Q158.40625 406.46875 158.71875 405.70312Q159.03125 404.9375 159.65625 404.54688Q160.28125 404.14062 161.04688 404.14062Q161.60938 404.14062 162.04688 404.375Q162.48438 404.60938 162.76562 404.98438L162.76562 401.90625L163.8125 401.90625L163.8125 410.5L162.82812 410.5ZM159.5 407.39062Q159.5 408.59375 160.0 409.1875Q160.5 409.76562 161.1875 409.76562Q161.875 409.76562 162.35938 409.20312Q162.84375 408.64062 162.84375 407.48438Q162.84375 406.20312 162.34375 405.60938Q161.85938 405.01562 161.14062 405.01562Q160.4375 405.01562 159.96875 405.59375Q159.5 406.15625 159.5 407.39062ZM170.04688 408.5L171.14062 408.625Q170.89062 409.57812 170.1875 410.10938Q169.48438 410.64062 168.40625 410.64062Q167.04688 410.64062 166.23438 409.79688Q165.4375 408.95312 165.4375 407.4375Q165.4375 405.875 166.25 405.01562Q167.0625 404.14062 168.34375 404.14062Q169.59375 404.14062 170.375 404.98438Q171.17188 405.82812 171.17188 407.375Q171.17188 407.46875 171.17188 407.65625L166.53125 407.65625Q166.59375 408.6875 167.10938 409.23438Q167.625 409.76562 168.40625 409.76562Q168.98438 409.76562 169.39062 409.46875Q169.8125 409.15625 170.04688 408.5ZM166.59375 406.79688L170.0625 406.79688Q170.0 406.0 169.67188 405.60938Q169.15625 405.0 168.35938 405.0Q167.625 405.0 167.125 405.48438Q166.64062 405.96875 166.59375 406.79688ZM175.78125 410.5L175.78125 404.28125L176.73438 404.28125L176.73438 405.21875Q177.09375 404.5625 177.39062 404.35938Q177.70312 404.14062 178.07812 404.14062Q178.60938 404.14062 179.15625 404.46875L178.79688 405.45312Q178.40625 405.21875 178.03125 405.21875Q177.67188 405.21875 177.39062 405.4375Q177.125 405.64062 177.01562 406.01562Q176.82812 406.57812 176.82812 407.23438L176.82812 410.5L175.78125 410.5ZM183.85938 409.73438Q183.26562 410.23438 182.71875 410.4375Q182.1875 410.64062 181.5625 410.64062Q180.53125 410.64062 179.98438 410.14062Q179.4375 409.64062 179.4375 408.85938Q179.4375 408.40625 179.64062 408.03125Q179.84375 407.64062 180.1875 407.42188Q180.53125 407.1875 180.95312 407.07812Q181.25 406.98438 181.89062 406.90625Q183.15625 406.76562 183.76562 406.54688Q183.76562 406.32812 183.76562 406.28125Q183.76562 405.625 183.46875 405.35938Q183.0625 405.01562 182.26562 405.01562Q181.53125 405.01562 181.17188 405.28125Q180.8125 405.53125 180.64062 406.1875L179.60938 406.04688Q179.75 405.39062 180.07812 404.98438Q180.40625 404.57812 181.01562 404.35938Q181.625 404.14062 182.42188 404.14062Q183.21875 404.14062 183.71875 404.32812Q184.21875 404.51562 184.45312 404.79688Q184.6875 405.07812 184.78125 405.51562Q184.82812 405.78125 184.82812 406.48438L184.82812 407.89062Q184.82812 409.35938 184.89062 409.75Q184.96875 410.14062 185.17188 410.5L184.0625 410.5Q183.90625 410.17188 183.85938 409.73438ZM183.76562 407.375Q183.1875 407.60938 182.04688 407.78125Q181.39062 407.875 181.125 408.0Q180.85938 408.10938 180.70312 408.32812Q180.5625 408.54688 180.5625 408.82812Q180.5625 409.25 180.875 409.53125Q181.20312 409.8125 181.8125 409.8125Q182.42188 409.8125 182.89062 409.54688Q183.375 409.28125 183.59375 408.8125Q183.76562 408.45312 183.76562 407.76562L183.76562 407.375ZM186.375 408.64062L187.40625 408.48438Q187.5 409.10938 187.89062 409.4375Q188.29688 409.76562 189.03125 409.76562Q189.75 409.76562 190.09375 409.48438Q190.45312 409.1875 190.45312 408.78125Q190.45312 408.42188 190.14062 408.21875Q189.92188 408.07812 189.0625 407.85938Q187.90625 407.5625 187.45312 407.35938Q187.01562 407.14062 186.78125 406.76562Q186.54688 406.39062 186.54688 405.92188Q186.54688 405.51562 186.73438 405.15625Q186.92188 404.79688 187.25 404.5625Q187.5 404.39062 187.92188 404.26562Q188.34375 404.14062 188.84375 404.14062Q189.5625 404.14062 190.10938 404.35938Q190.67188 404.5625 190.9375 404.92188Q191.20312 405.28125 191.29688 405.875L190.26562 406.01562Q190.20312 405.54688 189.85938 405.28125Q189.53125 405.0 188.90625 405.0Q188.1875 405.0 187.875 405.25Q187.5625 405.48438 187.5625 405.8125Q187.5625 406.01562 187.6875 406.17188Q187.82812 406.34375 188.09375 406.45312Q188.25 406.51562 189.03125 406.71875Q190.15625 407.03125 190.59375 407.21875Q191.03125 407.40625 191.28125 407.76562Q191.53125 408.125 191.53125 408.67188Q191.53125 409.20312 191.21875 409.67188Q190.92188 410.125 190.34375 410.39062Q189.76562 410.64062 189.03125 410.64062Q187.8125 410.64062 187.17188 410.14062Q186.54688 409.625 186.375 408.64062ZM196.85938 409.73438Q196.26562 410.23438 195.71875 410.4375Q195.1875 410.64062 194.5625 410.64062Q193.53125 410.64062 192.98438 410.14062Q192.4375 409.64062 192.4375 408.85938Q192.4375 408.40625 192.64062 408.03125Q192.84375 407.64062 193.1875 407.42188Q193.53125 407.1875 193.95312 407.07812Q194.25 406.98438 194.89062 406.90625Q196.15625 406.76562 196.76562 406.54688Q196.76562 406.32812 196.76562 406.28125Q196.76562 405.625 196.46875 405.35938Q196.0625 405.01562 195.26562 405.01562Q194.53125 405.01562 194.17188 405.28125Q193.8125 405.53125 193.64062 406.1875L192.60938 406.04688Q192.75 405.39062 193.07812 404.98438Q193.40625 404.57812 194.01562 404.35938Q194.625 404.14062 195.42188 404.14062Q196.21875 404.14062 196.71875 404.32812Q197.21875 404.51562 197.45312 404.79688Q197.6875 405.07812 197.78125 405.51562Q197.82812 405.78125 197.82812 406.48438L197.82812 407.89062Q197.82812 409.35938 197.89062 409.75Q197.96875 410.14062 198.17188 410.5L197.0625 410.5Q196.90625 410.17188 196.85938 409.73438ZM196.76562 407.375Q196.1875 407.60938 195.04688 407.78125Q194.39062 407.875 194.125 408.0Q193.85938 408.10938 193.70312 408.32812Q193.5625 408.54688 193.5625 408.82812Q193.5625 409.25 193.875 409.53125Q194.20312 409.8125 194.8125 409.8125Q195.42188 409.8125 195.89062 409.54688Q196.375 409.28125 196.59375 408.8125Q196.76562 408.45312 196.76562 407.76562L196.76562 407.375ZM196.01562 401.92188L196.73438 401.92188Q196.64062 402.65625 196.1875 403.04688Q195.75 403.4375 195.0 403.4375Q194.25 403.4375 193.79688 403.04688Q193.35938 402.65625 193.26562 401.92188L193.98438 401.92188Q194.07812 402.3125 194.3125 402.51562Q194.5625 402.71875 194.96875 402.71875Q195.4375 402.71875 195.6875 402.53125Q195.9375 402.32812 196.01562 401.92188Z" fill-rule="nonzero"/><path fill="#9e9e9e" d="M39.5 425.25L40.609375 425.15625Q40.734375 425.96875 41.171875 426.375Q41.625 426.78125 42.265625 426.78125Q43.015625 426.78125 43.546875 426.20312Q44.078125 425.625 44.078125 424.6875Q44.078125 423.78125 43.5625 423.26562Q43.0625 422.73438 42.234375 422.73438Q41.734375 422.73438 41.3125 422.96875Q40.90625 423.20312 40.671875 423.5625L39.6875 423.4375L40.515625 419.03125L44.796875 419.03125L44.796875 420.03125L41.359375 420.03125L40.90625 422.34375Q41.671875 421.79688 42.515625 421.79688Q43.640625 421.79688 44.40625 422.57812Q45.1875 423.35938 45.1875 424.59375Q45.1875 425.75 44.515625 426.60938Q43.6875 427.64062 42.265625 427.64062Q41.09375 427.64062 40.34375 426.98438Q39.609375 426.32812 39.5 425.25ZM46.5 423.26562Q46.5 421.73438 46.8125 420.8125Q47.125 419.875 47.734375 419.375Q48.359375 418.875 49.296875 418.875Q49.984375 418.875 50.5 419.15625Q51.03125 419.4375 51.375 419.96875Q51.71875 420.48438 51.90625 421.23438Q52.09375 421.98438 52.09375 423.26562Q52.09375 424.78125 51.78125 425.70312Q51.484375 426.625 50.859375 427.14062Q50.25 427.64062 49.296875 427.64062Q48.0625 427.64062 47.34375 426.75Q46.5 425.6875 46.5 423.26562ZM47.578125 423.26562Q47.578125 425.375 48.078125 426.07812Q48.578125 426.78125 49.296875 426.78125Q50.03125 426.78125 50.515625 426.07812Q51.015625 425.375 51.015625 423.26562Q51.015625 421.14062 50.515625 420.45312Q50.03125 419.75 49.28125 419.75Q48.5625 419.75 48.125 420.35938Q47.578125 421.14062 47.578125 423.26562ZM54.09375 427.5L54.09375 426.29688L55.296875 426.29688L55.296875 427.5L54.09375 427.5ZM56.5 423.26562Q56.5 421.73438 56.8125 420.8125Q57.125 419.875 57.734375 419.375Q58.359375 418.875 59.296875 418.875Q59.984375 418.875 60.5 419.15625Q61.03125 419.4375 61.375 419.96875Q61.71875 420.48438 61.90625 421.23438Q62.09375 421.98438 62.09375 423.26562Q62.09375 424.78125 61.78125 425.70312Q61.484375 426.625 60.859375 427.14062Q60.25 427.64062 59.296875 427.64062Q58.0625 427.64062 57.34375 426.75Q56.5 425.6875 56.5 423.26562ZM57.578125 423.26562Q57.578125 425.375 58.078125 426.07812Q58.578125 426.78125 59.296875 426.78125Q60.03125 426.78125 60.515625 426.07812Q61.015625 425.375 61.015625 423.26562Q61.015625 421.14062 60.515625 420.45312Q60.03125 419.75 59.28125 419.75Q58.5625 419.75 58.125 420.35938Q57.578125 421.14062 57.578125 423.26562ZM63.703125 420.96875Q63.703125 420.04688 64.15625 419.40625Q64.625 418.76562 65.5 418.76562Q66.3125 418.76562 66.84375 419.34375Q67.375 419.92188 67.375 421.03125Q67.375 422.125 66.828125 422.71875Q66.296875 423.29688 65.515625 423.29688Q64.734375 423.29688 64.21875 422.71875Q63.703125 422.14062 63.703125 420.96875ZM65.53125 419.48438Q65.140625 419.48438 64.875 419.82812Q64.625 420.17188 64.625 421.07812Q64.625 421.90625 64.875 422.25Q65.140625 422.57812 65.53125 422.57812Q65.9375 422.57812 66.1875 422.23438Q66.453125 421.89062 66.453125 421.0Q66.453125 420.15625 66.1875 419.82812Q65.921875 419.48438 65.53125 419.48438ZM65.53125 427.8125L70.234375 418.76562L71.09375 418.76562L66.40625 427.8125L65.53125 427.8125ZM69.25 425.48438Q69.25 424.5625 69.703125 423.92188Q70.171875 423.28125 71.0625 423.28125Q71.875 423.28125 72.40625 423.85938Q72.9375 424.42188 72.9375 425.54688Q72.9375 426.64062 72.390625 427.23438Q71.859375 427.8125 71.0625 427.8125Q70.296875 427.8125 69.765625 427.23438Q69.25 426.65625 69.25 425.48438ZM71.09375 424.0Q70.6875 424.0 70.421875 424.34375Q70.171875 424.6875 70.171875 425.59375Q70.171875 426.40625 70.4375 426.75Q70.703125 427.09375 71.09375 427.09375Q71.484375 427.09375 71.75 426.75Q72.015625 426.40625 72.015625 425.5Q72.015625 424.67188 71.75 424.34375Q71.484375 424.0 71.09375 424.0Z" fill-rule="nonzero"/><path stroke="#757575" stroke-width="1.0" stroke-linecap="butt" d="M39.0 415.0L299.0 415.0L321.3 415.0" fill-rule="nonzero"/><path fill="#9e9e9e" d="M323.3 415.0C323.3 413.89542 322.40457 413.0 321.3 413.0C320.19543 413.0 319.3 413.89542 319.3 415.0C319.3 416.10458 320.19543 417.0 321.3 417.0C322.40457 417.0 323.3 416.10458 323.3 415.0" fill-rule="nonzero"/><path fill="#1a1a1a" d="M996.5469 407.73438L997.6094 407.64062Q997.6875 408.29688 997.96875 408.70312Q998.25 409.10938 998.8281 409.375Q999.4219 409.625 1000.15625 409.625Q1000.7969 409.625 1001.2969 409.4375Q1001.7969 409.23438 1002.03125 408.90625Q1002.28125 408.5625 1002.28125 408.17188Q1002.28125 407.76562 1002.0469 407.46875Q1001.8125 407.15625 1001.28125 406.95312Q1000.9219 406.8125 999.7344 406.53125Q998.5625 406.25 998.09375 406.0Q997.46875 405.67188 997.1719 405.20312Q996.875 404.71875 996.875 404.125Q996.875 403.48438 997.2344 402.92188Q997.6094 402.34375 998.3125 402.0625Q999.03125 401.76562 999.8906 401.76562Q1000.84375 401.76562 1001.5781 402.07812Q1002.3125 402.375 1002.7031 402.98438Q1003.09375 403.57812 1003.125 404.32812L1002.03125 404.40625Q1001.9375 403.59375 1001.4219 403.1875Q1000.9219 402.76562 999.9375 402.76562Q998.90625 402.76562 998.4375 403.14062Q997.96875 403.51562 997.96875 404.04688Q997.96875 404.51562 998.2969 404.8125Q998.625 405.10938 1000.0 405.42188Q1001.3906 405.73438 1001.90625 405.96875Q1002.65625 406.32812 1003.0156 406.85938Q1003.375 407.375 1003.375 408.07812Q1003.375 408.76562 1002.9844 409.375Q1002.59375 409.96875 1001.8594 410.3125Q1001.125 410.64062 1000.2031 410.64062Q999.03125 410.64062 998.2344 410.3125Q997.4531 409.96875 997.0 409.28125Q996.5625 408.59375 996.5469 407.73438ZM1008.8594 409.73438Q1008.2656 410.23438 1007.71875 410.4375Q1007.1875 410.64062 1006.5625 410.64062Q1005.53125 410.64062 1004.9844 410.14062Q1004.4375 409.64062 1004.4375 408.85938Q1004.4375 408.40625 1004.6406 408.03125Q1004.84375 407.64062 1005.1875 407.42188Q1005.53125 407.1875 1005.9531 407.07812Q1006.25 406.98438 1006.8906 406.90625Q1008.15625 406.76562 1008.7656 406.54688Q1008.7656 406.32812 1008.7656 406.28125Q1008.7656 405.625 1008.46875 405.35938Q1008.0625 405.01562 1007.2656 405.01562Q1006.53125 405.01562 1006.1719 405.28125Q1005.8125 405.53125 1005.6406 406.1875L1004.6094 406.04688Q1004.75 405.39062 1005.0781 404.98438Q1005.40625 404.57812 1006.0156 404.35938Q1006.625 404.14062 1007.4219 404.14062Q1008.21875 404.14062 1008.71875 404.32812Q1009.21875 404.51562 1009.4531 404.79688Q1009.6875 405.07812 1009.78125 405.51562Q1009.8281 405.78125 1009.8281 406.48438L1009.8281 407.89062Q1009.8281 409.35938 1009.8906 409.75Q1009.96875 410.14062 1010.1719 410.5L1009.0625 410.5Q1008.90625 410.17188 1008.8594 409.73438ZM1008.7656 407.375Q1008.1875 407.60938 1007.0469 407.78125Q1006.3906 407.875 1006.125 408.0Q1005.8594 408.10938 1005.7031 408.32812Q1005.5625 408.54688 1005.5625 408.82812Q1005.5625 409.25 1005.875 409.53125Q1006.2031 409.8125 1006.8125 409.8125Q1007.4219 409.8125 1007.8906 409.54688Q1008.375 409.28125 1008.59375 408.8125Q1008.7656 408.45312 1008.7656 407.76562L1008.7656 407.375ZM1008.0156 401.92188L1008.7344 401.92188Q1008.6406 402.65625 1008.1875 403.04688Q1007.75 403.4375 1007.0 403.4375Q1006.25 403.4375 1005.7969 403.04688Q1005.3594 402.65625 1005.2656 401.92188L1005.9844 401.92188Q1006.0781 402.3125 1006.3125 402.51562Q1006.5625 402.71875 1006.96875 402.71875Q1007.4375 402.71875 1007.6875 402.53125Q1007.9375 402.32812 1008.0156 401.92188ZM1018.8594 409.73438Q1018.2656 410.23438 1017.71875 410.4375Q1017.1875 410.64062 1016.5625 410.64062Q1015.53125 410.64062 1014.9844 410.14062Q1014.4375 409.64062 1014.4375 408.85938Q1014.4375 408.40625 1014.6406 408.03125Q1014.84375 407.64062 1015.1875 407.42188Q1015.53125 407.1875 1015.9531 407.07812Q1016.25 406.98438 1016.8906 406.90625Q1018.15625 406.76562 1018.7656 406.54688Q1018.7656 406.32812 1018.7656 406.28125Q1018.7656 405.625 1018.46875 405.35938Q1018.0625 405.01562 1017.2656 405.01562Q1016.53125 405.01562 1016.1719 405.28125Q1015.8125 405.53125 1015.6406 406.1875L1014.6094 406.04688Q1014.75 405.39062 1015.0781 404.98438Q1015.40625 404.57812 1016.0156 404.35938Q1016.625 404.14062 1017.4219 404.14062Q1018.21875 404.14062 1018.71875 404.32812Q1019.21875 404.51562 1019.4531 404.79688Q1019.6875 405.07812 1019.78125 405.51562Q1019.8281 405.78125 1019.8281 406.48438L1019.8281 407.89062Q1019.8281 409.35938 1019.8906 409.75Q1019.96875 410.14062 1020.1719 410.5L1019.0625 410.5Q1018.90625 410.17188 1018.8594 409.73438ZM1018.7656 407.375Q1018.1875 407.60938 1017.0469 407.78125Q1016.3906 407.875 1016.125 408.0Q1015.8594 408.10938 1015.7031 408.32812Q1015.5625 408.54688 1015.5625 408.82812Q1015.5625 409.25 1015.875 409.53125Q1016.2031 409.8125 1016.8125 409.8125Q1017.4219 409.8125 1017.8906 409.54688Q1018.375 409.28125 1018.59375 408.8125Q1018.7656 408.45312 1018.7656 407.76562L1018.7656 407.375ZM1025.8281 410.5L1025.8281 409.71875Q1025.2344 410.64062 1024.0938 410.64062Q1023.34375 410.64062 1022.71875 410.23438Q1022.09375 409.8125 1021.75 409.07812Q1021.40625 408.34375 1021.40625 407.39062Q1021.40625 406.46875 1021.71875 405.70312Q1022.03125 404.9375 1022.65625 404.54688Q1023.28125 404.14062 1024.0469 404.14062Q1024.6094 404.14062 1025.0469 404.375Q1025.4844 404.60938 1025.7656 404.98438L1025.7656 401.90625L1026.8125 401.90625L1026.8125 410.5L1025.8281 410.5ZM1022.5 407.39062Q1022.5 408.59375 1023.0 409.1875Q1023.5 409.76562 1024.1875 409.76562Q1024.875 409.76562 1025.3594 409.20312Q1025.8438 408.64062 1025.8438 407.48438Q1025.8438 406.20312 1025.3438 405.60938Q1024.8594 405.01562 1024.1406 405.01562Q1023.4375 405.01562 1022.96875 405.59375Q1022.5 406.15625 1022.5 407.39062ZM1028.4062 407.39062Q1028.4062 405.65625 1029.3594 404.82812Q1030.1562 404.14062 1031.3125 404.14062Q1032.5938 404.14062 1033.4062 404.98438Q1034.2344 405.8125 1034.2344 407.29688Q1034.2344 408.5 1033.875 409.1875Q1033.5156 409.875 1032.8125 410.26562Q1032.125 410.64062 1031.3125 410.64062Q1030.0156 410.64062 1029.2031 409.8125Q1028.4062 408.96875 1028.4062 407.39062ZM1029.4844 407.39062Q1029.4844 408.57812 1030.0 409.17188Q1030.5312 409.76562 1031.3125 409.76562Q1032.1094 409.76562 1032.625 409.17188Q1033.1406 408.57812 1033.1406 407.35938Q1033.1406 406.20312 1032.6094 405.60938Q1032.0938 405.01562 1031.3125 405.01562Q1030.5312 405.01562 1030.0 405.60938Q1029.4844 406.1875 1029.4844 407.39062ZM1035.7969 412.89062L1035.7969 404.28125L1036.75 404.28125L1036.75 405.07812Q1037.0938 404.60938 1037.5156 404.375Q1037.9531 404.14062 1038.5625 404.14062Q1039.3594 404.14062 1039.9688 404.54688Q1040.5781 404.95312 1040.875 405.70312Q1041.1875 406.45312 1041.1875 407.34375Q1041.1875 408.29688 1040.8438 409.0625Q1040.5156 409.82812 1039.8594 410.23438Q1039.2031 410.64062 1038.4844 410.64062Q1037.9531 410.64062 1037.5312 410.42188Q1037.1094 410.1875 1036.8438 409.85938L1036.8438 412.89062L1035.7969 412.89062ZM1036.75 407.42188Q1036.75 408.625 1037.2344 409.20312Q1037.7188 409.76562 1038.4062 409.76562Q1039.1094 409.76562 1039.6094 409.17188Q1040.1094 408.57812 1040.1094 407.32812Q1040.1094 406.14062 1039.625 405.5625Q1039.1406 404.96875 1038.4531 404.96875Q1037.7812 404.96875 1037.2656 405.59375Q1036.75 406.21875 1036.75 407.42188ZM1045.0938 409.5625L1045.25 410.48438Q1044.7969 410.57812 1044.4531 410.57812Q1043.875 410.57812 1043.5625 410.40625Q1043.25 410.21875 1043.1094 409.92188Q1042.9844 409.625 1042.9844 408.67188L1042.9844 405.09375L1042.2188 405.09375L1042.2188 404.28125L1042.9844 404.28125L1042.9844 402.73438L1044.0312 402.10938L1044.0312 404.28125L1045.0938 404.28125L1045.0938 405.09375L1044.0312 405.09375L1044.0312 408.73438Q1044.0312 409.1875 1044.0781 409.3125Q1044.1406 409.4375 1044.2656 409.51562Q1044.3906 409.59375 1044.625 409.59375Q1044.8125 409.59375 1045.0938 409.5625ZM1052.875 410.5L1052.875 409.57812Q1052.1406 410.64062 1050.8906 410.64062Q1050.3438 410.64062 1049.8594 410.4375Q1049.3906 410.21875 1049.1562 409.90625Q1048.9219 409.57812 1048.8281 409.10938Q1048.7656 408.8125 1048.7656 408.125L1048.7656 404.28125L1049.8281 404.28125L1049.8281 407.73438Q1049.8281 408.54688 1049.8906 408.84375Q1049.9844 409.25 1050.2969 409.5Q1050.625 409.73438 1051.1094 409.73438Q1051.5781 409.73438 1051.9844 409.5Q1052.4062 409.25 1052.5781 408.82812Q1052.7656 408.40625 1052.7656 407.60938L1052.7656 404.28125L1053.8125 404.28125L1053.8125 410.5L1052.875 410.5ZM1055.7969 410.5L1055.7969 404.28125L1056.7344 404.28125L1056.7344 405.15625Q1057.4219 404.14062 1058.7188 404.14062Q1059.2812 404.14062 1059.75 404.34375Q1060.2344 404.54688 1060.4688 404.875Q1060.7031 405.20312 1060.7969 405.64062Q1060.8438 405.9375 1060.8438 406.67188L1060.8438 410.5L1059.7969 410.5L1059.7969 406.71875Q1059.7969 406.0625 1059.6719 405.75Q1059.5469 405.4375 1059.2344 405.25Q1058.9219 405.04688 1058.5 405.04688Q1057.8281 405.04688 1057.3281 405.48438Q1056.8438 405.90625 1056.8438 407.09375L1056.8438 410.5L1055.7969 410.5ZM1069.8594 409.73438Q1069.2656 410.23438 1068.7188 410.4375Q1068.1875 410.64062 1067.5625 410.64062Q1066.5312 410.64062 1065.9844 410.14062Q1065.4375 409.64062 1065.4375 408.85938Q1065.4375 408.40625 1065.6406 408.03125Q1065.8438 407.64062 1066.1875 407.42188Q1066.5312 407.1875 1066.9531 407.07812Q1067.25 406.98438 1067.8906 406.90625Q1069.1562 406.76562 1069.7656 406.54688Q1069.7656 406.32812 1069.7656 406.28125Q1069.7656 405.625 1069.4688 405.35938Q1069.0625 405.01562 1068.2656 405.01562Q1067.5312 405.01562 1067.1719 405.28125Q1066.8125 405.53125 1066.6406 406.1875L1065.6094 406.04688Q1065.75 405.39062 1066.0781 404.98438Q1066.4062 404.57812 1067.0156 404.35938Q1067.625 404.14062 1068.4219 404.14062Q1069.2188 404.14062 1069.7188 404.32812Q1070.2188 404.51562 1070.4531 404.79688Q1070.6875 405.07812 1070.7812 405.51562Q1070.8281 405.78125 1070.8281 406.48438L1070.8281 407.89062Q1070.8281 409.35938 1070.8906 409.75Q1070.9688 410.14062 1071.1719 410.5L1070.0625 410.5Q1069.9062 410.17188 1069.8594 409.73438ZM1069.7656 407.375Q1069.1875 407.60938 1068.0469 407.78125Q1067.3906 407.875 1067.125 408.0Q1066.8594 408.10938 1066.7031 408.32812Q1066.5625 408.54688 1066.5625 408.82812Q1066.5625 409.25 1066.875 409.53125Q1067.2031 409.8125 1067.8125 409.8125Q1068.4219 409.8125 1068.8906 409.54688Q1069.375 409.28125 1069.5938 408.8125Q1069.7656 408.45312 1069.7656 407.76562L1069.7656 407.375ZM1072.7969 410.5L1072.7969 404.28125L1073.7344 404.28125L1073.7344 405.15625Q1074.4219 404.14062 1075.7188 404.14062Q1076.2812 404.14062 1076.75 404.34375Q1077.2344 404.54688 1077.4688 404.875Q1077.7031 405.20312 1077.7969 405.64062Q1077.8438 405.9375 1077.8438 406.67188L1077.8438 410.5L1076.7969 410.5L1076.7969 406.71875Q1076.7969 406.0625 1076.6719 405.75Q1076.5469 405.4375 1076.2344 405.25Q1075.9219 405.04688 1075.5 405.04688Q1074.8281 405.04688 1074.3281 405.48438Q1073.8438 405.90625 1073.8438 407.09375L1073.8438 410.5L1072.7969 410.5ZM1079.7969 403.125L1079.7969 401.90625L1080.8594 401.90625L1080.8594 403.125L1079.7969 403.125ZM1079.7969 410.5L1079.7969 404.28125L1080.8594 404.28125L1080.8594 410.5L1079.7969 410.5ZM1082.7969 410.5L1082.7969 404.28125L1083.7344 404.28125L1083.7344 405.15625Q1084.0312 404.6875 1084.5156 404.42188Q1085.0 404.14062 1085.625 404.14062Q1086.3125 404.14062 1086.75 404.42188Q1087.2031 404.70312 1087.375 405.21875Q1088.125 404.14062 1089.2969 404.14062Q1090.2344 404.14062 1090.7188 404.65625Q1091.2188 405.15625 1091.2188 406.23438L1091.2188 410.5L1090.1719 410.5L1090.1719 406.57812Q1090.1719 405.95312 1090.0625 405.67188Q1089.9688 405.39062 1089.7031 405.21875Q1089.4375 405.04688 1089.0625 405.04688Q1088.4062 405.04688 1087.9688 405.48438Q1087.5469 405.92188 1087.5469 406.89062L1087.5469 410.5L1086.4844 410.5L1086.4844 406.45312Q1086.4844 405.75 1086.2188 405.40625Q1085.9688 405.04688 1085.3906 405.04688Q1084.9375 405.04688 1084.5625 405.28125Q1084.1875 405.51562 1084.0156 405.96875Q1083.8438 406.42188 1083.8438 407.26562L1083.8438 410.5L1082.7969 410.5ZM1096.8594 409.73438Q1096.2656 410.23438 1095.7188 410.4375Q1095.1875 410.64062 1094.5625 410.64062Q1093.5312 410.64062 1092.9844 410.14062Q1092.4375 409.64062 1092.4375 408.85938Q1092.4375 408.40625 1092.6406 408.03125Q1092.8438 407.64062 1093.1875 407.42188Q1093.5312 407.1875 1093.9531 407.07812Q1094.25 406.98438 1094.8906 406.90625Q1096.1562 406.76562 1096.7656 406.54688Q1096.7656 406.32812 1096.7656 406.28125Q1096.7656 405.625 1096.4688 405.35938Q1096.0625 405.01562 1095.2656 405.01562Q1094.5312 405.01562 1094.1719 405.28125Q1093.8125 405.53125 1093.6406 406.1875L1092.6094 406.04688Q1092.75 405.39062 1093.0781 404.98438Q1093.4062 404.57812 1094.0156 404.35938Q1094.625 404.14062 1095.4219 404.14062Q1096.2188 404.14062 1096.7188 404.32812Q1097.2188 404.51562 1097.4531 404.79688Q1097.6875 405.07812 1097.7812 405.51562Q1097.8281 405.78125 1097.8281 406.48438L1097.8281 407.89062Q1097.8281 409.35938 1097.8906 409.75Q1097.9688 410.14062 1098.1719 410.5L1097.0625 410.5Q1096.9062 410.17188 1096.8594 409.73438ZM1096.7656 407.375Q1096.1875 407.60938 1095.0469 407.78125Q1094.3906 407.875 1094.125 408.0Q1093.8594 408.10938 1093.7031 408.32812Q1093.5625 408.54688 1093.5625 408.82812Q1093.5625 409.25 1093.875 409.53125Q1094.2031 409.8125 1094.8125 409.8125Q1095.4219 409.8125 1095.8906 409.54688Q1096.375 409.28125 1096.5938 408.8125Q1096.7656 408.45312 1096.7656 407.76562L1096.7656 407.375ZM1099.7656 410.5L1099.7656 401.90625L1100.8281 401.90625L1100.8281 410.5L1099.7656 410.5ZM1107.8125 413.03125Q1106.9375 411.92188 1106.3281 410.45312Q1105.7344 408.96875 1105.7344 407.39062Q1105.7344 406.0 1106.1719 404.71875Q1106.7031 403.23438 1107.8125 401.76562L1108.5625 401.76562Q1107.8594 402.98438 1107.625 403.5Q1107.2656 404.3125 1107.0625 405.1875Q1106.8125 406.28125 1106.8125 407.39062Q1106.8125 410.21875 1108.5625 413.03125L1107.8125 413.03125ZM1109.7969 410.5L1109.7969 404.28125L1110.7344 404.28125L1110.7344 405.15625Q1111.4219 404.14062 1112.7188 404.14062Q1113.2812 404.14062 1113.75 404.34375Q1114.2344 404.54688 1114.4688 404.875Q1114.7031 405.20312 1114.7969 405.64062Q1114.8438 405.9375 1114.8438 406.67188L1114.8438 410.5L1113.7969 410.5L1113.7969 406.71875Q1113.7969 406.0625 1113.6719 405.75Q1113.5469 405.4375 1113.2344 405.25Q1112.9219 405.04688 1112.5 405.04688Q1111.8281 405.04688 1111.3281 405.48438Q1110.8438 405.90625 1110.8438 407.09375L1110.8438 410.5L1109.7969 410.5ZM1120.875 410.5L1120.875 409.57812Q1120.1406 410.64062 1118.8906 410.64062Q1118.3438 410.64062 1117.8594 410.4375Q1117.3906 410.21875 1117.1562 409.90625Q1116.9219 409.57812 1116.8281 409.10938Q1116.7656 408.8125 1116.7656 408.125L1116.7656 404.28125L1117.8281 404.28125L1117.8281 407.73438Q1117.8281 408.54688 1117.8906 408.84375Q1117.9844 409.25 1118.2969 409.5Q1118.625 409.73438 1119.1094 409.73438Q1119.5781 409.73438 1119.9844 409.5Q1120.4062 409.25 1120.5781 408.82812Q1120.7656 408.40625 1120.7656 407.60938L1120.7656 404.28125L1121.8125 404.28125L1121.8125 410.5L1120.875 410.5ZM1126.7969 410.5L1126.7969 404.28125L1127.7344 404.28125L1127.7344 405.15625Q1128.4219 404.14062 1129.7188 404.14062Q1130.2812 404.14062 1130.75 404.34375Q1131.2344 404.54688 1131.4688 404.875Q1131.7031 405.20312 1131.7969 405.64062Q1131.8438 405.9375 1131.8438 406.67188L1131.8438 410.5L1130.7969 410.5L1130.7969 406.71875Q1130.7969 406.0625 1130.6719 405.75Q1130.5469 405.4375 1130.2344 405.25Q1129.9219 405.04688 1129.5 405.04688Q1128.8281 405.04688 1128.3281 405.48438Q1127.8438 405.90625 1127.8438 407.09375L1127.8438 410.5L1126.7969 410.5ZM1138.0469 408.5L1139.1406 408.625Q1138.8906 409.57812 1138.1875 410.10938Q1137.4844 410.64062 1136.4062 410.64062Q1135.0469 410.64062 1134.2344 409.79688Q1133.4375 408.95312 1133.4375 407.4375Q1133.4375 405.875 1134.25 405.01562Q1135.0625 404.14062 1136.3438 404.14062Q1137.5938 404.14062 1138.375 404.98438Q1139.1719 405.82812 1139.1719 407.375Q1139.1719 407.46875 1139.1719 407.65625L1134.5312 407.65625Q1134.5938 408.6875 1135.1094 409.23438Q1135.625 409.76562 1136.4062 409.76562Q1136.9844 409.76562 1137.3906 409.46875Q1137.8125 409.15625 1138.0469 408.5ZM1134.5938 406.79688L1138.0625 406.79688Q1138.0 406.0 1137.6719 405.60938Q1137.1562 405.0 1136.3594 405.0Q1135.625 405.0 1135.125 405.48438Q1134.6406 405.96875 1134.5938 406.79688ZM1144.8594 409.73438Q1144.2656 410.23438 1143.7188 410.4375Q1143.1875 410.64062 1142.5625 410.64062Q1141.5312 410.64062 1140.9844 410.14062Q1140.4375 409.64062 1140.4375 408.85938Q1140.4375 408.40625 1140.6406 408.03125Q1140.8438 407.64062 1141.1875 407.42188Q1141.5312 407.1875 1141.9531 407.07812Q1142.25 406.98438 1142.8906 406.90625Q1144.1562 406.76562 1144.7656 406.54688Q1144.7656 406.32812 1144.7656 406.28125Q1144.7656 405.625 1144.4688 405.35938Q1144.0625 405.01562 1143.2656 405.01562Q1142.5312 405.01562 1142.1719 405.28125Q1141.8125 405.53125 1141.6406 406.1875L1140.6094 406.04688Q1140.75 405.39062 1141.0781 404.98438Q1141.4062 404.57812 1142.0156 404.35938Q1142.625 404.14062 1143.4219 404.14062Q1144.2188 404.14062 1144.7188 404.32812Q1145.2188 404.51562 1145.4531 404.79688Q1145.6875 405.07812 1145.7812 405.51562Q1145.8281 405.78125 1145.8281 406.48438L1145.8281 407.89062Q1145.8281 409.35938 1145.8906 409.75Q1145.9688 410.14062 1146.1719 410.5L1145.0625 410.5Q1144.9062 410.17188 1144.8594 409.73438ZM1144.7656 407.375Q1144.1875 407.60938 1143.0469 407.78125Q1142.3906 407.875 1142.125 408.0Q1141.8594 408.10938 1141.7031 408.32812Q1141.5625 408.54688 1141.5625 408.82812Q1141.5625 409.25 1141.875 409.53125Q1142.2031 409.8125 1142.8125 409.8125Q1143.4219 409.8125 1143.8906 409.54688Q1144.375 409.28125 1144.5938 408.8125Q1144.7656 408.45312 1144.7656 407.76562L1144.7656 407.375ZM1147.7969 412.89062L1147.7969 404.28125L1148.75 404.28125L1148.75 405.07812Q1149.0938 404.60938 1149.5156 404.375Q1149.9531 404.14062 1150.5625 404.14062Q1151.3594 404.14062 1151.9688 404.54688Q1152.5781 404.95312 1152.875 405.70312Q1153.1875 406.45312 1153.1875 407.34375Q1153.1875 408.29688 1152.8438 409.0625Q1152.5156 409.82812 1151.8594 410.23438Q1151.2031 410.64062 1150.4844 410.64062Q1149.9531 410.64062 1149.5312 410.42188Q1149.1094 410.1875 1148.8438 409.85938L1148.8438 412.89062L1147.7969 412.89062ZM1148.75 407.42188Q1148.75 408.625 1149.2344 409.20312Q1149.7188 409.76562 1150.4062 409.76562Q1151.1094 409.76562 1151.6094 409.17188Q1152.1094 408.57812 1152.1094 407.32812Q1152.1094 406.14062 1151.625 405.5625Q1151.1406 404.96875 1150.4531 404.96875Q1149.7812 404.96875 1149.2656 405.59375Q1148.75 406.21875 1148.75 407.42188ZM1158.8594 409.73438Q1158.2656 410.23438 1157.7188 410.4375Q1157.1875 410.64062 1156.5625 410.64062Q1155.5312 410.64062 1154.9844 410.14062Q1154.4375 409.64062 1154.4375 408.85938Q1154.4375 408.40625 1154.6406 408.03125Q1154.8438 407.64062 1155.1875 407.42188Q1155.5312 407.1875 1155.9531 407.07812Q1156.25 406.98438 1156.8906 406.90625Q1158.1562 406.76562 1158.7656 406.54688Q1158.7656 406.32812 1158.7656 406.28125Q1158.7656 405.625 1158.4688 405.35938Q1158.0625 405.01562 1157.2656 405.01562Q1156.5312 405.01562 1156.1719 405.28125Q1155.8125 405.53125 1155.6406 406.1875L1154.6094 406.04688Q1154.75 405.39062 1155.0781 404.98438Q1155.4062 404.57812 1156.0156 404.35938Q1156.625 404.14062 1157.4219 404.14062Q1158.2188 404.14062 1158.7188 404.32812Q1159.2188 404.51562 1159.4531 404.79688Q1159.6875 405.07812 1159.7812 405.51562Q1159.8281 405.78125 1159.8281 406.48438L1159.8281 407.89062Q1159.8281 409.35938 1159.8906 409.75Q1159.9688 410.14062 1160.1719 410.5L1159.0625 410.5Q1158.9062 410.17188 1158.8594 409.73438ZM1158.7656 407.375Q1158.1875 407.60938 1157.0469 407.78125Q1156.3906 407.875 1156.125 408.0Q1155.8594 408.10938 1155.7031 408.32812Q1155.5625 408.54688 1155.5625 408.82812Q1155.5625 409.25 1155.875 409.53125Q1156.2031 409.8125 1156.8125 409.8125Q1157.4219 409.8125 1157.8906 409.54688Q1158.375 409.28125 1158.5938 408.8125Q1158.7656 408.45312 1158.7656 407.76562L1158.7656 407.375ZM1158.0156 401.92188L1158.7344 401.92188Q1158.6406 402.65625 1158.1875 403.04688Q1157.75 403.4375 1157.0 403.4375Q1156.25 403.4375 1155.7969 403.04688Q1155.3594 402.65625 1155.2656 401.92188L1155.9844 401.92188Q1156.0781 402.3125 1156.3125 402.51562Q1156.5625 402.71875 1156.9688 402.71875Q1157.4375 402.71875 1157.6875 402.53125Q1157.9375 402.32812 1158.0156 401.92188ZM1161.7812 410.5L1161.7812 404.28125L1162.7344 404.28125L1162.7344 405.21875Q1163.0938 404.5625 1163.3906 404.35938Q1163.7031 404.14062 1164.0781 404.14062Q1164.6094 404.14062 1165.1562 404.46875L1164.7969 405.45312Q1164.4062 405.21875 1164.0312 405.21875Q1163.6719 405.21875 1163.3906 405.4375Q1163.125 405.64062 1163.0156 406.01562Q1162.8281 406.57812 1162.8281 407.23438L1162.8281 410.5L1161.7812 410.5ZM1169.8594 409.73438Q1169.2656 410.23438 1168.7188 410.4375Q1168.1875 410.64062 1167.5625 410.64062Q1166.5312 410.64062 1165.9844 410.14062Q1165.4375 409.64062 1165.4375 408.85938Q1165.4375 408.40625 1165.6406 408.03125Q1165.8438 407.64062 1166.1875 407.42188Q1166.5312 407.1875 1166.9531 407.07812Q1167.25 406.98438 1167.8906 406.90625Q1169.1562 406.76562 1169.7656 406.54688Q1169.7656 406.32812 1169.7656 406.28125Q1169.7656 405.625 1169.4688 405.35938Q1169.0625 405.01562 1168.2656 405.01562Q1167.5312 405.01562 1167.1719 405.28125Q1166.8125 405.53125 1166.6406 406.1875L1165.6094 406.04688Q1165.75 405.39062 1166.0781 404.98438Q1166.4062 404.57812 1167.0156 404.35938Q1167.625 404.14062 1168.4219 404.14062Q1169.2188 404.14062 1169.7188 404.32812Q1170.2188 404.51562 1170.4531 404.79688Q1170.6875 405.07812 1170.7812 405.51562Q1170.8281 405.78125 1170.8281 406.48438L1170.8281 407.89062Q1170.8281 409.35938 1170.8906 409.75Q1170.9688 410.14062 1171.1719 410.5L1170.0625 410.5Q1169.9062 410.17188 1169.8594 409.73438ZM1169.7656 407.375Q1169.1875 407.60938 1168.0469 407.78125Q1167.3906 407.875 1167.125 408.0Q1166.8594 408.10938 1166.7031 408.32812Q1166.5625 408.54688 1166.5625 408.82812Q1166.5625 409.25 1166.875 409.53125Q1167.2031 409.8125 1167.8125 409.8125Q1168.4219 409.8125 1168.8906 409.54688Q1169.375 409.28125 1169.5938 408.8125Q1169.7656 408.45312 1169.7656 407.76562L1169.7656 407.375ZM1175.0938 409.5625L1175.25 410.48438Q1174.7969 410.57812 1174.4531 410.57812Q1173.875 410.57812 1173.5625 410.40625Q1173.25 410.21875 1173.1094 409.92188Q1172.9844 409.625 1172.9844 408.67188L1172.9844 405.09375L1172.2188 405.09375L1172.2188 404.28125L1172.9844 404.28125L1172.9844 402.73438L1174.0312 402.10938L1174.0312 404.28125L1175.0938 404.28125L1175.0938 405.09375L1174.0312 405.09375L1174.0312 408.73438Q1174.0312 409.1875 1174.0781 409.3125Q1174.1406 409.4375 1174.2656 409.51562Q1174.3906 409.59375 1174.625 409.59375Q1174.8125 409.59375 1175.0938 409.5625ZM1182.8281 410.5L1182.8281 409.71875Q1182.2344 410.64062 1181.0938 410.64062Q1180.3438 410.64062 1179.7188 410.23438Q1179.0938 409.8125 1178.75 409.07812Q1178.4062 408.34375 1178.4062 407.39062Q1178.4062 406.46875 1178.7188 405.70312Q1179.0312 404.9375 1179.6562 404.54688Q1180.2812 404.14062 1181.0469 404.14062Q1181.6094 404.14062 1182.0469 404.375Q1182.4844 404.60938 1182.7656 404.98438L1182.7656 401.90625L1183.8125 401.90625L1183.8125 410.5L1182.8281 410.5ZM1179.5 407.39062Q1179.5 408.59375 1180.0 409.1875Q1180.5 409.76562 1181.1875 409.76562Q1181.875 409.76562 1182.3594 409.20312Q1182.8438 408.64062 1182.8438 407.48438Q1182.8438 406.20312 1182.3438 405.60938Q1181.8594 405.01562 1181.1406 405.01562Q1180.4375 405.01562 1179.9688 405.59375Q1179.5 406.15625 1179.5 407.39062ZM1190.0469 408.5L1191.1406 408.625Q1190.8906 409.57812 1190.1875 410.10938Q1189.4844 410.64062 1188.4062 410.64062Q1187.0469 410.64062 1186.2344 409.79688Q1185.4375 408.95312 1185.4375 407.4375Q1185.4375 405.875 1186.25 405.01562Q1187.0625 404.14062 1188.3438 404.14062Q1189.5938 404.14062 1190.375 404.98438Q1191.1719 405.82812 1191.1719 407.375Q1191.1719 407.46875 1191.1719 407.65625L1186.5312 407.65625Q1186.5938 408.6875 1187.1094 409.23438Q1187.625 409.76562 1188.4062 409.76562Q1188.9844 409.76562 1189.3906 409.46875Q1189.8125 409.15625 1190.0469 408.5ZM1186.5938 406.79688L1190.0625 406.79688Q1190.0 406.0 1189.6719 405.60938Q1189.1562 405.0 1188.3594 405.0Q1187.625 405.0 1187.125 405.48438Q1186.6406 405.96875 1186.5938 406.79688ZM1195.7812 410.5L1195.7812 404.28125L1196.7344 404.28125L1196.7344 405.21875Q1197.0938 404.5625 1197.3906 404.35938Q1197.7031 404.14062 1198.0781 404.14062Q1198.6094 404.14062 1199.1562 404.46875L1198.7969 405.45312Q1198.4062 405.21875 1198.0312 405.21875Q1197.6719 405.21875 1197.3906 405.4375Q1197.125 405.64062 1197.0156 406.01562Q1196.8281 406.57812 1196.8281 407.23438L1196.8281 410.5L1195.7812 410.5ZM1203.8594 409.73438Q1203.2656 410.23438 1202.7188 410.4375Q1202.1875 410.64062 1201.5625 410.64062Q1200.5312 410.64062 1199.9844 410.14062Q1199.4375 409.64062 1199.4375 408.85938Q1199.4375 408.40625 1199.6406 408.03125Q1199.8438 407.64062 1200.1875 407.42188Q1200.5312 407.1875 1200.9531 407.07812Q1201.25 406.98438 1201.8906 406.90625Q1203.1562 406.76562 1203.7656 406.54688Q1203.7656 406.32812 1203.7656 406.28125Q1203.7656 405.625 1203.4688 405.35938Q1203.0625 405.01562 1202.2656 405.01562Q1201.5312 405.01562 1201.1719 405.28125Q1200.8125 405.53125 1200.6406 406.1875L1199.6094 406.04688Q1199.75 405.39062 1200.0781 404.98438Q1200.4062 404.57812 1201.0156 404.35938Q1201.625 404.14062 1202.4219 404.14062Q1203.2188 404.14062 1203.7188 404.32812Q1204.2188 404.51562 1204.4531 404.79688Q1204.6875 405.07812 1204.7812 405.51562Q1204.8281 405.78125 1204.8281 406.48438L1204.8281 407.89062Q1204.8281 409.35938 1204.8906 409.75Q1204.9688 410.14062 1205.1719 410.5L1204.0625 410.5Q1203.9062 410.17188 1203.8594 409.73438ZM1203.7656 407.375Q1203.1875 407.60938 1202.0469 407.78125Q1201.3906 407.875 1201.125 408.0Q1200.8594 408.10938 1200.7031 408.32812Q1200.5625 408.54688 1200.5625 408.82812Q1200.5625 409.25 1200.875 409.53125Q1201.2031 409.8125 1201.8125 409.8125Q1202.4219 409.8125 1202.8906 409.54688Q1203.375 409.28125 1203.5938 408.8125Q1203.7656 408.45312 1203.7656 407.76562L1203.7656 407.375ZM1206.375 408.64062L1207.4062 408.48438Q1207.5 409.10938 1207.8906 409.4375Q1208.2969 409.76562 1209.0312 409.76562Q1209.75 409.76562 1210.0938 409.48438Q1210.4531 409.1875 1210.4531 408.78125Q1210.4531 408.42188 1210.1406 408.21875Q1209.9219 408.07812 1209.0625 407.85938Q1207.9062 407.5625 1207.4531 407.35938Q1207.0156 407.14062 1206.7812 406.76562Q1206.5469 406.39062 1206.5469 405.92188Q1206.5469 405.51562 1206.7344 405.15625Q1206.9219 404.79688 1207.25 404.5625Q1207.5 404.39062 1207.9219 404.26562Q1208.3438 404.14062 1208.8438 404.14062Q1209.5625 404.14062 1210.1094 404.35938Q1210.6719 404.5625 1210.9375 404.92188Q1211.2031 405.28125 1211.2969 405.875L1210.2656 406.01562Q1210.2031 405.54688 1209.8594 405.28125Q1209.5312 405.0 1208.9062 405.0Q1208.1875 405.0 1207.875 405.25Q1207.5625 405.48438 1207.5625 405.8125Q1207.5625 406.01562 1207.6875 406.17188Q1207.8281 406.34375 1208.0938 406.45312Q1208.25 406.51562 1209.0312 406.71875Q1210.1562 407.03125 1210.5938 407.21875Q1211.0312 407.40625 1211.2812 407.76562Q1211.5312 408.125 1211.5312 408.67188Q1211.5312 409.20312 1211.2188 409.67188Q1210.9219 410.125 1210.3438 410.39062Q1209.7656 410.64062 1209.0312 410.64062Q1207.8125 410.64062 1207.1719 410.14062Q1206.5469 409.625 1206.375 408.64062ZM1216.8594 409.73438Q1216.2656 410.23438 1215.7188 410.4375Q1215.1875 410.64062 1214.5625 410.64062Q1213.5312 410.64062 1212.9844 410.14062Q1212.4375 409.64062 1212.4375 408.85938Q1212.4375 408.40625 1212.6406 408.03125Q1212.8438 407.64062 1213.1875 407.42188Q1213.5312 407.1875 1213.9531 407.07812Q1214.25 406.98438 1214.8906 406.90625Q1216.1562 406.76562 1216.7656 406.54688Q1216.7656 406.32812 1216.7656 406.28125Q1216.7656 405.625 1216.4688 405.35938Q1216.0625 405.01562 1215.2656 405.01562Q1214.5312 405.01562 1214.1719 405.28125Q1213.8125 405.53125 1213.6406 406.1875L1212.6094 406.04688Q1212.75 405.39062 1213.0781 404.98438Q1213.4062 404.57812 1214.0156 404.35938Q1214.625 404.14062 1215.4219 404.14062Q1216.2188 404.14062 1216.7188 404.32812Q1217.2188 404.51562 1217.4531 404.79688Q1217.6875 405.07812 1217.7812 405.51562Q1217.8281 405.78125 1217.8281 406.48438L1217.8281 407.89062Q1217.8281 409.35938 1217.8906 409.75Q1217.9688 410.14062 1218.1719 410.5L1217.0625 410.5Q1216.9062 410.17188 1216.8594 409.73438ZM1216.7656 407.375Q1216.1875 407.60938 1215.0469 407.78125Q1214.3906 407.875 1214.125 408.0Q1213.8594 408.10938 1213.7031 408.32812Q1213.5625 408.54688 1213.5625 408.82812Q1213.5625 409.25 1213.875 409.53125Q1214.2031 409.8125 1214.8125 409.8125Q1215.4219 409.8125 1215.8906 409.54688Q1216.375 409.28125 1216.5938 408.8125Q1216.7656 408.45312 1216.7656 407.76562L1216.7656 407.375ZM1216.0156 401.92188L1216.7344 401.92188Q1216.6406 402.65625 1216.1875 403.04688Q1215.75 403.4375 1215.0 403.4375Q1214.25 403.4375 1213.7969 403.04688Q1213.3594 402.65625 1213.2656 401.92188L1213.9844 401.92188Q1214.0781 402.3125 1214.3125 402.51562Q1214.5625 402.71875 1214.9688 402.71875Q1215.4375 402.71875 1215.6875 402.53125Q1215.9375 402.32812 1216.0156 401.92188ZM1220.4844 413.03125L1219.7344 413.03125Q1221.4844 410.21875 1221.4844 407.39062Q1221.4844 406.29688 1221.2344 405.20312Q1221.0312 404.32812 1220.6719 403.51562Q1220.4375 403.0 1219.7344 401.76562L1220.4844 401.76562Q1221.5781 403.23438 1222.1094 404.71875Q1222.5625 406.0 1222.5625 407.39062Q1222.5625 408.96875 1221.9531 410.45312Q1221.3438 411.92188 1220.4844 413.03125Z" fill-rule="nonzero"/><path fill="#9e9e9e" d="M1188.5 425.25L1189.6094 425.15625Q1189.7344 425.96875 1190.1719 426.375Q1190.625 426.78125 1191.2656 426.78125Q1192.0156 426.78125 1192.5469 426.20312Q1193.0781 425.625 1193.0781 424.6875Q1193.0781 423.78125 1192.5625 423.26562Q1192.0625 422.73438 1191.2344 422.73438Q1190.7344 422.73438 1190.3125 422.96875Q1189.9062 423.20312 1189.6719 423.5625L1188.6875 423.4375L1189.5156 419.03125L1193.7969 419.03125L1193.7969 420.03125L1190.3594 420.03125L1189.9062 422.34375Q1190.6719 421.79688 1191.5156 421.79688Q1192.6406 421.79688 1193.4062 422.57812Q1194.1875 423.35938 1194.1875 424.59375Q1194.1875 425.75 1193.5156 426.60938Q1192.6875 427.64062 1191.2656 427.64062Q1190.0938 427.64062 1189.3438 426.98438Q1188.6094 426.32812 1188.5 425.25ZM1195.5 423.26562Q1195.5 421.73438 1195.8125 420.8125Q1196.125 419.875 1196.7344 419.375Q1197.3594 418.875 1198.2969 418.875Q1198.9844 418.875 1199.5 419.15625Q1200.0312 419.4375 1200.375 419.96875Q1200.7188 420.48438 1200.9062 421.23438Q1201.0938 421.98438 1201.0938 423.26562Q1201.0938 424.78125 1200.7812 425.70312Q1200.4844 426.625 1199.8594 427.14062Q1199.25 427.64062 1198.2969 427.64062Q1197.0625 427.64062 1196.3438 426.75Q1195.5 425.6875 1195.5 423.26562ZM1196.5781 423.26562Q1196.5781 425.375 1197.0781 426.07812Q1197.5781 426.78125 1198.2969 426.78125Q1199.0312 426.78125 1199.5156 426.07812Q1200.0156 425.375 1200.0156 423.26562Q1200.0156 421.14062 1199.5156 420.45312Q1199.0312 419.75 1198.2812 419.75Q1197.5625 419.75 1197.125 420.35938Q1196.5781 421.14062 1196.5781 423.26562ZM1203.0938 427.5L1203.0938 426.29688L1204.2969 426.29688L1204.2969 427.5L1203.0938 427.5ZM1205.5 423.26562Q1205.5 421.73438 1205.8125 420.8125Q1206.125 419.875 1206.7344 419.375Q1207.3594 418.875 1208.2969 418.875Q1208.9844 418.875 1209.5 419.15625Q1210.0312 419.4375 1210.375 419.96875Q1210.7188 420.48438 1210.9062 421.23438Q1211.0938 421.98438 1211.0938 423.26562Q1211.0938 424.78125 1210.7812 425.70312Q1210.4844 426.625 1209.8594 427.14062Q1209.25 427.64062 1208.2969 427.64062Q1207.0625 427.64062 1206.3438 426.75Q1205.5 425.6875 1205.5 423.26562ZM1206.5781 423.26562Q1206.5781 425.375 1207.0781 426.07812Q1207.5781 426.78125 1208.2969 426.78125Q1209.0312 426.78125 1209.5156 426.07812Q1210.0156 425.375 1210.0156 423.26562Q1210.0156 421.14062 1209.5156 420.45312Q1209.0312 419.75 1208.2812 419.75Q1207.5625 419.75 1207.125 420.35938Q1206.5781 421.14062 1206.5781 423.26562ZM1212.7031 420.96875Q1212.7031 420.04688 1213.1562 419.40625Q1213.625 418.76562 1214.5 418.76562Q1215.3125 418.76562 1215.8438 419.34375Q1216.375 419.92188 1216.375 421.03125Q1216.375 422.125 1215.8281 422.71875Q1215.2969 423.29688 1214.5156 423.29688Q1213.7344 423.29688 1213.2188 422.71875Q1212.7031 422.14062 1212.7031 420.96875ZM1214.5312 419.48438Q1214.1406 419.48438 1213.875 419.82812Q1213.625 420.17188 1213.625 421.07812Q1213.625 421.90625 1213.875 422.25Q1214.1406 422.57812 1214.5312 422.57812Q1214.9375 422.57812 1215.1875 422.23438Q1215.4531 421.89062 1215.4531 421.0Q1215.4531 420.15625 1215.1875 419.82812Q1214.9219 419.48438 1214.5312 419.48438ZM1214.5312 427.8125L1219.2344 418.76562L1220.0938 418.76562L1215.4062 427.8125L1214.5312 427.8125ZM1218.25 425.48438Q1218.25 424.5625 1218.7031 423.92188Q1219.1719 423.28125 1220.0625 423.28125Q1220.875 423.28125 1221.4062 423.85938Q1221.9375 424.42188 1221.9375 425.54688Q1221.9375 426.64062 1221.3906 427.23438Q1220.8594 427.8125 1220.0625 427.8125Q1219.2969 427.8125 1218.7656 427.23438Q1218.25 426.65625 1218.25 425.48438ZM1220.0938 424.0Q1219.6875 424.0 1219.4219 424.34375Q1219.1719 424.6875 1219.1719 425.59375Q1219.1719 426.40625 1219.4375 426.75Q1219.7031 427.09375 1220.0938 427.09375Q1220.4844 427.09375 1220.75 426.75Q1221.0156 426.40625 1221.0156 425.5Q1221.0156 424.67188 1220.75 424.34375Q1220.4844 424.0 1220.0938 424.0Z" fill-rule="nonzero"/><path stroke="#757575" stroke-width="1.0" stroke-linecap="butt" d="M1223.0 415.0L963.0 415.0L940.7 415.0" fill-rule="nonzero"/><path fill="#9e9e9e" d="M942.7 415.0C942.7 413.89542 941.80457 413.0 940.7 413.0C939.59546 413.0 938.7 413.89542 938.7 415.0C938.7 416.10458 939.59546 417.0 940.7 417.0C941.80457 417.0 942.7 416.10458 942.7 415.0" fill-rule="nonzero"/><path fill="#757575" d="M50.765625 52.984375L52.65625 53.453125Q52.0625 55.796875 50.515625 57.03125Q48.96875 58.25 46.71875 58.25Q44.40625 58.25 42.953125 57.3125Q41.515625 56.359375 40.75 54.578125Q40.0 52.78125 40.0 50.734375Q40.0 48.5 40.84375 46.84375Q41.703125 45.171875 43.28125 44.3125Q44.859375 43.4375 46.75 43.4375Q48.90625 43.4375 50.359375 44.53125Q51.828125 45.625 52.40625 47.609375L50.546875 48.046875Q50.046875 46.484375 49.09375 45.78125Q48.15625 45.0625 46.71875 45.0625Q45.0625 45.0625 43.953125 45.859375Q42.84375 46.640625 42.390625 47.984375Q41.953125 49.3125 41.953125 50.71875Q41.953125 52.546875 42.484375 53.921875Q43.015625 55.28125 44.140625 55.953125Q45.265625 56.625 46.5625 56.625Q48.15625 56.625 49.265625 55.703125Q50.375 54.78125 50.765625 52.984375ZM61.421875 54.65625L63.234375 54.890625Q62.8125 56.46875 61.640625 57.359375Q60.484375 58.234375 58.671875 58.234375Q56.40625 58.234375 55.0625 56.84375Q53.734375 55.4375 53.734375 52.90625Q53.734375 50.28125 55.078125 48.84375Q56.421875 47.390625 58.578125 47.390625Q60.65625 47.390625 61.96875 48.8125Q63.296875 50.21875 63.296875 52.796875Q63.296875 52.953125 63.28125 53.265625L55.546875 53.265625Q55.640625 54.96875 56.515625 55.875Q57.390625 56.78125 58.6875 56.78125Q59.65625 56.78125 60.328125 56.28125Q61.015625 55.765625 61.421875 54.65625ZM55.640625 51.8125L61.4375 51.8125Q61.328125 50.515625 60.78125 49.859375Q59.9375 48.84375 58.59375 48.84375Q57.390625 48.84375 56.5625 49.65625Q55.734375 50.453125 55.640625 51.8125ZM78.09375 56.71875Q77.109375 57.546875 76.203125 57.890625Q75.296875 58.234375 74.265625 58.234375Q72.5625 58.234375 71.640625 57.40625Q70.71875 56.5625 70.71875 55.265625Q70.71875 54.5 71.0625 53.875Q71.421875 53.25 71.984375 52.875Q72.546875 52.484375 73.25 52.28125Q73.765625 52.15625 74.8125 52.015625Q76.9375 51.765625 77.9375 51.421875Q77.953125 51.0625 77.953125 50.953125Q77.953125 49.890625 77.453125 49.4375Q76.78125 48.84375 75.453125 48.84375Q74.203125 48.84375 73.609375 49.28125Q73.03125 49.71875 72.75 50.828125L71.03125 50.59375Q71.265625 49.484375 71.796875 48.8125Q72.328125 48.125 73.34375 47.765625Q74.359375 47.390625 75.703125 47.390625Q77.03125 47.390625 77.859375 47.703125Q78.6875 48.015625 79.078125 48.5Q79.46875 48.96875 79.625 49.6875Q79.71875 50.140625 79.71875 51.3125L79.71875 53.65625Q79.71875 56.109375 79.828125 56.765625Q79.9375 57.40625 80.28125 58.0L78.4375 58.0Q78.171875 57.453125 78.09375 56.71875ZM77.9375 52.796875Q76.984375 53.1875 75.0625 53.453125Q73.984375 53.609375 73.53125 53.8125Q73.09375 54.0 72.84375 54.375Q72.59375 54.75 72.59375 55.21875Q72.59375 55.921875 73.125 56.390625Q73.65625 56.859375 74.6875 56.859375Q75.703125 56.859375 76.484375 56.421875Q77.28125 55.96875 77.65625 55.203125Q77.9375 54.59375 77.9375 53.4375L77.9375 52.796875ZM86.15625 56.421875L86.40625 57.984375Q85.671875 58.140625 85.078125 58.140625Q84.125 58.140625 83.59375 57.84375Q83.078125 57.53125 82.859375 57.046875Q82.640625 56.546875 82.640625 54.96875L82.640625 49.0L81.359375 49.0L81.359375 47.625L82.640625 47.625L82.640625 45.0625L84.390625 44.0L84.390625 47.625L86.15625 47.625L86.15625 49.0L84.390625 49.0L84.390625 55.0625Q84.390625 55.8125 84.484375 56.03125Q84.578125 56.234375 84.78125 56.375Q85.0 56.5 85.390625 56.5Q85.671875 56.5 86.15625 56.421875ZM83.6875 60.984375L83.6875 59.1875L85.5 59.1875L85.5 60.984375Q85.5 61.65625 85.140625 62.25Q84.78125 62.859375 84.015625 63.203125L83.59375 62.515625Q84.515625 62.109375 84.578125 60.984375L83.6875 60.984375ZM88.328125 45.703125L88.328125 43.6875L90.09375 43.6875L90.09375 45.703125L88.328125 45.703125ZM88.328125 58.0L88.328125 47.625L90.09375 47.625L90.09375 58.0L88.328125 58.0ZM98.3125 61.96875L98.3125 47.625L99.921875 47.625L99.921875 48.96875Q100.484375 48.1875 101.1875 47.796875Q101.90625 47.390625 102.921875 47.390625Q104.25 47.390625 105.265625 48.078125Q106.28125 48.765625 106.796875 50.015625Q107.328125 51.25 107.328125 52.734375Q107.328125 54.328125 106.75 55.609375Q106.1875 56.875 105.09375 57.5625Q104.0 58.234375 102.796875 58.234375Q101.921875 58.234375 101.21875 57.859375Q100.53125 57.484375 100.078125 56.921875L100.078125 61.96875L98.3125 61.96875ZM99.90625 52.875Q99.90625 54.875 100.71875 55.828125Q101.53125 56.78125 102.6875 56.78125Q103.859375 56.78125 104.6875 55.796875Q105.53125 54.8125 105.53125 52.71875Q105.53125 50.75 104.703125 49.765625Q103.890625 48.765625 102.765625 48.765625Q101.640625 48.765625 100.765625 49.828125Q99.90625 50.875 99.90625 52.875ZM109.296875 58.0L109.296875 47.625L110.875 47.625L110.875 49.203125Q111.484375 48.09375 112.0 47.75Q112.515625 47.390625 113.125 47.390625Q114.015625 47.390625 114.9375 47.953125L114.328125 49.59375Q113.6875 49.203125 113.046875 49.203125Q112.46875 49.203125 112.0 49.5625Q111.546875 49.90625 111.34375 50.515625Q111.0625 51.453125 111.0625 52.5625L111.0625 58.0L109.296875 58.0ZM123.421875 54.65625L125.234375 54.890625Q124.8125 56.46875 123.640625 57.359375Q122.484375 58.234375 120.671875 58.234375Q118.40625 58.234375 117.0625 56.84375Q115.734375 55.4375 115.734375 52.90625Q115.734375 50.28125 117.078125 48.84375Q118.421875 47.390625 120.578125 47.390625Q122.65625 47.390625 123.96875 48.8125Q125.296875 50.21875 125.296875 52.796875Q125.296875 52.953125 125.28125 53.265625L117.546875 53.265625Q117.640625 54.96875 118.515625 55.875Q119.390625 56.78125 120.6875 56.78125Q121.65625 56.78125 122.328125 56.28125Q123.015625 55.765625 123.421875 54.65625ZM117.640625 51.8125L123.4375 51.8125Q123.328125 50.515625 122.78125 49.859375Q121.9375 48.84375 120.59375 48.84375Q119.390625 48.84375 118.5625 49.65625Q117.734375 50.453125 117.640625 51.8125ZM127.734375 58.0L127.734375 49.0L126.1875 49.0L126.1875 47.625L127.734375 47.625L127.734375 46.53125Q127.734375 45.484375 127.921875 44.96875Q128.17188 44.28125 128.8125 43.859375Q129.45312 43.4375 130.60938 43.4375Q131.35938 43.4375 132.25 43.609375L131.98438 45.140625Q131.4375 45.046875 130.95312 45.046875Q130.15625 45.046875 129.8125 45.390625Q129.48438 45.734375 129.48438 46.671875L129.48438 47.625L131.51562 47.625L131.51562 49.0L129.48438 49.0L129.48438 58.0L127.734375 58.0ZM140.42188 54.65625L142.23438 54.890625Q141.8125 56.46875 140.64062 57.359375Q139.48438 58.234375 137.67188 58.234375Q135.40625 58.234375 134.0625 56.84375Q132.73438 55.4375 132.73438 52.90625Q132.73438 50.28125 134.07812 48.84375Q135.42188 47.390625 137.57812 47.390625Q139.65625 47.390625 140.96875 48.8125Q142.29688 50.21875 142.29688 52.796875Q142.29688 52.953125 142.28125 53.265625L134.54688 53.265625Q134.64062 54.96875 135.51562 55.875Q136.39062 56.78125 137.6875 56.78125Q138.65625 56.78125 139.32812 56.28125Q140.01562 55.765625 140.42188 54.65625ZM134.64062 51.8125L140.4375 51.8125Q140.32812 50.515625 139.78125 49.859375Q138.9375 48.84375 137.59375 48.84375Q136.39062 48.84375 135.5625 49.65625Q134.73438 50.453125 134.64062 51.8125ZM144.29688 58.0L144.29688 47.625L145.875 47.625L145.875 49.203125Q146.48438 48.09375 147.0 47.75Q147.51562 47.390625 148.125 47.390625Q149.01562 47.390625 149.9375 47.953125L149.32812 49.59375Q148.6875 49.203125 148.04688 49.203125Q147.46875 49.203125 147.0 49.5625Q146.54688 49.90625 146.34375 50.515625Q146.0625 51.453125 146.0625 52.5625L146.0625 58.0L144.29688 58.0ZM158.09375 56.71875Q157.10938 57.546875 156.20312 57.890625Q155.29688 58.234375 154.26562 58.234375Q152.5625 58.234375 151.64062 57.40625Q150.71875 56.5625 150.71875 55.265625Q150.71875 54.5 151.0625 53.875Q151.42188 53.25 151.98438 52.875Q152.54688 52.484375 153.25 52.28125Q153.76562 52.15625 154.8125 52.015625Q156.9375 51.765625 157.9375 51.421875Q157.95312 51.0625 157.95312 50.953125Q157.95312 49.890625 157.45312 49.4375Q156.78125 48.84375 155.45312 48.84375Q154.20312 48.84375 153.60938 49.28125Q153.03125 49.71875 152.75 50.828125L151.03125 50.59375Q151.26562 49.484375 151.79688 48.8125Q152.32812 48.125 153.34375 47.765625Q154.35938 47.390625 155.70312 47.390625Q157.03125 47.390625 157.85938 47.703125Q158.6875 48.015625 159.07812 48.5Q159.46875 48.96875 159.625 49.6875Q159.71875 50.140625 159.71875 51.3125L159.71875 53.65625Q159.71875 56.109375 159.82812 56.765625Q159.9375 57.40625 160.28125 58.0L158.4375 58.0Q158.17188 57.453125 158.09375 56.71875ZM157.9375 52.796875Q156.98438 53.1875 155.0625 53.453125Q153.98438 53.609375 153.53125 53.8125Q153.09375 54.0 152.84375 54.375Q152.59375 54.75 152.59375 55.21875Q152.59375 55.921875 153.125 56.390625Q153.65625 56.859375 154.6875 56.859375Q155.70312 56.859375 156.48438 56.421875Q157.28125 55.96875 157.65625 55.203125Q157.9375 54.59375 157.9375 53.4375L157.9375 52.796875ZM165.60938 54.46875Q165.59375 54.125 165.59375 53.953125Q165.59375 52.90625 165.89062 52.15625Q166.10938 51.59375 166.59375 51.015625Q166.9375 50.59375 167.84375 49.796875Q168.76562 48.984375 169.03125 48.515625Q169.3125 48.03125 169.3125 47.46875Q169.3125 46.4375 168.5 45.671875Q167.70312 44.890625 166.54688 44.890625Q165.42188 44.890625 164.67188 45.59375Q163.92188 46.296875 163.6875 47.78125L161.875 47.5625Q162.125 45.5625 163.32812 44.5Q164.53125 43.4375 166.51562 43.4375Q168.625 43.4375 169.875 44.578125Q171.125 45.71875 171.125 47.34375Q171.125 48.28125 170.67188 49.078125Q170.23438 49.859375 168.95312 51.0Q168.09375 51.765625 167.82812 52.125Q167.57812 52.484375 167.4375 52.953125Q167.3125 53.421875 167.29688 54.46875L165.60938 54.46875ZM165.5 58.0L165.5 56.0L167.5 56.0L167.5 58.0L165.5 58.0ZM182.67188 62.203125Q181.21875 60.375 180.21875 57.921875Q179.21875 55.453125 179.21875 52.8125Q179.21875 50.484375 179.96875 48.359375Q180.84375 45.890625 182.67188 43.4375L183.9375 43.4375Q182.75 45.46875 182.375 46.34375Q181.78125 47.6875 181.4375 49.15625Q181.01562 50.984375 181.01562 52.828125Q181.01562 57.515625 183.9375 62.203125L182.67188 62.203125ZM186.3125 61.96875L186.3125 47.625L187.92188 47.625L187.92188 48.96875Q188.48438 48.1875 189.1875 47.796875Q189.90625 47.390625 190.92188 47.390625Q192.25 47.390625 193.26562 48.078125Q194.28125 48.765625 194.79688 50.015625Q195.32812 51.25 195.32812 52.734375Q195.32812 54.328125 194.75 55.609375Q194.1875 56.875 193.09375 57.5625Q192.0 58.234375 190.79688 58.234375Q189.92188 58.234375 189.21875 57.859375Q188.53125 57.484375 188.07812 56.921875L188.07812 61.96875L186.3125 61.96875ZM187.90625 52.875Q187.90625 54.875 188.71875 55.828125Q189.53125 56.78125 190.6875 56.78125Q191.85938 56.78125 192.6875 55.796875Q193.53125 54.8125 193.53125 52.71875Q193.53125 50.75 192.70312 49.765625Q191.89062 48.765625 190.76562 48.765625Q189.64062 48.765625 188.76562 49.828125Q187.90625 50.875 187.90625 52.875ZM204.42188 54.65625L206.23438 54.890625Q205.8125 56.46875 204.64062 57.359375Q203.48438 58.234375 201.67188 58.234375Q199.40625 58.234375 198.0625 56.84375Q196.73438 55.4375 196.73438 52.90625Q196.73438 50.28125 198.07812 48.84375Q199.42188 47.390625 201.57812 47.390625Q203.65625 47.390625 204.96875 48.8125Q206.29688 50.21875 206.29688 52.796875Q206.29688 52.953125 206.28125 53.265625L198.54688 53.265625Q198.64062 54.96875 199.51562 55.875Q200.39062 56.78125 201.6875 56.78125Q202.65625 56.78125 203.32812 56.28125Q204.01562 55.765625 204.42188 54.65625ZM198.64062 51.8125L204.4375 51.8125Q204.32812 50.515625 203.78125 49.859375Q202.9375 48.84375 201.59375 48.84375Q200.39062 48.84375 199.5625 49.65625Q198.73438 50.453125 198.64062 51.8125ZM208.3125 58.0L208.3125 47.625L209.90625 47.625L209.90625 49.109375Q211.04688 47.390625 213.20312 47.390625Q214.14062 47.390625 214.92188 47.734375Q215.71875 48.0625 216.10938 48.609375Q216.5 49.15625 216.65625 49.90625Q216.75 50.40625 216.75 51.625L216.75 58.0L214.98438 58.0L214.98438 51.6875Q214.98438 50.609375 214.78125 50.078125Q214.57812 49.546875 214.04688 49.234375Q213.53125 48.921875 212.82812 48.921875Q211.70312 48.921875 210.89062 49.640625Q210.07812 50.34375 210.07812 52.328125L210.07812 58.0L208.3125 58.0ZM223.15625 56.421875L223.40625 57.984375Q222.67188 58.140625 222.07812 58.140625Q221.125 58.140625 220.59375 57.84375Q220.07812 57.53125 219.85938 57.046875Q219.64062 56.546875 219.64062 54.96875L219.64062 49.0L218.35938 49.0L218.35938 47.625L219.64062 47.625L219.64062 45.0625L221.39062 44.0L221.39062 47.625L223.15625 47.625L223.15625 49.0L221.39062 49.0L221.39062 55.0625Q221.39062 55.8125 221.48438 56.03125Q221.57812 56.234375 221.78125 56.375Q222.0 56.5 222.39062 56.5Q222.67188 56.5 223.15625 56.421875ZM225.29688 58.0L225.29688 47.625L226.875 47.625L226.875 49.203125Q227.48438 48.09375 228.0 47.75Q228.51562 47.390625 229.125 47.390625Q230.01562 47.390625 230.9375 47.953125L230.32812 49.59375Q229.6875 49.203125 229.04688 49.203125Q228.46875 49.203125 228.0 49.5625Q227.54688 49.90625 227.34375 50.515625Q227.0625 51.453125 227.0625 52.5625L227.0625 58.0L225.29688 58.0ZM239.10938 58.0L239.10938 56.46875Q237.90625 58.234375 235.82812 58.234375Q234.90625 58.234375 234.10938 57.890625Q233.3125 57.53125 232.92188 57.0Q232.54688 56.46875 232.39062 55.6875Q232.28125 55.171875 232.28125 54.046875L232.28125 47.625L234.03125 47.625L234.03125 53.375Q234.03125 54.75 234.14062 55.234375Q234.3125 55.921875 234.84375 56.328125Q235.39062 56.71875 236.17188 56.71875Q236.96875 56.71875 237.65625 56.3125Q238.35938 55.90625 238.64062 55.21875Q238.9375 54.515625 238.9375 53.1875L238.9375 47.625L240.6875 47.625L240.6875 58.0L239.10938 58.0ZM256.09375 54.203125L257.8125 54.421875Q257.53125 56.21875 256.35938 57.234375Q255.20312 58.234375 253.5 58.234375Q251.375 58.234375 250.07812 56.84375Q248.78125 55.453125 248.78125 52.859375Q248.78125 51.171875 249.32812 49.921875Q249.89062 48.65625 251.03125 48.03125Q252.17188 47.390625 253.51562 47.390625Q255.20312 47.390625 256.26562 48.25Q257.34375 49.109375 257.65625 50.671875L255.9375 50.9375Q255.70312 49.890625 255.07812 49.375Q254.45312 48.84375 253.57812 48.84375Q252.25 48.84375 251.42188 49.796875Q250.59375 50.75 250.59375 52.796875Q250.59375 54.890625 251.39062 55.84375Q252.1875 56.78125 253.48438 56.78125Q254.51562 56.78125 255.20312 56.15625Q255.90625 55.515625 256.09375 54.203125ZM266.42188 54.65625L268.23438 54.890625Q267.8125 56.46875 266.64062 57.359375Q265.48438 58.234375 263.67188 58.234375Q261.40625 58.234375 260.0625 56.84375Q258.73438 55.4375 258.73438 52.90625Q258.73438 50.28125 260.07812 48.84375Q261.42188 47.390625 263.57812 47.390625Q265.65625 47.390625 266.96875 48.8125Q268.29688 50.21875 268.29688 52.796875Q268.29688 52.953125 268.28125 53.265625L260.54688 53.265625Q260.64062 54.96875 261.51562 55.875Q262.39062 56.78125 263.6875 56.78125Q264.65625 56.78125 265.32812 56.28125Q266.01562 55.765625 266.42188 54.65625ZM260.64062 51.8125L266.4375 51.8125Q266.32812 50.515625 265.78125 49.859375Q264.9375 48.84375 263.59375 48.84375Q262.39062 48.84375 261.5625 49.65625Q260.73438 50.453125 260.64062 51.8125ZM270.32812 45.703125L270.32812 43.6875L272.09375 43.6875L272.09375 45.703125L270.32812 45.703125ZM270.32812 58.0L270.32812 47.625L272.09375 47.625L272.09375 58.0L270.32812 58.0ZM287.09375 54.203125L288.8125 54.421875Q288.53125 56.21875 287.35938 57.234375Q286.20312 58.234375 284.5 58.234375Q282.375 58.234375 281.07812 56.84375Q279.78125 55.453125 279.78125 52.859375Q279.78125 51.171875 280.32812 49.921875Q280.89062 48.65625 282.03125 48.03125Q283.17188 47.390625 284.51562 47.390625Q286.20312 47.390625 287.26562 48.25Q288.34375 49.109375 288.65625 50.671875L286.9375 50.9375Q286.70312 49.890625 286.07812 49.375Q285.45312 48.84375 284.57812 48.84375Q283.25 48.84375 282.42188 49.796875Q281.59375 50.75 281.59375 52.796875Q281.59375 54.890625 282.39062 55.84375Q283.1875 56.78125 284.48438 56.78125Q285.51562 56.78125 286.20312 56.15625Q286.90625 55.515625 287.09375 54.203125ZM297.09375 56.71875Q296.10938 57.546875 295.20312 57.890625Q294.29688 58.234375 293.26562 58.234375Q291.5625 58.234375 290.64062 57.40625Q289.71875 56.5625 289.71875 55.265625Q289.71875 54.5 290.0625 53.875Q290.42188 53.25 290.98438 52.875Q291.54688 52.484375 292.25 52.28125Q292.76562 52.15625 293.8125 52.015625Q295.9375 51.765625 296.9375 51.421875Q296.95312 51.0625 296.95312 50.953125Q296.95312 49.890625 296.45312 49.4375Q295.78125 48.84375 294.45312 48.84375Q293.20312 48.84375 292.60938 49.28125Q292.03125 49.71875 291.75 50.828125L290.03125 50.59375Q290.26562 49.484375 290.79688 48.8125Q291.32812 48.125 292.34375 47.765625Q293.35938 47.390625 294.70312 47.390625Q296.03125 47.390625 296.85938 47.703125Q297.6875 48.015625 298.07812 48.5Q298.46875 48.96875 298.625 49.6875Q298.71875 50.140625 298.71875 51.3125L298.71875 53.65625Q298.71875 56.109375 298.82812 56.765625Q298.9375 57.40625 299.28125 58.0L297.4375 58.0Q297.17188 57.453125 297.09375 56.71875ZM296.9375 52.796875Q295.98438 53.1875 294.0625 53.453125Q292.98438 53.609375 292.53125 53.8125Q292.09375 54.0 291.84375 54.375Q291.59375 54.75 291.59375 55.21875Q291.59375 55.921875 292.125 56.390625Q292.65625 56.859375 293.6875 56.859375Q294.70312 56.859375 295.48438 56.421875Q296.28125 55.96875 296.65625 55.203125Q296.9375 54.59375 296.9375 53.4375L296.9375 52.796875ZM301.29688 58.0L301.29688 47.625L302.875 47.625L302.875 49.203125Q303.48438 48.09375 304.0 47.75Q304.51562 47.390625 305.125 47.390625Q306.01562 47.390625 306.9375 47.953125L306.32812 49.59375Q305.6875 49.203125 305.04688 49.203125Q304.46875 49.203125 304.0 49.5625Q303.54688 49.90625 303.34375 50.515625Q303.0625 51.453125 303.0625 52.5625L303.0625 58.0L301.29688 58.0ZM315.42188 54.65625L317.23438 54.890625Q316.8125 56.46875 315.64062 57.359375Q314.48438 58.234375 312.67188 58.234375Q310.40625 58.234375 309.0625 56.84375Q307.73438 55.4375 307.73438 52.90625Q307.73438 50.28125 309.07812 48.84375Q310.42188 47.390625 312.57812 47.390625Q314.65625 47.390625 315.96875 48.8125Q317.29688 50.21875 317.29688 52.796875Q317.29688 52.953125 317.28125 53.265625L309.54688 53.265625Q309.64062 54.96875 310.51562 55.875Q311.39062 56.78125 312.6875 56.78125Q313.65625 56.78125 314.32812 56.28125Q315.01562 55.765625 315.42188 54.65625ZM309.64062 51.8125L315.4375 51.8125Q315.32812 50.515625 314.78125 49.859375Q313.9375 48.84375 312.59375 48.84375Q311.39062 48.84375 310.5625 49.65625Q309.73438 50.453125 309.64062 51.8125ZM325.3125 58.0L325.3125 47.625L326.90625 47.625L326.90625 49.109375Q328.04688 47.390625 330.20312 47.390625Q331.14062 47.390625 331.92188 47.734375Q332.71875 48.0625 333.10938 48.609375Q333.5 49.15625 333.65625 49.90625Q333.75 50.40625 333.75 51.625L333.75 58.0L331.98438 58.0L331.98438 51.6875Q331.98438 50.609375 331.78125 50.078125Q331.57812 49.546875 331.04688 49.234375Q330.53125 48.921875 329.82812 48.921875Q328.70312 48.921875 327.89062 49.640625Q327.07812 50.34375 327.07812 52.328125L327.07812 58.0L325.3125 58.0ZM343.10938 58.0L343.10938 56.46875Q341.90625 58.234375 339.82812 58.234375Q338.90625 58.234375 338.10938 57.890625Q337.3125 57.53125 336.92188 57.0Q336.54688 56.46875 336.39062 55.6875Q336.28125 55.171875 336.28125 54.046875L336.28125 47.625L338.03125 47.625L338.03125 53.375Q338.03125 54.75 338.14062 55.234375Q338.3125 55.921875 338.84375 56.328125Q339.39062 56.71875 340.17188 56.71875Q340.96875 56.71875 341.65625 56.3125Q342.35938 55.90625 342.64062 55.21875Q342.9375 54.515625 342.9375 53.1875L342.9375 47.625L344.6875 47.625L344.6875 58.0L343.10938 58.0ZM360.09375 56.71875Q359.10938 57.546875 358.20312 57.890625Q357.29688 58.234375 356.26562 58.234375Q354.5625 58.234375 353.64062 57.40625Q352.71875 56.5625 352.71875 55.265625Q352.71875 54.5 353.0625 53.875Q353.42188 53.25 353.98438 52.875Q354.54688 52.484375 355.25 52.28125Q355.76562 52.15625 356.8125 52.015625Q358.9375 51.765625 359.9375 51.421875Q359.95312 51.0625 359.95312 50.953125Q359.95312 49.890625 359.45312 49.4375Q358.78125 48.84375 357.45312 48.84375Q356.20312 48.84375 355.60938 49.28125Q355.03125 49.71875 354.75 50.828125L353.03125 50.59375Q353.26562 49.484375 353.79688 48.8125Q354.32812 48.125 355.34375 47.765625Q356.35938 47.390625 357.70312 47.390625Q359.03125 47.390625 359.85938 47.703125Q360.6875 48.015625 361.07812 48.5Q361.46875 48.96875 361.625 49.6875Q361.71875 50.140625 361.71875 51.3125L361.71875 53.65625Q361.71875 56.109375 361.82812 56.765625Q361.9375 57.40625 362.28125 58.0L360.4375 58.0Q360.17188 57.453125 360.09375 56.71875ZM359.9375 52.796875Q358.98438 53.1875 357.0625 53.453125Q355.98438 53.609375 355.53125 53.8125Q355.09375 54.0 354.84375 54.375Q354.59375 54.75 354.59375 55.21875Q354.59375 55.921875 355.125 56.390625Q355.65625 56.859375 356.6875 56.859375Q357.70312 56.859375 358.48438 56.421875Q359.28125 55.96875 359.65625 55.203125Q359.9375 54.59375 359.9375 53.4375L359.9375 52.796875ZM371.10938 58.0L371.10938 56.46875Q369.90625 58.234375 367.82812 58.234375Q366.90625 58.234375 366.10938 57.890625Q365.3125 57.53125 364.92188 57.0Q364.54688 56.46875 364.39062 55.6875Q364.28125 55.171875 364.28125 54.046875L364.28125 47.625L366.03125 47.625L366.03125 53.375Q366.03125 54.75 366.14062 55.234375Q366.3125 55.921875 366.84375 56.328125Q367.39062 56.71875 368.17188 56.71875Q368.96875 56.71875 369.65625 56.3125Q370.35938 55.90625 370.64062 55.21875Q370.9375 54.515625 370.9375 53.1875L370.9375 47.625L372.6875 47.625L372.6875 58.0L371.10938 58.0ZM388.09375 56.71875Q387.10938 57.546875 386.20312 57.890625Q385.29688 58.234375 384.26562 58.234375Q382.5625 58.234375 381.64062 57.40625Q380.71875 56.5625 380.71875 55.265625Q380.71875 54.5 381.0625 53.875Q381.42188 53.25 381.98438 52.875Q382.54688 52.484375 383.25 52.28125Q383.76562 52.15625 384.8125 52.015625Q386.9375 51.765625 387.9375 51.421875Q387.95312 51.0625 387.95312 50.953125Q387.95312 49.890625 387.45312 49.4375Q386.78125 48.84375 385.45312 48.84375Q384.20312 48.84375 383.60938 49.28125Q383.03125 49.71875 382.75 50.828125L381.03125 50.59375Q381.26562 49.484375 381.79688 48.8125Q382.32812 48.125 383.34375 47.765625Q384.35938 47.390625 385.70312 47.390625Q387.03125 47.390625 387.85938 47.703125Q388.6875 48.015625 389.07812 48.5Q389.46875 48.96875 389.625 49.6875Q389.71875 50.140625 389.71875 51.3125L389.71875 53.65625Q389.71875 56.109375 389.82812 56.765625Q389.9375 57.40625 390.28125 58.0L388.4375 58.0Q388.17188 57.453125 388.09375 56.71875ZM387.9375 52.796875Q386.98438 53.1875 385.0625 53.453125Q383.98438 53.609375 383.53125 53.8125Q383.09375 54.0 382.84375 54.375Q382.59375 54.75 382.59375 55.21875Q382.59375 55.921875 383.125 56.390625Q383.65625 56.859375 384.6875 56.859375Q385.70312 56.859375 386.48438 56.421875Q387.28125 55.96875 387.65625 55.203125Q387.9375 54.59375 387.9375 53.4375L387.9375 52.796875ZM392.3125 58.0L392.3125 47.625L393.90625 47.625L393.90625 49.109375Q395.04688 47.390625 397.20312 47.390625Q398.14062 47.390625 398.92188 47.734375Q399.71875 48.0625 400.10938 48.609375Q400.5 49.15625 400.65625 49.90625Q400.75 50.40625 400.75 51.625L400.75 58.0L398.98438 58.0L398.98438 51.6875Q398.98438 50.609375 398.78125 50.078125Q398.57812 49.546875 398.04688 49.234375Q397.53125 48.921875 396.82812 48.921875Q395.70312 48.921875 394.89062 49.640625Q394.07812 50.34375 394.07812 52.328125L394.07812 58.0L392.3125 58.0ZM403.32812 45.703125L403.32812 43.6875L405.09375 43.6875L405.09375 45.703125L403.32812 45.703125ZM403.32812 58.0L403.32812 47.625L405.09375 47.625L405.09375 58.0L403.32812 58.0ZM407.3125 58.0L407.3125 47.625L408.89062 47.625L408.89062 49.078125Q409.375 48.328125 410.1875 47.859375Q411.0 47.390625 412.03125 47.390625Q413.1875 47.390625 413.92188 47.875Q414.65625 48.34375 414.96875 49.203125Q416.20312 47.390625 418.17188 47.390625Q419.71875 47.390625 420.54688 48.25Q421.375 49.109375 421.375 50.875L421.375 58.0L419.625 58.0L419.625 51.46875Q419.625 50.40625 419.45312 49.953125Q419.28125 49.484375 418.82812 49.203125Q418.39062 48.921875 417.78125 48.921875Q416.6875 48.921875 415.95312 49.65625Q415.23438 50.375 415.23438 51.96875L415.23438 58.0L413.48438 58.0L413.48438 51.265625Q413.48438 50.09375 413.04688 49.515625Q412.625 48.921875 411.64062 48.921875Q410.90625 48.921875 410.26562 49.3125Q409.64062 49.703125 409.35938 50.453125Q409.07812 51.203125 409.07812 52.625L409.07812 58.0L407.3125 58.0ZM431.09375 56.71875Q430.10938 57.546875 429.20312 57.890625Q428.29688 58.234375 427.26562 58.234375Q425.5625 58.234375 424.64062 57.40625Q423.71875 56.5625 423.71875 55.265625Q423.71875 54.5 424.0625 53.875Q424.42188 53.25 424.98438 52.875Q425.54688 52.484375 426.25 52.28125Q426.76562 52.15625 427.8125 52.015625Q429.9375 51.765625 430.9375 51.421875Q430.95312 51.0625 430.95312 50.953125Q430.95312 49.890625 430.45312 49.4375Q429.78125 48.84375 428.45312 48.84375Q427.20312 48.84375 426.60938 49.28125Q426.03125 49.71875 425.75 50.828125L424.03125 50.59375Q424.26562 49.484375 424.79688 48.8125Q425.32812 48.125 426.34375 47.765625Q427.35938 47.390625 428.70312 47.390625Q430.03125 47.390625 430.85938 47.703125Q431.6875 48.015625 432.07812 48.5Q432.46875 48.96875 432.625 49.6875Q432.71875 50.140625 432.71875 51.3125L432.71875 53.65625Q432.71875 56.109375 432.82812 56.765625Q432.9375 57.40625 433.28125 58.0L431.4375 58.0Q431.17188 57.453125 431.09375 56.71875ZM430.9375 52.796875Q429.98438 53.1875 428.0625 53.453125Q426.98438 53.609375 426.53125 53.8125Q426.09375 54.0 425.84375 54.375Q425.59375 54.75 425.59375 55.21875Q425.59375 55.921875 426.125 56.390625Q426.65625 56.859375 427.6875 56.859375Q428.70312 56.859375 429.48438 56.421875Q430.28125 55.96875 430.65625 55.203125Q430.9375 54.59375 430.9375 53.4375L430.9375 52.796875ZM435.28125 58.0L435.28125 43.6875L437.03125 43.6875L437.03125 58.0L435.28125 58.0ZM452.04688 58.0L452.04688 56.6875Q451.0625 58.234375 449.14062 58.234375Q447.90625 58.234375 446.85938 57.546875Q445.82812 56.859375 445.25 55.640625Q444.6875 54.421875 444.6875 52.828125Q444.6875 51.265625 445.20312 50.0Q445.71875 48.734375 446.75 48.0625Q447.79688 47.390625 449.0625 47.390625Q450.0 47.390625 450.73438 47.796875Q451.46875 48.1875 451.9375 48.8125L451.9375 43.6875L453.67188 43.6875L453.67188 58.0L452.04688 58.0ZM446.48438 52.828125Q446.48438 54.8125 447.32812 55.796875Q448.17188 56.78125 449.3125 56.78125Q450.46875 56.78125 451.26562 55.84375Q452.07812 54.90625 452.07812 52.96875Q452.07812 50.84375 451.25 49.84375Q450.4375 48.84375 449.23438 48.84375Q448.0625 48.84375 447.26562 49.8125Q446.48438 50.765625 446.48438 52.828125ZM463.42188 54.65625L465.23438 54.890625Q464.8125 56.46875 463.64062 57.359375Q462.48438 58.234375 460.67188 58.234375Q458.40625 58.234375 457.0625 56.84375Q455.73438 55.4375 455.73438 52.90625Q455.73438 50.28125 457.07812 48.84375Q458.42188 47.390625 460.57812 47.390625Q462.65625 47.390625 463.96875 48.8125Q465.29688 50.21875 465.29688 52.796875Q465.29688 52.953125 465.28125 53.265625L457.54688 53.265625Q457.64062 54.96875 458.51562 55.875Q459.39062 56.78125 460.6875 56.78125Q461.65625 56.78125 462.32812 56.28125Q463.01562 55.765625 463.42188 54.65625ZM457.64062 51.8125L463.4375 51.8125Q463.32812 50.515625 462.78125 49.859375Q461.9375 48.84375 460.59375 48.84375Q459.39062 48.84375 458.5625 49.65625Q457.73438 50.453125 457.64062 51.8125ZM480.09375 54.203125L481.8125 54.421875Q481.53125 56.21875 480.35938 57.234375Q479.20312 58.234375 477.5 58.234375Q475.375 58.234375 474.07812 56.84375Q472.78125 55.453125 472.78125 52.859375Q472.78125 51.171875 473.32812 49.921875Q473.89062 48.65625 475.03125 48.03125Q476.17188 47.390625 477.51562 47.390625Q479.20312 47.390625 480.26562 48.25Q481.34375 49.109375 481.65625 50.671875L479.9375 50.9375Q479.70312 49.890625 479.07812 49.375Q478.45312 48.84375 477.57812 48.84375Q476.25 48.84375 475.42188 49.796875Q474.59375 50.75 474.59375 52.796875Q474.59375 54.890625 475.39062 55.84375Q476.1875 56.78125 477.48438 56.78125Q478.51562 56.78125 479.20312 56.15625Q479.90625 55.515625 480.09375 54.203125ZM482.67188 52.8125Q482.67188 49.9375 484.26562 48.546875Q485.60938 47.390625 487.53125 47.390625Q489.67188 47.390625 491.01562 48.796875Q492.375 50.203125 492.375 52.671875Q492.375 54.671875 491.78125 55.828125Q491.1875 56.96875 490.03125 57.609375Q488.89062 58.234375 487.53125 58.234375Q485.34375 58.234375 484.0 56.84375Q482.67188 55.4375 482.67188 52.8125ZM484.46875 52.8125Q484.46875 54.8125 485.32812 55.796875Q486.20312 56.78125 487.53125 56.78125Q488.84375 56.78125 489.70312 55.796875Q490.57812 54.796875 490.57812 52.75Q490.57812 50.828125 489.70312 49.84375Q488.82812 48.84375 487.53125 48.84375Q486.20312 48.84375 485.32812 49.84375Q484.46875 50.828125 484.46875 52.8125ZM494.3125 58.0L494.3125 47.625L495.89062 47.625L495.89062 49.078125Q496.375 48.328125 497.1875 47.859375Q498.0 47.390625 499.03125 47.390625Q500.1875 47.390625 500.92188 47.875Q501.65625 48.34375 501.96875 49.203125Q503.20312 47.390625 505.17188 47.390625Q506.71875 47.390625 507.54688 48.25Q508.375 49.109375 508.375 50.875L508.375 58.0L506.625 58.0L506.625 51.46875Q506.625 50.40625 506.45312 49.953125Q506.28125 49.484375 505.82812 49.203125Q505.39062 48.921875 504.78125 48.921875Q503.6875 48.921875 502.95312 49.65625Q502.23438 50.375 502.23438 51.96875L502.23438 58.0L500.48438 58.0L500.48438 51.265625Q500.48438 50.09375 500.04688 49.515625Q499.625 48.921875 498.64062 48.921875Q497.90625 48.921875 497.26562 49.3125Q496.64062 49.703125 496.35938 50.453125Q496.07812 51.203125 496.07812 52.625L496.07812 58.0L494.3125 58.0ZM511.3125 61.96875L511.3125 47.625L512.9219 47.625L512.9219 48.96875Q513.4844 48.1875 514.1875 47.796875Q514.90625 47.390625 515.9219 47.390625Q517.25 47.390625 518.2656 48.078125Q519.28125 48.765625 519.7969 50.015625Q520.3281 51.25 520.3281 52.734375Q520.3281 54.328125 519.75 55.609375Q519.1875 56.875 518.09375 57.5625Q517.0 58.234375 515.7969 58.234375Q514.9219 58.234375 514.21875 57.859375Q513.53125 57.484375 513.0781 56.921875L513.0781 61.96875L511.3125 61.96875ZM512.90625 52.875Q512.90625 54.875 513.71875 55.828125Q514.53125 56.78125 515.6875 56.78125Q516.8594 56.78125 517.6875 55.796875Q518.53125 54.8125 518.53125 52.71875Q518.53125 50.75 517.7031 49.765625Q516.8906 48.765625 515.7656 48.765625Q514.6406 48.765625 513.7656 49.828125Q512.90625 50.875 512.90625 52.875ZM529.09375 56.71875Q528.1094 57.546875 527.2031 57.890625Q526.2969 58.234375 525.2656 58.234375Q523.5625 58.234375 522.6406 57.40625Q521.71875 56.5625 521.71875 55.265625Q521.71875 54.5 522.0625 53.875Q522.4219 53.25 522.9844 52.875Q523.5469 52.484375 524.25 52.28125Q524.7656 52.15625 525.8125 52.015625Q527.9375 51.765625 528.9375 51.421875Q528.9531 51.0625 528.9531 50.953125Q528.9531 49.890625 528.4531 49.4375Q527.78125 48.84375 526.4531 48.84375Q525.2031 48.84375 524.6094 49.28125Q524.03125 49.71875 523.75 50.828125L522.03125 50.59375Q522.2656 49.484375 522.7969 48.8125Q523.3281 48.125 524.34375 47.765625Q525.3594 47.390625 526.7031 47.390625Q528.03125 47.390625 528.8594 47.703125Q529.6875 48.015625 530.0781 48.5Q530.46875 48.96875 530.625 49.6875Q530.71875 50.140625 530.71875 51.3125L530.71875 53.65625Q530.71875 56.109375 530.8281 56.765625Q530.9375 57.40625 531.28125 58.0L529.4375 58.0Q529.1719 57.453125 529.09375 56.71875ZM528.9375 52.796875Q527.9844 53.1875 526.0625 53.453125Q524.9844 53.609375 524.53125 53.8125Q524.09375 54.0 523.84375 54.375Q523.59375 54.75 523.59375 55.21875Q523.59375 55.921875 524.125 56.390625Q524.65625 56.859375 525.6875 56.859375Q526.7031 56.859375 527.4844 56.421875Q528.28125 55.96875 528.65625 55.203125Q528.9375 54.59375 528.9375 53.4375L528.9375 52.796875ZM533.3125 58.0L533.3125 47.625L534.90625 47.625L534.90625 49.109375Q536.0469 47.390625 538.2031 47.390625Q539.1406 47.390625 539.9219 47.734375Q540.71875 48.0625 541.1094 48.609375Q541.5 49.15625 541.65625 49.90625Q541.75 50.40625 541.75 51.625L541.75 58.0L539.9844 58.0L539.9844 51.6875Q539.9844 50.609375 539.78125 50.078125Q539.5781 49.546875 539.0469 49.234375Q538.53125 48.921875 537.8281 48.921875Q536.7031 48.921875 535.8906 49.640625Q535.0781 50.34375 535.0781 52.328125L535.0781 58.0L533.3125 58.0ZM544.3281 45.703125L544.3281 43.6875L546.09375 43.6875L546.09375 45.703125L544.3281 45.703125ZM544.3281 58.0L544.3281 47.625L546.09375 47.625L546.09375 58.0L544.3281 58.0ZM555.4219 54.65625L557.2344 54.890625Q556.8125 56.46875 555.6406 57.359375Q554.4844 58.234375 552.6719 58.234375Q550.40625 58.234375 549.0625 56.84375Q547.7344 55.4375 547.7344 52.90625Q547.7344 50.28125 549.0781 48.84375Q550.4219 47.390625 552.5781 47.390625Q554.65625 47.390625 555.96875 48.8125Q557.2969 50.21875 557.2969 52.796875Q557.2969 52.953125 557.28125 53.265625L549.5469 53.265625Q549.6406 54.96875 550.5156 55.875Q551.3906 56.78125 552.6875 56.78125Q553.65625 56.78125 554.3281 56.28125Q555.0156 55.765625 555.4219 54.65625ZM549.6406 51.8125L555.4375 51.8125Q555.3281 50.515625 554.78125 49.859375Q553.9375 48.84375 552.59375 48.84375Q551.3906 48.84375 550.5625 49.65625Q549.7344 50.453125 549.6406 51.8125ZM560.46875 62.203125L559.21875 62.203125Q562.125 57.515625 562.125 52.828125Q562.125 50.984375 561.71875 49.1875Q561.375 47.71875 560.78125 46.375Q560.40625 45.484375 559.21875 43.4375L560.46875 43.4375Q562.3125 45.890625 563.1875 48.359375Q563.9375 50.484375 563.9375 52.8125Q563.9375 55.453125 562.9219 57.921875Q561.9219 60.375 560.46875 62.203125Z" fill-rule="nonzero"/></svg>