<svg version="1.1" viewBox="0.0 0.0 1262.0 780.0" fill="none" stroke="none" stroke-linecap="square" stroke-miterlimit="10" width="1262" height="780" xmlns:xlink="http://www.w3.org/1999/xlink" xmlns="http://www.w3.org/2000/svg"><path fill="#ffffff" d="M0 0L1262.0 0L1262.0 780.0L0 780.0L0 0Z" fill-rule="nonzero"/><path stroke="#333333" stroke-width="1.0" stroke-linecap="butt" d="M98.5 689.5L1223.5 689.5" fill-rule="nonzero"/><path stroke="#cccccc" stroke-width="1.0" stroke-linecap="butt" d="M98.5 540.5L1223.5 540.5" fill-rule="nonzero"/><path stroke="#cccccc" stroke-width="1.0" stroke-linecap="butt" d="M98.5 392.5L1223.5 392.5" fill-rule="nonzero"/><path stroke="#cccccc" stroke-width="1.0" stroke-linecap="butt" d="M98.5 244.5L1223.5 244.5" fill-rule="nonzero"/><path stroke="#cccccc" stroke-width="1.0" stroke-linecap="butt" d="M98.5 96.5L1223.5 96.5" fill-rule="nonzero"/><clipPath id="id_0"><path d="M98.0 96.0L1223.0 96.0L1223.0 689.0L98.0 689.0L98.0 96.0Z" clip-rule="nonzero"/></clipPath><path stroke="#000000" stroke-width="2.0" stroke-linecap="butt" stroke-opacity="0.0" clip-path="url(#id_0)" d="M189.0 689.0L130.0 689.0L130.0 661.0C130.0 659.89545 130.89543 659.0 132.0 659.0L187.0 659.0C188.10457 659.0 189.0 659.89545 189.0 661.0Z" fill-rule="nonzero"/><path fill="#4285f4" clip-path="url(#id_0)" d="M189.0 689.0L130.0 689.0L130.0 661.0C130.0 659.89545 130.89543 659.0 132.0 659.0L187.0 659.0C188.10457 659.0 189.0 659.89545 189.0 661.0Z" fill-rule="nonzero"/><path stroke="#000000" stroke-width="2.0" stroke-linecap="butt" stroke-opacity="0.0" clip-path="url(#id_0)" d="M281.0 689.0L222.0 689.0L222.0 661.0C222.0 659.89545 222.89543 659.0 224.0 659.0L279.0 659.0C280.10458 659.0 281.0 659.89545 281.0 661.0Z" fill-rule="nonzero"/><path fill="#4285f4" clip-path="url(#id_0)" d="M281.0 689.0L222.0 689.0L222.0 661.0C222.0 659.89545 222.89543 659.0 224.0 659.0L279.0 659.0C280.10458 659.0 281.0 659.89545 281.0 661.0Z" fill-rule="nonzero"/><path stroke="#000000" stroke-width="2.0" stroke-linecap="butt" stroke-opacity="0.0" clip-path="url(#id_0)" d="M372.0 689.0L313.0 689.0L313.0 602.0C313.0 600.89545 313.89542 600.0 315.0 600.0L370.0 600.0C371.10458 600.0 372.0 600.89545 372.0 602.0Z" fill-rule="nonzero"/><path fill="#4285f4" clip-path="url(#id_0)" d="M372.0 689.0L313.0 689.0L313.0 602.0C313.0 600.89545 313.89542 600.0 315.0 600.0L370.0 600.0C371.10458 600.0 372.0 600.89545 372.0 602.0Z" fill-rule="nonzero"/><path stroke="#000000" stroke-width="2.0" stroke-linecap="butt" stroke-opacity="0.0" clip-path="url(#id_0)" d="M463.0 689.0L404.0 689.0L404.0 483.0C404.0 481.89542 404.89542 481.0 406.0 481.0L461.0 481.0C462.10458 481.0 463.0 481.89542 463.0 483.0Z" fill-rule="nonzero"/><path fill="#4285f4" clip-path="url(#id_0)" d="M463.0 689.0L404.0 689.0L404.0 483.0C404.0 481.89542 404.89542 481.0 406.0 481.0L461.0 481.0C462.10458 481.0 463.0 481.89542 463.0 483.0Z" fill-rule="nonzero"/><path stroke="#000000" stroke-width="2.0" stroke-linecap="butt" stroke-opacity="0.0" clip-path="url(#id_0)" d="M554.0 689.0L495.0 689.0L495.0 187.0C495.0 185.89543 495.89542 185.0 497.0 185.0L552.0 185.0C553.10455 185.0 554.0 185.89543 554.0 187.0Z" fill-rule="nonzero"/><path fill="#4285f4" clip-path="url(#id_0)" d="M554.0 689.0L495.0 689.0L495.0 187.0C495.0 185.89543 495.89542 185.0 497.0 185.0L552.0 185.0C553.10455 185.0 554.0 185.89543 554.0 187.0Z" fill-rule="nonzero"/><path stroke="#000000" stroke-width="2.0" stroke-linecap="butt" stroke-opacity="0.0" clip-path="url(#id_0)" d="M645.0 689.0L586.0 689.0L586.0 231.0C586.0 229.89543 586.89545 229.0 588.0 229.0L643.0 229.0C644.10455 229.0 645.0 229.89543 645.0 231.0Z" fill-rule="nonzero"/><path fill="#4285f4" clip-path="url(#id_0)" d="M645.0 689.0L586.0 689.0L586.0 231.0C586.0 229.89543 586.89545 229.0 588.0 229.0L643.0 229.0C644.10455 229.0 645.0 229.89543 645.0 231.0Z" fill-rule="nonzero"/><path stroke="#000000" stroke-width="2.0" stroke-linecap="butt" stroke-opacity="0.0" clip-path="url(#id_0)" d="M736.0 689.0L677.0 689.0L677.0 647.0C677.0 645.89545 677.89545 645.0 679.0 645.0L734.0 645.0C735.10455 645.0 736.0 645.89545 736.0 647.0Z" fill-rule="nonzero"/><path fill="#4285f4" clip-path="url(#id_0)" d="M736.0 689.0L677.0 689.0L677.0 647.0C677.0 645.89545 677.89545 645.0 679.0 645.0L734.0 645.0C735.10455 645.0 736.0 645.89545 736.0 647.0Z" fill-rule="nonzero"/><path stroke="#000000" stroke-width="2.0" stroke-linecap="butt" stroke-opacity="0.0" clip-path="url(#id_0)" d="M827.0 689.0L768.0 689.0L768.0 676.0C768.0 674.89545 768.89545 674.0 770.0 674.0L825.0 674.0C826.10455 674.0 827.0 674.89545 827.0 676.0Z" fill-rule="nonzero"/><path fill="#4285f4" clip-path="url(#id_0)" d="M827.0 689.0L768.0 689.0L768.0 676.0C768.0 674.89545 768.89545 674.0 770.0 674.0L825.0 674.0C826.10455 674.0 827.0 674.89545 827.0 676.0Z" fill-rule="nonzero"/><path stroke="#000000" stroke-width="2.0" stroke-linecap="butt" stroke-opacity="0.0" clip-path="url(#id_0)" d="M918.0 689.0L859.0 689.0L859.0 676.0C859.0 674.89545 859.89545 674.0 861.0 674.0L916.0 674.0C917.10455 674.0 918.0 674.89545 918.0 676.0Z" fill-rule="nonzero"/><path fill="#4285f4" clip-path="url(#id_0)" d="M918.0 689.0L859.0 689.0L859.0 676.0C859.0 674.89545 859.89545 674.0 861.0 674.0L916.0 674.0C917.10455 674.0 918.0 674.89545 918.0 676.0Z" fill-rule="nonzero"/><path stroke="#000000" stroke-width="2.0" stroke-linecap="butt" stroke-opacity="0.0" clip-path="url(#id_0)" d="M1009.0 689.0L950.0 689.0L950.0 661.0C950.0 659.89545 950.89545 659.0 952.0 659.0L1007.0 659.0C1008.10455 659.0 1009.0 659.89545 1009.0 661.0Z" fill-rule="nonzero"/><path fill="#4285f4" clip-path="url(#id_0)" d="M1009.0 689.0L950.0 689.0L950.0 661.0C950.0 659.89545 950.89545 659.0 952.0 659.0L1007.0 659.0C1008.10455 659.0 1009.0 659.89545 1009.0 661.0Z" fill-rule="nonzero"/><path stroke="#000000" stroke-width="2.0" stroke-linecap="butt" stroke-opacity="0.0" clip-path="url(#id_0)" d="M1100.0 689.0L1041.0 689.0L1041.0 676.0C1041.0 674.89545 1041.8954 674.0 1043.0 674.0L1098.0 674.0C1099.1046 674.0 1100.0 674.89545 1100.0 676.0Z" fill-rule="nonzero"/><path fill="#4285f4" clip-path="url(#id_0)" d="M1100.0 689.0L1041.0 689.0L1041.0 676.0C1041.0 674.89545 1041.8954 674.0 1043.0 674.0L1098.0 674.0C1099.1046 674.0 1100.0 674.89545 1100.0 676.0Z" fill-rule="nonzero"/><path stroke="#000000" stroke-width="2.0" stroke-linecap="butt" stroke-opacity="0.0" clip-path="url(#id_0)" d="M1192.0 689.0L1133.0 689.0L1133.0 676.0C1133.0 674.89545 1133.8954 674.0 1135.0 674.0L1190.0 674.0C1191.1046 674.0 1192.0 674.89545 1192.0 676.0Z" fill-rule="nonzero"/><path fill="#4285f4" clip-path="url(#id_0)" d="M1192.0 689.0L1133.0 689.0L1133.0 676.0C1133.0 674.89545 1133.8954 674.0 1135.0 674.0L1190.0 674.0C1191.1046 674.0 1192.0 674.89545 1192.0 676.0Z" fill-rule="nonzero"/><path fill="#000000" d="M646.375 738.0L643.0469 729.40625L644.28125 729.40625L646.5156 735.65625Q646.78125 736.40625 646.96875 737.0625Q647.1719 736.3594 647.4375 735.65625L649.75 729.40625L650.90625 729.40625L647.5469 738.0L646.375 738.0ZM655.8594 737.2344Q655.2656 737.7344 654.71875 737.9375Q654.1875 738.1406 653.5625 738.1406Q652.53125 738.1406 651.9844 737.6406Q651.4375 737.1406 651.4375 736.3594Q651.4375 735.90625 651.6406 735.53125Q651.84375 735.1406 652.1875 734.9219Q652.53125 734.6875 652.9531 734.5781Q653.25 734.4844 653.8906 734.40625Q655.15625 734.2656 655.7656 734.0469Q655.7656 733.8281 655.7656 733.78125Q655.7656 733.125 655.46875 732.8594Q655.0625 732.5156 654.2656 732.5156Q653.53125 732.5156 653.1719 732.78125Q652.8125 733.03125 652.6406 733.6875L651.6094 733.5469Q651.75 732.8906 652.0781 732.4844Q652.40625 732.0781 653.0156 731.8594Q653.625 731.6406 654.4219 731.6406Q655.21875 731.6406 655.71875 731.8281Q656.21875 732.0156 656.4531 732.2969Q656.6875 732.5781 656.78125 733.0156Q656.8281 733.28125 656.8281 733.9844L656.8281 735.3906Q656.8281 736.8594 656.8906 737.25Q656.96875 737.6406 657.1719 738.0L656.0625 738.0Q655.90625 737.6719 655.8594 737.2344ZM655.7656 734.875Q655.1875 735.1094 654.0469 735.28125Q653.3906 735.375 653.125 735.5Q652.8594 735.6094 652.7031 735.8281Q652.5625 736.0469 652.5625 736.3281Q652.5625 736.75 652.875 737.03125Q653.2031 737.3125 653.8125 737.3125Q654.4219 737.3125 654.8906 737.0469Q655.375 736.78125 655.59375 736.3125Q655.7656 735.9531 655.7656 735.2656L655.7656 734.875ZM654.0156 730.0L653.3594 731.0L652.1406 731.0L653.40625 729.3594L654.53125 729.3594L655.8594 731.0L654.65625 731.0L654.0156 730.0ZM658.78125 738.0L658.78125 731.78125L659.7344 731.78125L659.7344 732.71875Q660.09375 732.0625 660.3906 731.8594Q660.7031 731.6406 661.0781 731.6406Q661.6094 731.6406 662.15625 731.96875L661.7969 732.9531Q661.40625 732.71875 661.03125 732.71875Q660.6719 732.71875 660.3906 732.9375Q660.125 733.1406 660.0156 733.5156Q659.8281 734.0781 659.8281 734.7344L659.8281 738.0L658.78125 738.0ZM662.375 736.1406L663.40625 735.9844Q663.5 736.6094 663.8906 736.9375Q664.2969 737.2656 665.03125 737.2656Q665.75 737.2656 666.09375 736.9844Q666.4531 736.6875 666.4531 736.28125Q666.4531 735.9219 666.1406 735.71875Q665.9219 735.5781 665.0625 735.3594Q663.90625 735.0625 663.4531 734.8594Q663.0156 734.6406 662.78125 734.2656Q662.5469 733.8906 662.5469 733.4219Q662.5469 733.0156 662.7344 732.65625Q662.9219 732.2969 663.25 732.0625Q663.5 731.8906 663.9219 731.7656Q664.34375 731.6406 664.84375 731.6406Q665.5625 731.6406 666.1094 731.8594Q666.6719 732.0625 666.9375 732.4219Q667.2031 732.78125 667.2969 733.375L666.2656 733.5156Q666.2031 733.0469 665.8594 732.78125Q665.53125 732.5 664.90625 732.5Q664.1875 732.5 663.875 732.75Q663.5625 732.9844 663.5625 733.3125Q663.5625 733.5156 663.6875 733.6719Q663.8281 733.84375 664.09375 733.9531Q664.25 734.0156 665.03125 734.21875Q666.15625 734.53125 666.59375 734.71875Q667.03125 734.90625 667.28125 735.2656Q667.53125 735.625 667.53125 736.1719Q667.53125 736.7031 667.21875 737.1719Q666.9219 737.625 666.34375 737.8906Q665.7656 738.1406 665.03125 738.1406Q663.8125 738.1406 663.1719 737.6406Q662.5469 737.125 662.375 736.1406ZM671.09375 737.0625L671.25 737.9844Q670.7969 738.0781 670.4531 738.0781Q669.875 738.0781 669.5625 737.90625Q669.25 737.71875 669.1094 737.4219Q668.9844 737.125 668.9844 736.1719L668.9844 732.59375L668.21875 732.59375L668.21875 731.78125L668.9844 731.78125L668.9844 730.2344L670.03125 729.6094L670.03125 731.78125L671.09375 731.78125L671.09375 732.59375L670.03125 732.59375L670.03125 736.2344Q670.03125 736.6875 670.0781 736.8125Q670.1406 736.9375 670.2656 737.0156Q670.3906 737.09375 670.625 737.09375Q670.8125 737.09375 671.09375 737.0625ZM675.8594 737.2344Q675.2656 737.7344 674.71875 737.9375Q674.1875 738.1406 673.5625 738.1406Q672.53125 738.1406 671.9844 737.6406Q671.4375 737.1406 671.4375 736.3594Q671.4375 735.90625 671.6406 735.53125Q671.84375 735.1406 672.1875 734.9219Q672.53125 734.6875 672.9531 734.5781Q673.25 734.4844 673.8906 734.40625Q675.15625 734.2656 675.7656 734.0469Q675.7656 733.8281 675.7656 733.78125Q675.7656 733.125 675.46875 732.8594Q675.0625 732.5156 674.2656 732.5156Q673.53125 732.5156 673.1719 732.78125Q672.8125 733.03125 672.6406 733.6875L671.6094 733.5469Q671.75 732.8906 672.0781 732.4844Q672.40625 732.0781 673.0156 731.8594Q673.625 731.6406 674.4219 731.6406Q675.21875 731.6406 675.71875 731.8281Q676.21875 732.0156 676.4531 732.2969Q676.6875 732.5781 676.78125 733.0156Q676.8281 733.28125 676.8281 733.9844L676.8281 735.3906Q676.8281 736.8594 676.8906 737.25Q676.96875 737.6406 677.1719 738.0L676.0625 738.0Q675.90625 737.6719 675.8594 737.2344ZM675.7656 734.875Q675.1875 735.1094 674.0469 735.28125Q673.3906 735.375 673.125 735.5Q672.8594 735.6094 672.7031 735.8281Q672.5625 736.0469 672.5625 736.3281Q672.5625 736.75 672.875 737.03125Q673.2031 737.3125 673.8125 737.3125Q674.4219 737.3125 674.8906 737.0469Q675.375 736.78125 675.59375 736.3125Q675.7656 735.9531 675.7656 735.2656L675.7656 734.875ZM675.0156 729.4219L675.7344 729.4219Q675.6406 730.15625 675.1875 730.5469Q674.75 730.9375 674.0 730.9375Q673.25 730.9375 672.7969 730.5469Q672.3594 730.15625 672.2656 729.4219L672.9844 729.4219Q673.0781 729.8125 673.3125 730.0156Q673.5625 730.21875 673.96875 730.21875Q674.4375 730.21875 674.6875 730.03125Q674.9375 729.8281 675.0156 729.4219Z" fill-rule="nonzero"/><path fill="#000000" d="M50.0 424.57812L41.40625 424.57812L41.40625 421.32812Q41.40625 420.48438 41.484375 420.03125Q41.59375 419.39062 41.890625 418.96875Q42.1875 418.53125 42.71875 418.28125Q43.25 418.01562 43.890625 418.01562Q44.984375 418.01562 45.75 418.71875Q46.5 419.40625 46.5 421.23438L46.5 423.4375L50.0 423.4375L50.0 424.57812ZM45.5 423.4375L45.5 421.21875Q45.5 420.10938 45.09375 419.65625Q44.671875 419.1875 43.921875 419.1875Q43.390625 419.1875 43.015625 419.46875Q42.625 419.73438 42.5 420.17188Q42.421875 420.46875 42.421875 421.23438L42.421875 423.4375L45.5 423.4375ZM48.0 412.45312L48.125 411.35938Q49.078125 411.60938 49.609375 412.3125Q50.140625 413.01562 50.140625 414.09375Q50.140625 415.45312 49.296875 416.26562Q48.453125 417.0625 46.9375 417.0625Q45.375 417.0625 44.515625 416.25Q43.640625 415.4375 43.640625 414.15625Q43.640625 412.90625 44.484375 412.125Q45.328125 411.32812 46.875 411.32812Q46.96875 411.32812 47.15625 411.32812L47.15625 415.96875Q48.1875 415.90625 48.734375 415.39062Q49.265625 414.875 49.265625 414.09375Q49.265625 413.51562 48.96875 413.10938Q48.65625 412.6875 48.0 412.45312ZM46.296875 415.90625L46.296875 412.4375Q45.5 412.5 45.109375 412.82812Q44.5 413.34375 44.5 414.14062Q44.5 414.875 44.984375 415.375Q45.46875 415.85938 46.296875 415.90625ZM50.0 409.71875L43.78125 409.71875L43.78125 408.76562L44.71875 408.76562Q44.0625 408.40625 43.859375 408.10938Q43.640625 407.79688 43.640625 407.42188Q43.640625 406.89062 43.96875 406.34375L44.953125 406.70312Q44.71875 407.09375 44.71875 407.46875Q44.71875 407.82812 44.9375 408.10938Q45.140625 408.375 45.515625 408.48438Q46.078125 408.67188 46.734375 408.67188L50.0 408.67188L50.0 409.71875ZM48.140625 406.125L47.984375 405.09375Q48.609375 405.0 48.9375 404.60938Q49.265625 404.20312 49.265625 403.46875Q49.265625 402.75 48.984375 402.40625Q48.6875 402.04688 48.28125 402.04688Q47.921875 402.04688 47.71875 402.35938Q47.578125 402.57812 47.359375 403.4375Q47.0625 404.59375 46.859375 405.04688Q46.640625 405.48438 46.265625 405.71875Q45.890625 405.95312 45.421875 405.95312Q45.015625 405.95312 44.65625 405.76562Q44.296875 405.57812 44.0625 405.25Q43.890625 405.0 43.765625 404.57812Q43.640625 404.15625 43.640625 403.65625Q43.640625 402.9375 43.859375 402.39062Q44.0625 401.82812 44.421875 401.5625Q44.78125 401.29688 45.375 401.20312L45.515625 402.23438Q45.046875 402.29688 44.78125 402.64062Q44.5 402.96875 44.5 403.59375Q44.5 404.3125 44.75 404.625Q44.984375 404.9375 45.3125 404.9375Q45.515625 404.9375 45.671875 404.8125Q45.84375 404.67188 45.953125 404.40625Q46.015625 404.25 46.21875 403.46875Q46.53125 402.34375 46.71875 401.90625Q46.90625 401.46875 47.265625 401.21875Q47.625 400.96875 48.171875 400.96875Q48.703125 400.96875 49.171875 401.28125Q49.625 401.57812 49.890625 402.15625Q50.140625 402.73438 50.140625 403.46875Q50.140625 404.6875 49.640625 405.32812Q49.125 405.95312 48.140625 406.125ZM46.890625 400.09375Q45.15625 400.09375 44.328125 399.14062Q43.640625 398.34375 43.640625 397.1875Q43.640625 395.90625 44.484375 395.09375Q45.3125 394.26562 46.796875 394.26562Q48.0 394.26562 48.6875 394.625Q49.375 394.98438 49.765625 395.6875Q50.140625 396.375 50.140625 397.1875Q50.140625 398.48438 49.3125 399.29688Q48.46875 400.09375 46.890625 400.09375ZM46.890625 399.01562Q48.078125 399.01562 48.671875 398.5Q49.265625 397.96875 49.265625 397.1875Q49.265625 396.39062 48.671875 395.875Q48.078125 395.35938 46.859375 395.35938Q45.703125 395.35938 45.109375 395.89062Q44.515625 396.40625 44.515625 397.1875Q44.515625 397.96875 45.109375 398.5Q45.6875 399.01562 46.890625 399.01562ZM49.234375 388.64062Q49.734375 389.23438 49.9375 389.78125Q50.140625 390.3125 50.140625 390.9375Q50.140625 391.96875 49.640625 392.51562Q49.140625 393.0625 48.359375 393.0625Q47.90625 393.0625 47.53125 392.85938Q47.140625 392.65625 46.921875 392.3125Q46.6875 391.96875 46.578125 391.54688Q46.484375 391.25 46.40625 390.60938Q46.265625 389.34375 46.046875 388.73438Q45.828125 388.73438 45.78125 388.73438Q45.125 388.73438 44.859375 389.03125Q44.515625 389.4375 44.515625 390.23438Q44.515625 390.96875 44.78125 391.32812Q45.03125 391.6875 45.6875 391.85938L45.546875 392.89062Q44.890625 392.75 44.484375 392.42188Q44.078125 392.09375 43.859375 391.48438Q43.640625 390.875 43.640625 390.07812Q43.640625 389.28125 43.828125 388.78125Q44.015625 388.28125 44.296875 388.04688Q44.578125 387.8125 45.015625 387.71875Q45.28125 387.67188 45.984375 387.67188L47.390625 387.67188Q48.859375 387.67188 49.25 387.60938Q49.640625 387.53125 50.0 387.32812L50.0 388.4375Q49.671875 388.59375 49.234375 388.64062ZM46.875 388.73438Q47.109375 389.3125 47.28125 390.45312Q47.375 391.10938 47.5 391.375Q47.609375 391.64062 47.828125 391.79688Q48.046875 391.9375 48.328125 391.9375Q48.75 391.9375 49.03125 391.625Q49.3125 391.29688 49.3125 390.6875Q49.3125 390.07812 49.046875 389.60938Q48.78125 389.125 48.3125 388.90625Q47.953125 388.73438 47.265625 388.73438L46.875 388.73438ZM50.0 385.70312L43.78125 385.70312L43.78125 384.76562L44.65625 384.76562Q43.640625 384.07812 43.640625 382.78125Q43.640625 382.21875 43.84375 381.75Q44.046875 381.26562 44.375 381.03125Q44.703125 380.79688 45.140625 380.70312Q45.4375 380.65625 46.171875 380.65625L50.0 380.65625L50.0 381.70312L46.21875 381.70312Q45.5625 381.70312 45.25 381.82812Q44.9375 381.95312 44.75 382.26562Q44.546875 382.57812 44.546875 383.0Q44.546875 383.67188 44.984375 384.17188Q45.40625 384.65625 46.59375 384.65625L50.0 384.65625L50.0 385.70312ZM48.0 374.45312L48.125 373.35938Q49.078125 373.60938 49.609375 374.3125Q50.140625 375.01562 50.140625 376.09375Q50.140625 377.45312 49.296875 378.26562Q48.453125 379.0625 46.9375 379.0625Q45.375 379.0625 44.515625 378.25Q43.640625 377.4375 43.640625 376.15625Q43.640625 374.90625 44.484375 374.125Q45.328125 373.32812 46.875 373.32812Q46.96875 373.32812 47.15625 373.32812L47.15625 377.96875Q48.1875 377.90625 48.734375 377.39062Q49.265625 376.875 49.265625 376.09375Q49.265625 375.51562 48.96875 375.10938Q48.65625 374.6875 48.0 374.45312ZM46.296875 377.90625L46.296875 374.4375Q45.5 374.5 45.109375 374.82812Q44.5 375.34375 44.5 376.14062Q44.5 376.875 44.984375 377.375Q45.46875 377.85938 46.296875 377.90625Z" fill-rule="nonzero"/><path fill="#000000" d="M85.5 688.7656Q85.5 687.2344 85.8125 686.3125Q86.125 685.375 86.734375 684.875Q87.359375 684.375 88.296875 684.375Q88.984375 684.375 89.5 684.65625Q90.03125 684.9375 90.375 685.46875Q90.71875 685.9844 90.90625 686.7344Q91.09375 687.4844 91.09375 688.7656Q91.09375 690.28125 90.78125 691.2031Q90.484375 692.125 89.859375 692.6406Q89.25 693.1406 88.296875 693.1406Q87.0625 693.1406 86.34375 692.25Q85.5 691.1875 85.5 688.7656ZM86.578125 688.7656Q86.578125 690.875 87.078125 691.5781Q87.578125 692.28125 88.296875 692.28125Q89.03125 692.28125 89.515625 691.5781Q90.015625 690.875 90.015625 688.7656Q90.015625 686.6406 89.515625 685.9531Q89.03125 685.25 88.28125 685.25Q87.5625 685.25 87.125 685.8594Q86.578125 686.6406 86.578125 688.7656Z" fill-rule="nonzero"/><path fill="#000000" d="M82.46875 544.75L81.421875 544.75L81.421875 538.03125Q81.03125 538.3906 80.40625 538.7656Q79.796875 539.125 79.3125 539.2969L79.3125 538.28125Q80.1875 537.8594 80.84375 537.28125Q81.515625 536.6875 81.796875 536.125L82.46875 536.125L82.46875 544.75ZM85.5 540.5156Q85.5 538.9844 85.8125 538.0625Q86.125 537.125 86.734375 536.625Q87.359375 536.125 88.296875 536.125Q88.984375 536.125 89.5 536.40625Q90.03125 536.6875 90.375 537.21875Q90.71875 537.7344 90.90625 538.4844Q91.09375 539.2344 91.09375 540.5156Q91.09375 542.03125 90.78125 542.9531Q90.484375 543.875 89.859375 544.3906Q89.25 544.8906 88.296875 544.8906Q87.0625 544.8906 86.34375 544.0Q85.5 542.9375 85.5 540.5156ZM86.578125 540.5156Q86.578125 542.625 87.078125 543.3281Q87.578125 544.03125 88.296875 544.03125Q89.03125 544.03125 89.515625 543.3281Q90.015625 542.625 90.015625 540.5156Q90.015625 538.3906 89.515625 537.7031Q89.03125 537.0 88.28125 537.0Q87.5625 537.0 87.125 537.6094Q86.578125 538.3906 86.578125 540.5156Z" fill-rule="nonzero"/><path fill="#000000" d="M84.046875 395.48438L84.046875 396.5L78.359375 396.5Q78.359375 396.125 78.484375 395.76562Q78.703125 395.1875 79.171875 394.625Q79.65625 394.0625 80.5625 393.32812Q81.96875 392.17188 82.453125 391.5Q82.953125 390.82812 82.953125 390.23438Q82.953125 389.60938 82.5 389.1875Q82.046875 388.75 81.328125 388.75Q80.5625 388.75 80.109375 389.20312Q79.65625 389.65625 79.640625 390.46875L78.5625 390.35938Q78.671875 389.14062 79.390625 388.51562Q80.125 387.875 81.359375 387.875Q82.59375 387.875 83.3125 388.5625Q84.03125 389.25 84.03125 390.26562Q84.03125 390.78125 83.8125 391.28125Q83.609375 391.76562 83.109375 392.32812Q82.625 392.875 81.5 393.82812Q80.546875 394.625 80.265625 394.92188Q80.0 395.20312 79.828125 395.48438L84.046875 395.48438ZM85.5 392.26562Q85.5 390.73438 85.8125 389.8125Q86.125 388.875 86.734375 388.375Q87.359375 387.875 88.296875 387.875Q88.984375 387.875 89.5 388.15625Q90.03125 388.4375 90.375 388.96875Q90.71875 389.48438 90.90625 390.23438Q91.09375 390.98438 91.09375 392.26562Q91.09375 393.78125 90.78125 394.70312Q90.484375 395.625 89.859375 396.14062Q89.25 396.64062 88.296875 396.64062Q87.0625 396.64062 86.34375 395.75Q85.5 394.6875 85.5 392.26562ZM86.578125 392.26562Q86.578125 394.375 87.078125 395.07812Q87.578125 395.78125 88.296875 395.78125Q89.03125 395.78125 89.515625 395.07812Q90.015625 394.375 90.015625 392.26562Q90.015625 390.14062 89.515625 389.45312Q89.03125 388.75 88.28125 388.75Q87.5625 388.75 87.125 389.35938Q86.578125 390.14062 86.578125 392.26562Z" fill-rule="nonzero"/><path fill="#000000" d="M78.5 245.98438L79.5625 245.84375Q79.734375 246.73438 80.171875 247.14062Q80.609375 247.53125 81.234375 247.53125Q81.984375 247.53125 82.5 247.01562Q83.015625 246.5 83.015625 245.73438Q83.015625 245.01562 82.53125 244.54688Q82.0625 244.0625 81.328125 244.0625Q81.03125 244.0625 80.578125 244.1875L80.703125 243.25Q80.8125 243.26562 80.875 243.26562Q81.546875 243.26562 82.078125 242.92188Q82.625 242.5625 82.625 241.82812Q82.625 241.25 82.234375 240.875Q81.84375 240.48438 81.21875 240.48438Q80.609375 240.48438 80.1875 240.875Q79.78125 241.26562 79.671875 242.03125L78.609375 241.84375Q78.796875 240.79688 79.484375 240.21875Q80.171875 239.625 81.1875 239.625Q81.890625 239.625 82.484375 239.9375Q83.078125 240.23438 83.390625 240.75Q83.703125 241.26562 83.703125 241.85938Q83.703125 242.40625 83.40625 242.875Q83.109375 243.32812 82.53125 243.59375Q83.28125 243.76562 83.703125 244.32812Q84.125 244.875 84.125 245.71875Q84.125 246.84375 83.296875 247.625Q82.484375 248.40625 81.234375 248.40625Q80.109375 248.40625 79.359375 247.73438Q78.609375 247.04688 78.5 245.98438ZM85.5 244.01562Q85.5 242.48438 85.8125 241.5625Q86.125 240.625 86.734375 240.125Q87.359375 239.625 88.296875 239.625Q88.984375 239.625 89.5 239.90625Q90.03125 240.1875 90.375 240.71875Q90.71875 241.23438 90.90625 241.98438Q91.09375 242.73438 91.09375 244.01562Q91.09375 245.53125 90.78125 246.45312Q90.484375 247.375 89.859375 247.89062Q89.25 248.39062 88.296875 248.39062Q87.0625 248.39062 86.34375 247.5Q85.5 246.4375 85.5 244.01562ZM86.578125 244.01562Q86.578125 246.125 87.078125 246.82812Q87.578125 247.53125 88.296875 247.53125Q89.03125 247.53125 89.515625 246.82812Q90.015625 246.125 90.015625 244.01562Q90.015625 241.89062 89.515625 241.20312Q89.03125 240.5 88.28125 240.5Q87.5625 240.5 87.125 241.10938Q86.578125 241.89062 86.578125 244.01562Z" fill-rule="nonzero"/><path fill="#000000" d="M81.875 100.0L81.875 97.9375L78.15625 97.9375L78.15625 96.96875L82.078125 91.40625L82.9375 91.40625L82.9375 96.96875L84.09375 96.96875L84.09375 97.9375L82.9375 97.9375L82.9375 100.0L81.875 100.0ZM81.875 96.96875L81.875 93.109375L79.1875 96.96875L81.875 96.96875ZM85.5 95.765625Q85.5 94.234375 85.8125 93.3125Q86.125 92.375 86.734375 91.875Q87.359375 91.375 88.296875 91.375Q88.984375 91.375 89.5 91.65625Q90.03125 91.9375 90.375 92.46875Q90.71875 92.984375 90.90625 93.734375Q91.09375 94.484375 91.09375 95.765625Q91.09375 97.28125 90.78125 98.203125Q90.484375 99.125 89.859375 99.640625Q89.25 100.140625 88.296875 100.140625Q87.0625 100.140625 86.34375 99.25Q85.5 98.1875 85.5 95.765625ZM86.578125 95.765625Q86.578125 97.875 87.078125 98.578125Q87.578125 99.28125 88.296875 99.28125Q89.03125 99.28125 89.515625 98.578125Q90.015625 97.875 90.015625 95.765625Q90.015625 93.640625 89.515625 92.953125Q89.03125 92.25 88.28125 92.25Q87.5625 92.25 87.125 92.859375Q86.578125 93.640625 86.578125 95.765625Z" fill-rule="nonzero"/><path fill="#000000" d="M156.9566 706.0L155.90973 706.0L155.90973 699.28125Q155.5191 699.6406 154.8941 700.0156Q154.28473 700.375 153.80035 700.5469L153.80035 699.53125Q154.67535 699.1094 155.3316 698.53125Q156.00348 697.9375 156.28473 697.375L156.9566 697.375L156.9566 706.0ZM161.61285 701.34375Q160.9566 701.09375 160.62848 700.65625Q160.31598 700.2031 160.31598 699.59375Q160.31598 698.65625 160.98785 698.0156Q161.67535 697.375 162.78473 697.375Q163.90973 697.375 164.59723 698.03125Q165.28473 698.6875 165.28473 699.625Q165.28473 700.21875 164.97223 700.65625Q164.65973 701.09375 164.0191 701.34375Q164.81598 701.59375 165.22223 702.1719Q165.62848 702.75 165.62848 703.5469Q165.62848 704.6406 164.84723 705.3906Q164.0816 706.1406 162.80035 706.1406Q161.53473 706.1406 160.75348 705.3906Q159.97223 704.6406 159.97223 703.5156Q159.97223 702.6719 160.3941 702.1094Q160.8316 701.5469 161.61285 701.34375ZM161.3941 699.5469Q161.3941 700.15625 161.78473 700.5469Q162.19098 700.9375 162.81598 700.9375Q163.42535 700.9375 163.81598 700.5625Q164.2066 700.1719 164.2066 699.6094Q164.2066 699.03125 163.80035 698.6406Q163.3941 698.2344 162.80035 698.2344Q162.19098 698.2344 161.78473 698.625Q161.3941 699.0156 161.3941 699.5469ZM161.06598 703.5156Q161.06598 703.96875 161.2691 704.3906Q161.48785 704.8125 161.90973 705.0469Q162.3316 705.28125 162.81598 705.28125Q163.56598 705.28125 164.05035 704.7969Q164.55035 704.3125 164.55035 703.5625Q164.55035 702.7969 164.05035 702.2969Q163.55035 701.7969 162.78473 701.7969Q162.03473 701.7969 161.55035 702.2969Q161.06598 702.78125 161.06598 703.5156Z" fill-rule="nonzero"/><path fill="#000000" d="M248.04973 706.0L247.00285 706.0L247.00285 699.28125Q246.61223 699.6406 245.98723 700.0156Q245.37785 700.375 244.89348 700.5469L244.89348 699.53125Q245.76848 699.1094 246.42473 698.53125Q247.0966 697.9375 247.37785 697.375L248.04973 697.375L248.04973 706.0ZM251.23723 704.0156L252.25285 703.9219Q252.37785 704.6406 252.73723 704.96875Q253.11223 705.28125 253.67473 705.28125Q254.1591 705.28125 254.51848 705.0625Q254.89348 704.8281 255.12785 704.46875Q255.36223 704.09375 255.51848 703.46875Q255.67473 702.8281 255.67473 702.1719Q255.67473 702.09375 255.67473 701.9531Q255.36223 702.4531 254.81535 702.78125Q254.26848 703.09375 253.62785 703.09375Q252.54973 703.09375 251.81535 702.3281Q251.08098 701.5469 251.08098 700.28125Q251.08098 698.96875 251.8466 698.1719Q252.62785 697.375 253.7841 697.375Q254.61223 697.375 255.29973 697.8281Q256.00287 698.28125 256.36224 699.125Q256.72162 699.9531 256.72162 701.53125Q256.72162 703.1719 256.36224 704.15625Q256.0185 705.125 255.29973 705.6406Q254.5966 706.1406 253.6591 706.1406Q252.64348 706.1406 252.00285 705.59375Q251.36223 705.03125 251.23723 704.0156ZM255.54973 700.21875Q255.54973 699.3125 255.06535 698.78125Q254.5966 698.25 253.9091 698.25Q253.20598 698.25 252.67473 698.8281Q252.1591 699.3906 252.1591 700.3125Q252.1591 701.125 252.6591 701.6406Q253.1591 702.15625 253.87785 702.15625Q254.61223 702.15625 255.08098 701.6406Q255.54973 701.125 255.54973 700.21875Z" fill-rule="nonzero"/><path fill="#000000" d="M340.72098 704.9844L340.72098 706.0L335.03348 706.0Q335.03348 705.625 335.15848 705.2656Q335.37723 704.6875 335.84598 704.125Q336.33035 703.5625 337.2366 702.8281Q338.64285 701.6719 339.12723 701.0Q339.62723 700.3281 339.62723 699.7344Q339.62723 699.1094 339.1741 698.6875Q338.72098 698.25 338.00223 698.25Q337.2366 698.25 336.78348 698.7031Q336.33035 699.15625 336.31473 699.96875L335.2366 699.8594Q335.34598 698.6406 336.06473 698.0156Q336.7991 697.375 338.03348 697.375Q339.26785 697.375 339.9866 698.0625Q340.70535 698.75 340.70535 699.7656Q340.70535 700.28125 340.4866 700.78125Q340.28348 701.2656 339.78348 701.8281Q339.2991 702.375 338.1741 703.3281Q337.22098 704.125 336.93973 704.4219Q336.6741 704.7031 336.50223 704.9844L340.72098 704.9844ZM342.1741 701.7656Q342.1741 700.2344 342.4866 699.3125Q342.7991 698.375 343.40848 697.875Q344.03348 697.375 344.97098 697.375Q345.65848 697.375 346.1741 697.65625Q346.70535 697.9375 347.0491 698.46875Q347.39285 698.9844 347.58035 699.7344Q347.76785 700.4844 347.76785 701.7656Q347.76785 703.28125 347.45535 704.2031Q347.15848 705.125 346.53348 705.6406Q345.9241 706.1406 344.97098 706.1406Q343.7366 706.1406 343.01785 705.25Q342.1741 704.1875 342.1741 701.7656ZM343.25223 701.7656Q343.25223 703.875 343.75223 704.5781Q344.25223 705.28125 344.97098 705.28125Q345.70535 705.28125 346.18973 704.5781Q346.68973 703.875 346.68973 701.7656Q346.68973 699.6406 346.18973 698.9531Q345.70535 698.25 344.95535 698.25Q344.2366 698.25 343.7991 698.8594Q343.25223 699.6406 343.25223 701.7656Z" fill-rule="nonzero"/><path fill="#000000" d="M431.8141 704.9844L431.8141 706.0L426.1266 706.0Q426.1266 705.625 426.2516 705.2656Q426.47034 704.6875 426.9391 704.125Q427.42346 703.5625 428.3297 702.8281Q429.73596 701.6719 430.22034 701.0Q430.72034 700.3281 430.72034 699.7344Q430.72034 699.1094 430.2672 698.6875Q429.8141 698.25 429.09534 698.25Q428.3297 698.25 427.8766 698.7031Q427.42346 699.15625 427.40784 699.96875L426.3297 699.8594Q426.4391 698.6406 427.15784 698.0156Q427.8922 697.375 429.1266 697.375Q430.36096 697.375 431.0797 698.0625Q431.79846 698.75 431.79846 699.7656Q431.79846 700.28125 431.5797 700.78125Q431.3766 701.2656 430.8766 701.8281Q430.3922 702.375 429.2672 703.3281Q428.3141 704.125 428.03284 704.4219Q427.7672 704.7031 427.59534 704.9844L431.8141 704.9844ZM437.23596 706.0L436.1891 706.0L436.1891 699.28125Q435.79846 699.6406 435.17346 700.0156Q434.5641 700.375 434.0797 700.5469L434.0797 699.53125Q434.9547 699.1094 435.61096 698.53125Q436.28284 697.9375 436.5641 697.375L437.23596 697.375L437.23596 706.0Z" fill-rule="nonzero"/><path fill="#000000" d="M522.9072 704.9844L522.9072 706.0L517.2197 706.0Q517.2197 705.625 517.3447 705.2656Q517.5635 704.6875 518.0322 704.125Q518.5166 703.5625 519.42285 702.8281Q520.8291 701.6719 521.3135 701.0Q521.8135 700.3281 521.8135 699.7344Q521.8135 699.1094 521.36035 698.6875Q520.9072 698.25 520.1885 698.25Q519.42285 698.25 518.9697 698.7031Q518.5166 699.15625 518.501 699.96875L517.42285 699.8594Q517.5322 698.6406 518.251 698.0156Q518.98535 697.375 520.2197 697.375Q521.4541 697.375 522.17285 698.0625Q522.8916 698.75 522.8916 699.7656Q522.8916 700.28125 522.67285 700.78125Q522.4697 701.2656 521.9697 701.8281Q521.48535 702.375 520.36035 703.3281Q519.4072 704.125 519.126 704.4219Q518.86035 704.7031 518.6885 704.9844L522.9072 704.9844ZM529.9072 704.9844L529.9072 706.0L524.2197 706.0Q524.2197 705.625 524.3447 705.2656Q524.5635 704.6875 525.0322 704.125Q525.5166 703.5625 526.42285 702.8281Q527.8291 701.6719 528.3135 701.0Q528.8135 700.3281 528.8135 699.7344Q528.8135 699.1094 528.36035 698.6875Q527.9072 698.25 527.1885 698.25Q526.42285 698.25 525.9697 698.7031Q525.5166 699.15625 525.501 699.96875L524.42285 699.8594Q524.5322 698.6406 525.251 698.0156Q525.98535 697.375 527.2197 697.375Q528.4541 697.375 529.17285 698.0625Q529.8916 698.75 529.8916 699.7656Q529.8916 700.28125 529.67285 700.78125Q529.4697 701.2656 528.9697 701.8281Q528.48535 702.375 527.36035 703.3281Q526.4072 704.125 526.126 704.4219Q525.86035 704.7031 525.6885 704.9844L529.9072 704.9844Z" fill-rule="nonzero"/><path fill="#000000" d="M614.0003 704.9844L614.0003 706.0L608.3128 706.0Q608.3128 705.625 608.4378 705.2656Q608.65656 704.6875 609.1253 704.125Q609.6097 703.5625 610.5159 702.8281Q611.9222 701.6719 612.40656 701.0Q612.90656 700.3281 612.90656 699.7344Q612.90656 699.1094 612.4534 698.6875Q612.0003 698.25 611.28156 698.25Q610.5159 698.25 610.0628 698.7031Q609.6097 699.15625 609.59406 699.96875L608.5159 699.8594Q608.6253 698.6406 609.34406 698.0156Q610.0784 697.375 611.3128 697.375Q612.5472 697.375 613.2659 698.0625Q613.9847 698.75 613.9847 699.7656Q613.9847 700.28125 613.7659 700.78125Q613.5628 701.2656 613.0628 701.8281Q612.5784 702.375 611.4534 703.3281Q610.5003 704.125 610.21906 704.4219Q609.9534 704.7031 609.78156 704.9844L614.0003 704.9844ZM615.4534 703.7344L616.5159 703.59375Q616.6878 704.4844 617.1253 704.8906Q617.5628 705.28125 618.1878 705.28125Q618.9378 705.28125 619.4534 704.7656Q619.96906 704.25 619.96906 703.4844Q619.96906 702.7656 619.4847 702.2969Q619.0159 701.8125 618.28156 701.8125Q617.9847 701.8125 617.53156 701.9375L617.65656 701.0Q617.7659 701.0156 617.8284 701.0156Q618.5003 701.0156 619.03156 700.6719Q619.5784 700.3125 619.5784 699.5781Q619.5784 699.0 619.1878 698.625Q618.7972 698.2344 618.1722 698.2344Q617.5628 698.2344 617.1409 698.625Q616.7347 699.0156 616.6253 699.78125L615.5628 699.59375Q615.7503 698.5469 616.4378 697.96875Q617.1253 697.375 618.1409 697.375Q618.84406 697.375 619.4378 697.6875Q620.03156 697.9844 620.34406 698.5Q620.65656 699.0156 620.65656 699.6094Q620.65656 700.15625 620.3597 700.625Q620.0628 701.0781 619.4847 701.34375Q620.2347 701.5156 620.65656 702.0781Q621.0784 702.625 621.0784 703.46875Q621.0784 704.59375 620.2503 705.375Q619.4378 706.15625 618.1878 706.15625Q617.0628 706.15625 616.3128 705.4844Q615.5628 704.7969 615.4534 703.7344Z" fill-rule="nonzero"/><path fill="#000000" d="M705.09344 704.9844L705.09344 706.0L699.40594 706.0Q699.40594 705.625 699.53094 705.2656Q699.7497 704.6875 700.21844 704.125Q700.7028 703.5625 701.6091 702.8281Q703.0153 701.6719 703.4997 701.0Q703.9997 700.3281 703.9997 699.7344Q703.9997 699.1094 703.5466 698.6875Q703.09344 698.25 702.3747 698.25Q701.6091 698.25 701.15594 698.7031Q700.7028 699.15625 700.6872 699.96875L699.6091 699.8594Q699.71844 698.6406 700.4372 698.0156Q701.1716 697.375 702.40594 697.375Q703.6403 697.375 704.3591 698.0625Q705.0778 698.75 705.0778 699.7656Q705.0778 700.28125 704.8591 700.78125Q704.65594 701.2656 704.15594 701.8281Q703.6716 702.375 702.5466 703.3281Q701.59344 704.125 701.3122 704.4219Q701.0466 704.7031 700.8747 704.9844L705.09344 704.9844ZM709.9216 706.0L709.9216 703.9375L706.2028 703.9375L706.2028 702.96875L710.1247 697.40625L710.9841 697.40625L710.9841 702.96875L712.1403 702.96875L712.1403 703.9375L710.9841 703.9375L710.9841 706.0L709.9216 706.0ZM709.9216 702.96875L709.9216 699.1094L707.2341 702.96875L709.9216 702.96875Z" fill-rule="nonzero"/><path fill="#000000" d="M796.1865 704.9844L796.1865 706.0L790.499 706.0Q790.499 705.625 790.624 705.2656Q790.8428 704.6875 791.3115 704.125Q791.7959 703.5625 792.70215 702.8281Q794.1084 701.6719 794.5928 701.0Q795.0928 700.3281 795.0928 699.7344Q795.0928 699.1094 794.63965 698.6875Q794.1865 698.25 793.4678 698.25Q792.70215 698.25 792.249 698.7031Q791.7959 699.15625 791.7803 699.96875L790.70215 699.8594Q790.8115 698.6406 791.5303 698.0156Q792.26465 697.375 793.499 697.375Q794.7334 697.375 795.45215 698.0625Q796.1709 698.75 796.1709 699.7656Q796.1709 700.28125 795.95215 700.78125Q795.749 701.2656 795.249 701.8281Q794.76465 702.375 793.63965 703.3281Q792.6865 704.125 792.4053 704.4219Q792.13965 704.7031 791.9678 704.9844L796.1865 704.9844ZM797.63965 703.75L798.749 703.65625Q798.874 704.46875 799.3115 704.875Q799.76465 705.28125 800.4053 705.28125Q801.1553 705.28125 801.6865 704.7031Q802.2178 704.125 802.2178 703.1875Q802.2178 702.28125 801.70215 701.7656Q801.20215 701.2344 800.374 701.2344Q799.874 701.2344 799.45215 701.46875Q799.0459 701.7031 798.8115 702.0625L797.82715 701.9375L798.6553 697.53125L802.9365 697.53125L802.9365 698.53125L799.499 698.53125L799.0459 700.84375Q799.8115 700.2969 800.6553 700.2969Q801.7803 700.2969 802.5459 701.0781Q803.32715 701.8594 803.32715 703.09375Q803.32715 704.25 802.6553 705.1094Q801.82715 706.1406 800.4053 706.1406Q799.2334 706.1406 798.4834 705.4844Q797.749 704.8281 797.63965 703.75Z" fill-rule="nonzero"/><path fill="#000000" d="M887.27966 704.9844L887.27966 706.0L881.59216 706.0Q881.59216 705.625 881.71716 705.2656Q881.9359 704.6875 882.40466 704.125Q882.88904 703.5625 883.7953 702.8281Q885.20154 701.6719 885.6859 701.0Q886.1859 700.3281 886.1859 699.7344Q886.1859 699.1094 885.7328 698.6875Q885.27966 698.25 884.5609 698.25Q883.7953 698.25 883.34216 698.7031Q882.88904 699.15625 882.8734 699.96875L881.7953 699.8594Q881.90466 698.6406 882.6234 698.0156Q883.3578 697.375 884.59216 697.375Q885.82654 697.375 886.5453 698.0625Q887.26404 698.75 887.26404 699.7656Q887.26404 700.28125 887.0453 700.78125Q886.84216 701.2656 886.34216 701.8281Q885.8578 702.375 884.7328 703.3281Q883.77966 704.125 883.4984 704.4219Q883.2328 704.7031 883.0609 704.9844L887.27966 704.9844ZM894.20154 699.5156L893.15466 699.59375Q893.01404 698.96875 892.76404 698.6875Q892.32654 698.2344 891.70154 698.2344Q891.20154 698.2344 890.8109 698.5156Q890.32654 698.8906 890.02966 699.59375Q889.7484 700.28125 889.7328 701.5625Q890.1078 700.9844 890.65466 700.7031Q891.21716 700.4219 891.82654 700.4219Q892.8734 700.4219 893.6078 701.2031Q894.3578 701.9844 894.3578 703.2031Q894.3578 704.0156 893.9984 704.71875Q893.65466 705.40625 893.0453 705.78125Q892.4359 706.1406 891.6703 706.1406Q890.34216 706.1406 889.51404 705.1719Q888.6859 704.2031 888.6859 701.9844Q888.6859 699.4844 889.6078 698.3594Q890.40466 697.375 891.76404 697.375Q892.77966 697.375 893.4203 697.9531Q894.07654 698.5156 894.20154 699.5156ZM889.90466 703.21875Q889.90466 703.7656 890.1234 704.2656Q890.3578 704.75 890.76404 705.0156Q891.1859 705.28125 891.65466 705.28125Q892.3109 705.28125 892.7953 704.75Q893.27966 704.2031 893.27966 703.28125Q893.27966 702.3906 892.7953 701.875Q892.32654 701.3594 891.6078 701.3594Q890.88904 701.3594 890.38904 701.875Q889.90466 702.3906 889.90466 703.21875Z" fill-rule="nonzero"/><path fill="#000000" d="M978.3728 704.9844L978.3728 706.0L972.6853 706.0Q972.6853 705.625 972.8103 705.2656Q973.02905 704.6875 973.4978 704.125Q973.9822 703.5625 974.8884 702.8281Q976.2947 701.6719 976.77905 701.0Q977.27905 700.3281 977.27905 699.7344Q977.27905 699.1094 976.8259 698.6875Q976.3728 698.25 975.65405 698.25Q974.8884 698.25 974.4353 698.7031Q973.9822 699.15625 973.96655 699.96875L972.8884 699.8594Q972.9978 698.6406 973.71655 698.0156Q974.4509 697.375 975.6853 697.375Q976.9197 697.375 977.6384 698.0625Q978.3572 698.75 978.3572 699.7656Q978.3572 700.28125 978.1384 700.78125Q977.9353 701.2656 977.4353 701.8281Q976.9509 702.375 975.8259 703.3281Q974.8728 704.125 974.59155 704.4219Q974.3259 704.7031 974.15405 704.9844L978.3728 704.9844ZM979.8884 698.53125L979.8884 697.5156L985.4509 697.5156L985.4509 698.34375Q984.6384 699.21875 983.8259 700.6719Q983.02905 702.1094 982.59155 703.6406Q982.2634 704.71875 982.1853 706.0L981.09155 706.0Q981.1072 704.9844 981.4822 703.5469Q981.8728 702.1094 982.5759 700.78125Q983.2947 699.4531 984.1072 698.53125L979.8884 698.53125Z" fill-rule="nonzero"/><path fill="#000000" d="M1069.466 704.9844L1069.466 706.0L1063.7784 706.0Q1063.7784 705.625 1063.9034 705.2656Q1064.1222 704.6875 1064.591 704.125Q1065.0753 703.5625 1065.9816 702.8281Q1067.3878 701.6719 1067.8722 701.0Q1068.3722 700.3281 1068.3722 699.7344Q1068.3722 699.1094 1067.9191 698.6875Q1067.466 698.25 1066.7472 698.25Q1065.9816 698.25 1065.5284 698.7031Q1065.0753 699.15625 1065.0597 699.96875L1063.9816 699.8594Q1064.091 698.6406 1064.8097 698.0156Q1065.5441 697.375 1066.7784 697.375Q1068.0128 697.375 1068.7316 698.0625Q1069.4503 698.75 1069.4503 699.7656Q1069.4503 700.28125 1069.2316 700.78125Q1069.0284 701.2656 1068.5284 701.8281Q1068.0441 702.375 1066.9191 703.3281Q1065.966 704.125 1065.6847 704.4219Q1065.4191 704.7031 1065.2472 704.9844L1069.466 704.9844ZM1071.0753 704.0156L1072.091 703.9219Q1072.216 704.6406 1072.5753 704.96875Q1072.9503 705.28125 1073.5128 705.28125Q1073.9972 705.28125 1074.3566 705.0625Q1074.7316 704.8281 1074.966 704.46875Q1075.2003 704.09375 1075.3566 703.46875Q1075.5128 702.8281 1075.5128 702.1719Q1075.5128 702.09375 1075.5128 701.9531Q1075.2003 702.4531 1074.6534 702.78125Q1074.1066 703.09375 1073.466 703.09375Q1072.3878 703.09375 1071.6534 702.3281Q1070.9191 701.5469 1070.9191 700.28125Q1070.9191 698.96875 1071.6847 698.1719Q1072.466 697.375 1073.6222 697.375Q1074.4503 697.375 1075.1378 697.8281Q1075.841 698.28125 1076.2003 699.125Q1076.5597 699.9531 1076.5597 701.53125Q1076.5597 703.1719 1076.2003 704.15625Q1075.8566 705.125 1075.1378 705.6406Q1074.4347 706.1406 1073.4972 706.1406Q1072.4816 706.1406 1071.841 705.59375Q1071.2003 705.03125 1071.0753 704.0156ZM1075.3878 700.21875Q1075.3878 699.3125 1074.9034 698.78125Q1074.4347 698.25 1073.7472 698.25Q1073.0441 698.25 1072.5128 698.8281Q1071.9972 699.3906 1071.9972 700.3125Q1071.9972 701.125 1072.4972 701.6406Q1072.9972 702.15625 1073.716 702.15625Q1074.4503 702.15625 1074.9191 701.6406Q1075.3878 701.125 1075.3878 700.21875Z" fill-rule="nonzero"/><path fill="#000000" d="M1155.0121 703.7344L1156.0746 703.59375Q1156.2465 704.4844 1156.684 704.8906Q1157.1215 705.28125 1157.7465 705.28125Q1158.4965 705.28125 1159.0121 704.7656Q1159.5277 704.25 1159.5277 703.4844Q1159.5277 702.7656 1159.0433 702.2969Q1158.5746 701.8125 1157.8402 701.8125Q1157.5433 701.8125 1157.0902 701.9375L1157.2152 701.0Q1157.3246 701.0156 1157.3871 701.0156Q1158.059 701.0156 1158.5902 700.6719Q1159.1371 700.3125 1159.1371 699.5781Q1159.1371 699.0 1158.7465 698.625Q1158.3558 698.2344 1157.7308 698.2344Q1157.1215 698.2344 1156.6996 698.625Q1156.2933 699.0156 1156.184 699.78125L1155.1215 699.59375Q1155.309 698.5469 1155.9965 697.96875Q1156.684 697.375 1157.6996 697.375Q1158.4027 697.375 1158.9965 697.6875Q1159.5902 697.9844 1159.9027 698.5Q1160.2152 699.0156 1160.2152 699.6094Q1160.2152 700.15625 1159.9183 700.625Q1159.6215 701.0781 1159.0433 701.34375Q1159.7933 701.5156 1160.2152 702.0781Q1160.6371 702.625 1160.6371 703.46875Q1160.6371 704.59375 1159.809 705.375Q1158.9965 706.15625 1157.7465 706.15625Q1156.6215 706.15625 1155.8715 705.4844Q1155.1215 704.7969 1155.0121 703.7344ZM1162.0121 703.7344L1163.0746 703.59375Q1163.2465 704.4844 1163.684 704.8906Q1164.1215 705.28125 1164.7465 705.28125Q1165.4965 705.28125 1166.0121 704.7656Q1166.5277 704.25 1166.5277 703.4844Q1166.5277 702.7656 1166.0433 702.2969Q1165.5746 701.8125 1164.8402 701.8125Q1164.5433 701.8125 1164.0902 701.9375L1164.2152 701.0Q1164.3246 701.0156 1164.3871 701.0156Q1165.059 701.0156 1165.5902 700.6719Q1166.1371 700.3125 1166.1371 699.5781Q1166.1371 699.0 1165.7465 698.625Q1165.3558 698.2344 1164.7308 698.2344Q1164.1215 698.2344 1163.6996 698.625Q1163.2933 699.0156 1163.184 699.78125L1162.1215 699.59375Q1162.309 698.5469 1162.9965 697.96875Q1163.684 697.375 1164.6996 697.375Q1165.4027 697.375 1165.9965 697.6875Q1166.5902 697.9844 1166.9027 698.5Q1167.2152 699.0156 1167.2152 699.6094Q1167.2152 700.15625 1166.9183 700.625Q1166.6215 701.0781 1166.0433 701.34375Q1166.7933 701.5156 1167.2152 702.0781Q1167.6371 702.625 1167.6371 703.46875Q1167.6371 704.59375 1166.809 705.375Q1165.9965 706.15625 1164.7465 706.15625Q1163.6215 706.15625 1162.8715 705.4844Q1162.1215 704.7969 1162.0121 703.7344Z" fill-rule="nonzero"/><path fill="#757575" d="M50.765625 52.984375L52.65625 53.453125Q52.0625 55.796875 50.515625 57.03125Q48.96875 58.25 46.71875 58.25Q44.40625 58.25 42.953125 57.3125Q41.515625 56.359375 40.75 54.578125Q40.0 52.78125 40.0 50.734375Q40.0 48.5 40.84375 46.84375Q41.703125 45.171875 43.28125 44.3125Q44.859375 43.4375 46.75 43.4375Q48.90625 43.4375 50.359375 44.53125Q51.828125 45.625 52.40625 47.609375L50.546875 48.046875Q50.046875 46.484375 49.09375 45.78125Q48.15625 45.0625 46.71875 45.0625Q45.0625 45.0625 43.953125 45.859375Q42.84375 46.640625 42.390625 47.984375Q41.953125 49.3125 41.953125 50.71875Q41.953125 52.546875 42.484375 53.921875Q43.015625 55.28125 44.140625 55.953125Q45.265625 56.625 46.5625 56.625Q48.15625 56.625 49.265625 55.703125Q50.375 54.78125 50.765625 52.984375ZM61.421875 54.65625L63.234375 54.890625Q62.8125 56.46875 61.640625 57.359375Q60.484375 58.234375 58.671875 58.234375Q56.40625 58.234375 55.0625 56.84375Q53.734375 55.4375 53.734375 52.90625Q53.734375 50.28125 55.078125 48.84375Q56.421875 47.390625 58.578125 47.390625Q60.65625 47.390625 61.96875 48.8125Q63.296875 50.21875 63.296875 52.796875Q63.296875 52.953125 63.28125 53.265625L55.546875 53.265625Q55.640625 54.96875 56.515625 55.875Q57.390625 56.78125 58.6875 56.78125Q59.65625 56.78125 60.328125 56.28125Q61.015625 55.765625 61.421875 54.65625ZM55.640625 51.8125L61.4375 51.8125Q61.328125 50.515625 60.78125 49.859375Q59.9375 48.84375 58.59375 48.84375Q57.390625 48.84375 56.5625 49.65625Q55.734375 50.453125 55.640625 51.8125ZM74.203125 58.0L70.25 47.625L72.109375 47.625L74.34375 53.84375Q74.703125 54.84375 75.0 55.921875Q75.234375 55.109375 75.65625 53.953125L77.953125 47.625L79.765625 47.625L75.84375 58.0L74.203125 58.0ZM88.09375 56.71875Q87.109375 57.546875 86.203125 57.890625Q85.296875 58.234375 84.265625 58.234375Q82.5625 58.234375 81.640625 57.40625Q80.71875 56.5625 80.71875 55.265625Q80.71875 54.5 81.0625 53.875Q81.421875 53.25 81.984375 52.875Q82.546875 52.484375 83.25 52.28125Q83.765625 52.15625 84.8125 52.015625Q86.9375 51.765625 87.9375 51.421875Q87.953125 51.0625 87.953125 50.953125Q87.953125 49.890625 87.453125 49.4375Q86.78125 48.84375 85.453125 48.84375Q84.203125 48.84375 83.609375 49.28125Q83.03125 49.71875 82.75 50.828125L81.03125 50.59375Q81.265625 49.484375 81.796875 48.8125Q82.328125 48.125 83.34375 47.765625Q84.359375 47.390625 85.703125 47.390625Q87.03125 47.390625 87.859375 47.703125Q88.6875 48.015625 89.078125 48.5Q89.46875 48.96875 89.625 49.6875Q89.71875 50.140625 89.71875 51.3125L89.71875 53.65625Q89.71875 56.109375 89.828125 56.765625Q89.9375 57.40625 90.28125 58.0L88.4375 58.0Q88.171875 57.453125 88.09375 56.71875ZM87.9375 52.796875Q86.984375 53.1875 85.0625 53.453125Q83.984375 53.609375 83.53125 53.8125Q83.09375 54.0 82.84375 54.375Q82.59375 54.75 82.59375 55.21875Q82.59375 55.921875 83.125 56.390625Q83.65625 56.859375 84.6875 56.859375Q85.703125 56.859375 86.484375 56.421875Q87.28125 55.96875 87.65625 55.203125Q87.9375 54.59375 87.9375 53.4375L87.9375 52.796875ZM85.359375 44.671875L84.25 46.34375L82.25 46.34375L84.359375 43.609375L86.234375 43.609375L88.421875 46.34375L86.4375 46.34375L85.359375 44.671875ZM92.296875 58.0L92.296875 47.625L93.875 47.625L93.875 49.203125Q94.484375 48.09375 95.0 47.75Q95.515625 47.390625 96.125 47.390625Q97.015625 47.390625 97.9375 47.953125L97.328125 49.59375Q96.6875 49.203125 96.046875 49.203125Q95.46875 49.203125 95.0 49.5625Q94.546875 49.90625 94.34375 50.515625Q94.0625 51.453125 94.0625 52.5625L94.0625 58.0L92.296875 58.0ZM98.609375 54.90625L100.359375 54.625Q100.5 55.671875 101.171875 56.234375Q101.84375 56.78125 103.046875 56.78125Q104.25 56.78125 104.828125 56.296875Q105.421875 55.796875 105.421875 55.140625Q105.421875 54.546875 104.90625 54.203125Q104.546875 53.96875 103.109375 53.609375Q101.171875 53.109375 100.421875 52.765625Q99.6875 52.40625 99.296875 51.78125Q98.90625 51.140625 98.90625 50.375Q98.90625 49.6875 99.21875 49.09375Q99.546875 48.5 100.09375 48.109375Q100.5 47.8125 101.203125 47.609375Q101.921875 47.390625 102.734375 47.390625Q103.953125 47.390625 104.875 47.75Q105.796875 48.09375 106.234375 48.703125Q106.671875 49.296875 106.84375 50.296875L105.125 50.53125Q105.0 49.734375 104.4375 49.296875Q103.875 48.84375 102.859375 48.84375Q101.640625 48.84375 101.125 49.25Q100.609375 49.640625 100.609375 50.171875Q100.609375 50.515625 100.828125 50.796875Q101.03125 51.078125 101.5 51.265625Q101.765625 51.359375 103.046875 51.703125Q104.921875 52.203125 105.65625 52.53125Q106.390625 52.84375 106.8125 53.453125Q107.234375 54.046875 107.234375 54.953125Q107.234375 55.828125 106.71875 56.609375Q106.203125 57.390625 105.234375 57.8125Q104.265625 58.234375 103.046875 58.234375Q101.03125 58.234375 99.96875 57.390625Q98.90625 56.546875 98.609375 54.90625ZM113.15625 56.421875L113.40625 57.984375Q112.671875 58.140625 112.078125 58.140625Q111.125 58.140625 110.59375 57.84375Q110.078125 57.53125 109.859375 57.046875Q109.640625 56.546875 109.640625 54.96875L109.640625 49.0L108.359375 49.0L108.359375 47.625L109.640625 47.625L109.640625 45.0625L111.390625 44.0L111.390625 47.625L113.15625 47.625L113.15625 49.0L111.390625 49.0L111.390625 55.0625Q111.390625 55.8125 111.484375 56.03125Q111.578125 56.234375 111.78125 56.375Q112.0 56.5 112.390625 56.5Q112.671875 56.5 113.15625 56.421875ZM122.09375 56.71875Q121.109375 57.546875 120.203125 57.890625Q119.296875 58.234375 118.265625 58.234375Q116.5625 58.234375 115.640625 57.40625Q114.71875 56.5625 114.71875 55.265625Q114.71875 54.5 115.0625 53.875Q115.421875 53.25 115.984375 52.875Q116.546875 52.484375 117.25 52.28125Q117.765625 52.15625 118.8125 52.015625Q120.9375 51.765625 121.9375 51.421875Q121.953125 51.0625 121.953125 50.953125Q121.953125 49.890625 121.453125 49.4375Q120.78125 48.84375 119.453125 48.84375Q118.203125 48.84375 117.609375 49.28125Q117.03125 49.71875 116.75 50.828125L115.03125 50.59375Q115.265625 49.484375 115.796875 48.8125Q116.328125 48.125 117.34375 47.765625Q118.359375 47.390625 119.703125 47.390625Q121.03125 47.390625 121.859375 47.703125Q122.6875 48.015625 123.078125 48.5Q123.46875 48.96875 123.625 49.6875Q123.71875 50.140625 123.71875 51.3125L123.71875 53.65625Q123.71875 56.109375 123.828125 56.765625Q123.9375 57.40625 124.28125 58.0L122.4375 58.0Q122.171875 57.453125 122.09375 56.71875ZM121.9375 52.796875Q120.984375 53.1875 119.0625 53.453125Q117.984375 53.609375 117.53125 53.8125Q117.09375 54.0 116.84375 54.375Q116.59375 54.75 116.59375 55.21875Q116.59375 55.921875 117.125 56.390625Q117.65625 56.859375 118.6875 56.859375Q119.703125 56.859375 120.484375 56.421875Q121.28125 55.96875 121.65625 55.203125Q121.9375 54.59375 121.9375 53.4375L121.9375 52.796875ZM121.015625 43.703125L122.21875 43.703125Q122.078125 44.921875 121.328125 45.578125Q120.578125 46.234375 119.34375 46.234375Q118.09375 46.234375 117.34375 45.59375Q116.59375 44.9375 116.453125 43.703125L117.65625 43.703125Q117.78125 44.359375 118.1875 44.6875Q118.59375 45.015625 119.28125 45.015625Q120.078125 45.015625 120.484375 44.703125Q120.890625 44.390625 121.015625 43.703125ZM139.09375 56.71875Q138.10938 57.546875 137.20312 57.890625Q136.29688 58.234375 135.26562 58.234375Q133.5625 58.234375 132.64062 57.40625Q131.71875 56.5625 131.71875 55.265625Q131.71875 54.5 132.0625 53.875Q132.42188 53.25 132.98438 52.875Q133.54688 52.484375 134.25 52.28125Q134.76562 52.15625 135.8125 52.015625Q137.9375 51.765625 138.9375 51.421875Q138.95312 51.0625 138.95312 50.953125Q138.95312 49.890625 138.45312 49.4375Q137.78125 48.84375 136.45312 48.84375Q135.20312 48.84375 134.60938 49.28125Q134.03125 49.71875 133.75 50.828125L132.03125 50.59375Q132.26562 49.484375 132.79688 48.8125Q133.32812 48.125 134.34375 47.765625Q135.35938 47.390625 136.70312 47.390625Q138.03125 47.390625 138.85938 47.703125Q139.6875 48.015625 140.07812 48.5Q140.46875 48.96875 140.625 49.6875Q140.71875 50.140625 140.71875 51.3125L140.71875 53.65625Q140.71875 56.109375 140.82812 56.765625Q140.9375 57.40625 141.28125 58.0L139.4375 58.0Q139.17188 57.453125 139.09375 56.71875ZM138.9375 52.796875Q137.98438 53.1875 136.0625 53.453125Q134.98438 53.609375 134.53125 53.8125Q134.09375 54.0 133.84375 54.375Q133.59375 54.75 133.59375 55.21875Q133.59375 55.921875 134.125 56.390625Q134.65625 56.859375 135.6875 56.859375Q136.70312 56.859375 137.48438 56.421875Q138.28125 55.96875 138.65625 55.203125Q138.9375 54.59375 138.9375 53.4375L138.9375 52.796875ZM146.20312 58.0L142.25 47.625L144.10938 47.625L146.34375 53.84375Q146.70312 54.84375 147.0 55.921875Q147.23438 55.109375 147.65625 53.953125L149.95312 47.625L151.76562 47.625L147.84375 58.0L146.20312 58.0ZM160.42188 54.65625L162.23438 54.890625Q161.8125 56.46875 160.64062 57.359375Q159.48438 58.234375 157.67188 58.234375Q155.40625 58.234375 154.0625 56.84375Q152.73438 55.4375 152.73438 52.90625Q152.73438 50.28125 154.07812 48.84375Q155.42188 47.390625 157.57812 47.390625Q159.65625 47.390625 160.96875 48.8125Q162.29688 50.21875 162.29688 52.796875Q162.29688 52.953125 162.28125 53.265625L154.54688 53.265625Q154.64062 54.96875 155.51562 55.875Q156.39062 56.78125 157.6875 56.78125Q158.65625 56.78125 159.32812 56.28125Q160.01562 55.765625 160.42188 54.65625ZM154.64062 51.8125L160.4375 51.8125Q160.32812 50.515625 159.78125 49.859375Q158.9375 48.84375 157.59375 48.84375Q156.39062 48.84375 155.5625 49.65625Q154.73438 50.453125 154.64062 51.8125ZM168.15625 56.421875L168.40625 57.984375Q167.67188 58.140625 167.07812 58.140625Q166.125 58.140625 165.59375 57.84375Q165.07812 57.53125 164.85938 57.046875Q164.64062 56.546875 164.64062 54.96875L164.64062 49.0L163.35938 49.0L163.35938 47.625L164.64062 47.625L164.64062 45.0625L166.39062 44.0L166.39062 47.625L168.15625 47.625L168.15625 49.0L166.39062 49.0L166.39062 55.0625Q166.39062 55.8125 166.48438 56.03125Q166.57812 56.234375 166.78125 56.375Q167.0 56.5 167.39062 56.5Q167.67188 56.5 168.15625 56.421875ZM165.6875 60.984375L165.6875 59.1875L167.5 59.1875L167.5 60.984375Q167.5 61.65625 167.14062 62.25Q166.78125 62.859375 166.01562 63.203125L165.59375 62.515625Q166.51562 62.109375 166.57812 60.984375L165.6875 60.984375ZM170.32812 45.703125L170.32812 43.6875L172.09375 43.6875L172.09375 45.703125L170.32812 45.703125ZM170.32812 58.0L170.32812 47.625L172.09375 47.625L172.09375 58.0L170.32812 58.0ZM177.60938 54.46875Q177.59375 54.125 177.59375 53.953125Q177.59375 52.90625 177.89062 52.15625Q178.10938 51.59375 178.59375 51.015625Q178.9375 50.59375 179.84375 49.796875Q180.76562 48.984375 181.03125 48.515625Q181.3125 48.03125 181.3125 47.46875Q181.3125 46.4375 180.5 45.671875Q179.70312 44.890625 178.54688 44.890625Q177.42188 44.890625 176.67188 45.59375Q175.92188 46.296875 175.6875 47.78125L173.875 47.5625Q174.125 45.5625 175.32812 44.5Q176.53125 43.4375 178.51562 43.4375Q180.625 43.4375 181.875 44.578125Q183.125 45.71875 183.125 47.34375Q183.125 48.28125 182.67188 49.078125Q182.23438 49.859375 180.95312 51.0Q180.09375 51.765625 179.82812 52.125Q179.57812 52.484375 179.4375 52.953125Q179.3125 53.421875 179.29688 54.46875L177.60938 54.46875ZM177.5 58.0L177.5 56.0L179.5 56.0L179.5 58.0L177.5 58.0Z" fill-rule="nonzero"/></svg>