<svg version="1.1" viewBox="0.0 0.0 1262.0 780.0" fill="none" stroke="none" stroke-linecap="square" stroke-miterlimit="10" width="1262" height="780" xmlns:xlink="http://www.w3.org/1999/xlink" xmlns="http://www.w3.org/2000/svg"><path fill="#ffffff" d="M0 0L1262.0 0L1262.0 780.0L0 780.0L0 0Z" fill-rule="nonzero"/><path fill="#ea4335" d="M320.0245 512.8276C288.87106 413.7967 306.7475 305.8489 368.16183 222.14746C429.5762 138.44601 527.1845 89.0 631.0 89.0L631.0 415.0Z" fill-rule="nonzero"/><path fill="#4285f4" d="M631.0 89.0C798.24274 89.0 938.3575 215.55695 955.3191 381.93738C972.2807 548.3178 860.5866 700.54535 696.7843 734.29364C532.982 768.04193 370.2115 672.36255 320.0245 512.8276L631.0 415.0Z" fill-rule="nonzero"/><path fill="#1a1a1a" d="M46.0625 224.27446L47.1875 224.57133Q46.828125 225.96196 45.90625 226.69633Q44.984375 227.43071 43.640625 227.43071Q42.25 227.43071 41.375 226.86821Q40.5 226.30571 40.046875 225.24321Q39.59375 224.16508 39.59375 222.93071Q39.59375 221.58696 40.109375 220.58696Q40.625 219.58696 41.5625 219.07133Q42.515625 218.55571 43.65625 218.55571Q44.9375 218.55571 45.8125 219.21196Q46.703125 219.86821 47.046875 221.05571L45.921875 221.32133Q45.625 220.38383 45.046875 219.96196Q44.484375 219.52446 43.625 219.52446Q42.640625 219.52446 41.96875 220.00883Q41.3125 220.47758 41.03125 221.27446Q40.765625 222.07133 40.765625 222.93071Q40.765625 224.02446 41.078125 224.83696Q41.40625 225.64946 42.078125 226.05571Q42.75 226.46196 43.546875 226.46196Q44.5 226.46196 45.15625 225.91508Q45.828125 225.36821 46.0625 224.27446ZM52.875 227.29008L52.875 226.36821Q52.140625 227.43071 50.890625 227.43071Q50.34375 227.43071 49.859375 227.22758Q49.390625 227.00883 49.15625 226.69633Q48.921875 226.36821 48.828125 225.89946Q48.765625 225.60258 48.765625 224.91508L48.765625 221.07133L49.828125 221.07133L49.828125 224.52446Q49.828125 225.33696 49.890625 225.63383Q49.984375 226.04008 50.296875 226.29008Q50.625 226.52446 51.109375 226.52446Q51.578125 226.52446 51.984375 226.29008Q52.40625 226.04008 52.578125 225.61821Q52.765625 225.19633 52.765625 224.39946L52.765625 221.07133L53.8125 221.07133L53.8125 227.29008L52.875 227.29008ZM55.796875 227.29008L55.796875 221.07133L56.734375 221.07133L56.734375 221.94633Q57.03125 221.47758 57.515625 221.21196Q58.0 220.93071 58.625 220.93071Q59.3125 220.93071 59.75 221.21196Q60.203125 221.49321 60.375 222.00883Q61.125 220.93071 62.296875 220.93071Q63.234375 220.93071 63.71875 221.44633Q64.21875 221.94633 64.21875 223.02446L64.21875 227.29008L63.171875 227.29008L63.171875 223.36821Q63.171875 222.74321 63.0625 222.46196Q62.96875 222.18071 62.703125 222.00883Q62.4375 221.83696 62.0625 221.83696Q61.40625 221.83696 60.96875 222.27446Q60.546875 222.71196 60.546875 223.68071L60.546875 227.29008L59.484375 227.29008L59.484375 223.24321Q59.484375 222.54008 59.21875 222.19633Q58.96875 221.83696 58.390625 221.83696Q57.9375 221.83696 57.5625 222.07133Q57.1875 222.30571 57.015625 222.75883Q56.84375 223.21196 56.84375 224.05571L56.84375 227.29008L55.796875 227.29008ZM65.796875 229.68071L65.796875 221.07133L66.75 221.07133L66.75 221.86821Q67.09375 221.39946 67.515625 221.16508Q67.953125 220.93071 68.5625 220.93071Q69.359375 220.93071 69.96875 221.33696Q70.578125 221.74321 70.875 222.49321Q71.1875 223.24321 71.1875 224.13383Q71.1875 225.08696 70.84375 225.85258Q70.515625 226.61821 69.859375 227.02446Q69.203125 227.43071 68.484375 227.43071Q67.953125 227.43071 67.53125 227.21196Q67.109375 226.97758 66.84375 226.64946L66.84375 229.68071L65.796875 229.68071ZM66.75 224.21196Q66.75 225.41508 67.234375 225.99321Q67.71875 226.55571 68.40625 226.55571Q69.109375 226.55571 69.609375 225.96196Q70.109375 225.36821 70.109375 224.11821Q70.109375 222.93071 69.625 222.35258Q69.140625 221.75883 68.453125 221.75883Q67.78125 221.75883 67.265625 222.38383Q66.75 223.00883 66.75 224.21196ZM76.859375 226.52446Q76.265625 227.02446 75.71875 227.22758Q75.1875 227.43071 74.5625 227.43071Q73.53125 227.43071 72.984375 226.93071Q72.4375 226.43071 72.4375 225.64946Q72.4375 225.19633 72.640625 224.82133Q72.84375 224.43071 73.1875 224.21196Q73.53125 223.97758 73.953125 223.86821Q74.25 223.77446 74.890625 223.69633Q76.15625 223.55571 76.765625 223.33696Q76.765625 223.11821 76.765625 223.07133Q76.765625 222.41508 76.46875 222.14946Q76.0625 221.80571 75.265625 221.80571Q74.53125 221.80571 74.171875 222.07133Q73.8125 222.32133 73.640625 222.97758L72.609375 222.83696Q72.75 222.18071 73.078125 221.77446Q73.40625 221.36821 74.015625 221.14946Q74.625 220.93071 75.421875 220.93071Q76.21875 220.93071 76.71875 221.11821Q77.21875 221.30571 77.453125 221.58696Q77.6875 221.86821 77.78125 222.30571Q77.828125 222.57133 77.828125 223.27446L77.828125 224.68071Q77.828125 226.14946 77.890625 226.54008Q77.96875 226.93071 78.171875 227.29008L77.0625 227.29008Q76.90625 226.96196 76.859375 226.52446ZM76.765625 224.16508Q76.1875 224.39946 75.046875 224.57133Q74.390625 224.66508 74.125 224.79008Q73.859375 224.89946 73.703125 225.11821Q73.5625 225.33696 73.5625 225.61821Q73.5625 226.04008 73.875 226.32133Q74.203125 226.60258 74.8125 226.60258Q75.421875 226.60258 75.890625 226.33696Q76.375 226.07133 76.59375 225.60258Q76.765625 225.24321 76.765625 224.55571L76.765625 224.16508ZM76.015625 218.71196L76.734375 218.71196Q76.640625 219.44633 76.1875 219.83696Q75.75 220.22758 75.0 220.22758Q74.25 220.22758 73.796875 219.83696Q73.359375 219.44633 73.265625 218.71196L73.984375 218.71196Q74.078125 219.10258 74.3125 219.30571Q74.5625 219.50883 74.96875 219.50883Q75.4375 219.50883 75.6875 219.32133Q75.9375 219.11821 76.015625 218.71196ZM79.78125 227.29008L79.78125 221.07133L80.734375 221.07133L80.734375 222.00883Q81.09375 221.35258 81.390625 221.14946Q81.703125 220.93071 82.078125 220.93071Q82.609375 220.93071 83.15625 221.25883L82.796875 222.24321Q82.40625 222.00883 82.03125 222.00883Q81.671875 222.00883 81.390625 222.22758Q81.125 222.43071 81.015625 222.80571Q80.828125 223.36821 80.828125 224.02446L80.828125 227.29008L79.78125 227.29008ZM87.859375 226.52446Q87.265625 227.02446 86.71875 227.22758Q86.1875 227.43071 85.5625 227.43071Q84.53125 227.43071 83.984375 226.93071Q83.4375 226.43071 83.4375 225.64946Q83.4375 225.19633 83.640625 224.82133Q83.84375 224.43071 84.1875 224.21196Q84.53125 223.97758 84.953125 223.86821Q85.25 223.77446 85.890625 223.69633Q87.15625 223.55571 87.765625 223.33696Q87.765625 223.11821 87.765625 223.07133Q87.765625 222.41508 87.46875 222.14946Q87.0625 221.80571 86.265625 221.80571Q85.53125 221.80571 85.171875 222.07133Q84.8125 222.32133 84.640625 222.97758L83.609375 222.83696Q83.75 222.18071 84.078125 221.77446Q84.40625 221.36821 85.015625 221.14946Q85.625 220.93071 86.421875 220.93071Q87.21875 220.93071 87.71875 221.11821Q88.21875 221.30571 88.453125 221.58696Q88.6875 221.86821 88.78125 222.30571Q88.828125 222.57133 88.828125 223.27446L88.828125 224.68071Q88.828125 226.14946 88.890625 226.54008Q88.96875 226.93071 89.171875 227.29008L88.0625 227.29008Q87.90625 226.96196 87.859375 226.52446ZM87.765625 224.16508Q87.1875 224.39946 86.046875 224.57133Q85.390625 224.66508 85.125 224.79008Q84.859375 224.89946 84.703125 225.11821Q84.5625 225.33696 84.5625 225.61821Q84.5625 226.04008 84.875 226.32133Q85.203125 226.60258 85.8125 226.60258Q86.421875 226.60258 86.890625 226.33696Q87.375 226.07133 87.59375 225.60258Q87.765625 225.24321 87.765625 224.55571L87.765625 224.16508ZM93.09375 226.35258L93.25 227.27446Q92.796875 227.36821 92.453125 227.36821Q91.875 227.36821 91.5625 227.19633Q91.25 227.00883 91.109375 226.71196Q90.984375 226.41508 90.984375 225.46196L90.984375 221.88383L90.21875 221.88383L90.21875 221.07133L90.984375 221.07133L90.984375 219.52446L92.03125 218.89946L92.03125 221.07133L93.09375 221.07133L93.09375 221.88383L92.03125 221.88383L92.03125 225.52446Q92.03125 225.97758 92.078125 226.10258Q92.140625 226.22758 92.265625 226.30571Q92.390625 226.38383 92.625 226.38383Q92.8125 226.38383 93.09375 226.35258Z" fill-rule="nonzero"/><path fill="#9e9e9e" d="M45.046875 243.27446L45.046875 244.29008L39.359375 244.29008Q39.359375 243.91508 39.484375 243.55571Q39.703125 242.97758 40.171875 242.41508Q40.65625 241.85258 41.5625 241.11821Q42.96875 239.96196 43.453125 239.29008Q43.953125 238.61821 43.953125 238.02446Q43.953125 237.39946 43.5 236.97758Q43.046875 236.54008 42.328125 236.54008Q41.5625 236.54008 41.109375 236.99321Q40.65625 237.44633 40.640625 238.25883L39.5625 238.14946Q39.671875 236.93071 40.390625 236.30571Q41.125 235.66508 42.359375 235.66508Q43.59375 235.66508 44.3125 236.35258Q45.03125 237.04008 45.03125 238.05571Q45.03125 238.57133 44.8125 239.07133Q44.609375 239.55571 44.109375 240.11821Q43.625 240.66508 42.5 241.61821Q41.546875 242.41508 41.265625 242.71196Q41.0 242.99321 40.828125 243.27446L45.046875 243.27446ZM46.65625 242.30571L47.671875 242.21196Q47.796875 242.93071 48.15625 243.25883Q48.53125 243.57133 49.09375 243.57133Q49.578125 243.57133 49.9375 243.35258Q50.3125 243.11821 50.546875 242.75883Q50.78125 242.38383 50.9375 241.75883Q51.09375 241.11821 51.09375 240.46196Q51.09375 240.38383 51.09375 240.24321Q50.78125 240.74321 50.234375 241.07133Q49.6875 241.38383 49.046875 241.38383Q47.96875 241.38383 47.234375 240.61821Q46.5 239.83696 46.5 238.57133Q46.5 237.25883 47.265625 236.46196Q48.046875 235.66508 49.203125 235.66508Q50.03125 235.66508 50.71875 236.11821Q51.421875 236.57133 51.78125 237.41508Q52.140625 238.24321 52.140625 239.82133Q52.140625 241.46196 51.78125 242.44633Q51.4375 243.41508 50.71875 243.93071Q50.015625 244.43071 49.078125 244.43071Q48.0625 244.43071 47.421875 243.88383Q46.78125 243.32133 46.65625 242.30571ZM50.96875 238.50883Q50.96875 237.60258 50.484375 237.07133Q50.015625 236.54008 49.328125 236.54008Q48.625 236.54008 48.09375 237.11821Q47.578125 237.68071 47.578125 238.60258Q47.578125 239.41508 48.078125 239.93071Q48.578125 240.44633 49.296875 240.44633Q50.03125 240.44633 50.5 239.93071Q50.96875 239.41508 50.96875 238.50883ZM54.09375 244.29008L54.09375 243.08696L55.296875 243.08696L55.296875 244.29008L54.09375 244.29008ZM56.65625 242.30571L57.671875 242.21196Q57.796875 242.93071 58.15625 243.25883Q58.53125 243.57133 59.09375 243.57133Q59.578125 243.57133 59.9375 243.35258Q60.3125 243.11821 60.546875 242.75883Q60.78125 242.38383 60.9375 241.75883Q61.09375 241.11821 61.09375 240.46196Q61.09375 240.38383 61.09375 240.24321Q60.78125 240.74321 60.234375 241.07133Q59.6875 241.38383 59.046875 241.38383Q57.96875 241.38383 57.234375 240.61821Q56.5 239.83696 56.5 238.57133Q56.5 237.25883 57.265625 236.46196Q58.046875 235.66508 59.203125 235.66508Q60.03125 235.66508 60.71875 236.11821Q61.421875 236.57133 61.78125 237.41508Q62.140625 238.24321 62.140625 239.82133Q62.140625 241.46196 61.78125 242.44633Q61.4375 243.41508 60.71875 243.93071Q60.015625 244.43071 59.078125 244.43071Q58.0625 244.43071 57.421875 243.88383Q56.78125 243.32133 56.65625 242.30571ZM60.96875 238.50883Q60.96875 237.60258 60.484375 237.07133Q60.015625 236.54008 59.328125 236.54008Q58.625 236.54008 58.09375 237.11821Q57.578125 237.68071 57.578125 238.60258Q57.578125 239.41508 58.078125 239.93071Q58.578125 240.44633 59.296875 240.44633Q60.03125 240.44633 60.5 239.93071Q60.96875 239.41508 60.96875 238.50883ZM63.703125 237.75883Q63.703125 236.83696 64.15625 236.19633Q64.625 235.55571 65.5 235.55571Q66.3125 235.55571 66.84375 236.13383Q67.375 236.71196 67.375 237.82133Q67.375 238.91508 66.828125 239.50883Q66.296875 240.08696 65.515625 240.08696Q64.734375 240.08696 64.21875 239.50883Q63.703125 238.93071 63.703125 237.75883ZM65.53125 236.27446Q65.140625 236.27446 64.875 236.61821Q64.625 236.96196 64.625 237.86821Q64.625 238.69633 64.875 239.04008Q65.140625 239.36821 65.53125 239.36821Q65.9375 239.36821 66.1875 239.02446Q66.453125 238.68071 66.453125 237.79008Q66.453125 236.94633 66.1875 236.61821Q65.921875 236.27446 65.53125 236.27446ZM65.53125 244.60258L70.234375 235.55571L71.09375 235.55571L66.40625 244.60258L65.53125 244.60258ZM69.25 242.27446Q69.25 241.35258 69.703125 240.71196Q70.171875 240.07133 71.0625 240.07133Q71.875 240.07133 72.40625 240.64946Q72.9375 241.21196 72.9375 242.33696Q72.9375 243.43071 72.390625 244.02446Q71.859375 244.60258 71.0625 244.60258Q70.296875 244.60258 69.765625 244.02446Q69.25 243.44633 69.25 242.27446ZM71.09375 240.79008Q70.6875 240.79008 70.421875 241.13383Q70.171875 241.47758 70.171875 242.38383Q70.171875 243.19633 70.4375 243.54008Q70.703125 243.88383 71.09375 243.88383Q71.484375 243.88383 71.75 243.54008Q72.015625 243.19633 72.015625 242.29008Q72.015625 241.46196 71.75 241.13383Q71.484375 240.79008 71.09375 240.79008Z" fill-rule="nonzero"/><path stroke="#757575" stroke-width="1.0" stroke-linecap="butt" d="M39.0 231.79008L299.0 231.79008L381.30374 231.79008" fill-rule="nonzero"/><path fill="#9e9e9e" d="M383.30374 231.79008C383.30374 230.68552 382.40833 229.79008 381.30374 229.79008C380.1992 229.79008 379.30374 230.68552 379.30374 231.79008C379.30374 232.89465 380.1992 233.79008 381.30374 233.79008C382.40833 233.79008 383.30374 232.89465 383.30374 231.79008" fill-rule="nonzero"/><path fill="#1a1a1a" d="M1180.9844 593.7099L1184.2812 585.11615L1185.5 585.11615L1189.0156 593.7099L1187.7344 593.7099L1186.7188 591.1005L1183.1406 591.1005L1182.1875 593.7099L1180.9844 593.7099ZM1183.4688 590.17865L1186.375 590.17865L1185.4844 587.80365Q1185.0625 586.7255 1184.875 586.0224Q1184.7031 586.8505 1184.4062 587.663L1183.4688 590.17865ZM1193.8281 593.7099L1193.8281 592.92865Q1193.2344 593.8505 1192.0938 593.8505Q1191.3438 593.8505 1190.7188 593.4443Q1190.0938 593.0224 1189.75 592.288Q1189.4062 591.55365 1189.4062 590.6005Q1189.4062 589.67865 1189.7188 588.913Q1190.0312 588.1474 1190.6562 587.7568Q1191.2812 587.3505 1192.0469 587.3505Q1192.6094 587.3505 1193.0469 587.5849Q1193.4844 587.8193 1193.7656 588.1943L1193.7656 585.11615L1194.8125 585.11615L1194.8125 593.7099L1193.8281 593.7099ZM1190.5 590.6005Q1190.5 591.80365 1191.0 592.3974Q1191.5 592.9755 1192.1875 592.9755Q1192.875 592.9755 1193.3594 592.413Q1193.8438 591.8505 1193.8438 590.6943Q1193.8438 589.413 1193.3438 588.8193Q1192.8594 588.2255 1192.1406 588.2255Q1191.4375 588.2255 1190.9688 588.80365Q1190.5 589.36615 1190.5 590.6005ZM1196.4062 590.6005Q1196.4062 588.86615 1197.3594 588.038Q1198.1562 587.3505 1199.3125 587.3505Q1200.5938 587.3505 1201.4062 588.1943Q1202.2344 589.0224 1202.2344 590.5068Q1202.2344 591.7099 1201.875 592.3974Q1201.5156 593.0849 1200.8125 593.4755Q1200.125 593.8505 1199.3125 593.8505Q1198.0156 593.8505 1197.2031 593.0224Q1196.4062 592.17865 1196.4062 590.6005ZM1197.4844 590.6005Q1197.4844 591.788 1198.0 592.3818Q1198.5312 592.9755 1199.3125 592.9755Q1200.1094 592.9755 1200.625 592.3818Q1201.1406 591.788 1201.1406 590.5693Q1201.1406 589.413 1200.6094 588.8193Q1200.0938 588.2255 1199.3125 588.2255Q1198.5312 588.2255 1198.0 588.8193Q1197.4844 589.3974 1197.4844 590.6005ZM1203.7969 596.1005L1203.7969 587.49115L1204.75 587.49115L1204.75 588.288Q1205.0938 587.8193 1205.5156 587.5849Q1205.9531 587.3505 1206.5625 587.3505Q1207.3594 587.3505 1207.9688 587.7568Q1208.5781 588.163 1208.875 588.913Q1209.1875 589.663 1209.1875 590.55365Q1209.1875 591.5068 1208.8438 592.2724Q1208.5156 593.038 1207.8594 593.4443Q1207.2031 593.8505 1206.4844 593.8505Q1205.9531 593.8505 1205.5312 593.6318Q1205.1094 593.3974 1204.8438 593.0693L1204.8438 596.1005L1203.7969 596.1005ZM1204.75 590.6318Q1204.75 591.8349 1205.2344 592.413Q1205.7188 592.9755 1206.4062 592.9755Q1207.1094 592.9755 1207.6094 592.3818Q1208.1094 591.788 1208.1094 590.538Q1208.1094 589.3505 1207.625 588.7724Q1207.1406 588.17865 1206.4531 588.17865Q1205.7812 588.17865 1205.2656 588.80365Q1204.75 589.42865 1204.75 590.6318ZM1213.0938 592.7724L1213.25 593.6943Q1212.7969 593.788 1212.4531 593.788Q1211.875 593.788 1211.5625 593.61615Q1211.25 593.42865 1211.1094 593.1318Q1210.9844 592.8349 1210.9844 591.8818L1210.9844 588.30365L1210.2188 588.30365L1210.2188 587.49115L1210.9844 587.49115L1210.9844 585.9443L1212.0312 585.3193L1212.0312 587.49115L1213.0938 587.49115L1213.0938 588.30365L1212.0312 588.30365L1212.0312 591.9443Q1212.0312 592.3974 1212.0781 592.5224Q1212.1406 592.6474 1212.2656 592.7255Q1212.3906 592.80365 1212.625 592.80365Q1212.8125 592.80365 1213.0938 592.7724ZM1217.8594 592.9443Q1217.2656 593.4443 1216.7188 593.6474Q1216.1875 593.8505 1215.5625 593.8505Q1214.5312 593.8505 1213.9844 593.3505Q1213.4375 592.8505 1213.4375 592.0693Q1213.4375 591.61615 1213.6406 591.24115Q1213.8438 590.8505 1214.1875 590.6318Q1214.5312 590.3974 1214.9531 590.288Q1215.25 590.1943 1215.8906 590.11615Q1217.1562 589.9755 1217.7656 589.7568Q1217.7656 589.538 1217.7656 589.49115Q1217.7656 588.8349 1217.4688 588.5693Q1217.0625 588.2255 1216.2656 588.2255Q1215.5312 588.2255 1215.1719 588.49115Q1214.8125 588.74115 1214.6406 589.3974L1213.6094 589.2568Q1213.75 588.6005 1214.0781 588.1943Q1214.4062 587.788 1215.0156 587.5693Q1215.625 587.3505 1216.4219 587.3505Q1217.2188 587.3505 1217.7188 587.538Q1218.2188 587.7255 1218.4531 588.0068Q1218.6875 588.288 1218.7812 588.7255Q1218.8281 588.99115 1218.8281 589.6943L1218.8281 591.1005Q1218.8281 592.5693 1218.8906 592.9599Q1218.9688 593.3505 1219.1719 593.7099L1218.0625 593.7099Q1217.9062 593.3818 1217.8594 592.9443ZM1217.7656 590.5849Q1217.1875 590.8193 1216.0469 590.99115Q1215.3906 591.0849 1215.125 591.2099Q1214.8594 591.3193 1214.7031 591.538Q1214.5625 591.7568 1214.5625 592.038Q1214.5625 592.4599 1214.875 592.74115Q1215.2031 593.0224 1215.8125 593.0224Q1216.4219 593.0224 1216.8906 592.7568Q1217.375 592.49115 1217.5938 592.0224Q1217.7656 591.663 1217.7656 590.9755L1217.7656 590.5849ZM1223.0938 592.7724L1223.25 593.6943Q1222.7969 593.788 1222.4531 593.788Q1221.875 593.788 1221.5625 593.61615Q1221.25 593.42865 1221.1094 593.1318Q1220.9844 592.8349 1220.9844 591.8818L1220.9844 588.30365L1220.2188 588.30365L1220.2188 587.49115L1220.9844 587.49115L1220.9844 585.9443L1222.0312 585.3193L1222.0312 587.49115L1223.0938 587.49115L1223.0938 588.30365L1222.0312 588.30365L1222.0312 591.9443Q1222.0312 592.3974 1222.0781 592.5224Q1222.1406 592.6474 1222.2656 592.7255Q1222.3906 592.80365 1222.625 592.80365Q1222.8125 592.80365 1223.0938 592.7724Z" fill-rule="nonzero"/><path fill="#9e9e9e" d="M1188.5625 603.24115L1188.5625 602.2255L1194.125 602.2255L1194.125 603.05365Q1193.3125 603.92865 1192.5 605.3818Q1191.7031 606.8193 1191.2656 608.3505Q1190.9375 609.42865 1190.8594 610.7099L1189.7656 610.7099Q1189.7812 609.6943 1190.1562 608.2568Q1190.5469 606.8193 1191.25 605.49115Q1191.9688 604.163 1192.7812 603.24115L1188.5625 603.24115ZM1195.5 606.4755Q1195.5 604.9443 1195.8125 604.0224Q1196.125 603.0849 1196.7344 602.5849Q1197.3594 602.0849 1198.2969 602.0849Q1198.9844 602.0849 1199.5 602.36615Q1200.0312 602.6474 1200.375 603.17865Q1200.7188 603.6943 1200.9062 604.4443Q1201.0938 605.1943 1201.0938 606.4755Q1201.0938 607.99115 1200.7812 608.913Q1200.4844 609.8349 1199.8594 610.3505Q1199.25 610.8505 1198.2969 610.8505Q1197.0625 610.8505 1196.3438 609.9599Q1195.5 608.8974 1195.5 606.4755ZM1196.5781 606.4755Q1196.5781 608.5849 1197.0781 609.288Q1197.5781 609.99115 1198.2969 609.99115Q1199.0312 609.99115 1199.5156 609.288Q1200.0156 608.5849 1200.0156 606.4755Q1200.0156 604.3505 1199.5156 603.663Q1199.0312 602.9599 1198.2812 602.9599Q1197.5625 602.9599 1197.125 603.5693Q1196.5781 604.3505 1196.5781 606.4755ZM1203.0938 610.7099L1203.0938 609.5068L1204.2969 609.5068L1204.2969 610.7099L1203.0938 610.7099ZM1209.4688 610.7099L1208.4219 610.7099L1208.4219 603.99115Q1208.0312 604.3505 1207.4062 604.7255Q1206.7969 605.0849 1206.3125 605.2568L1206.3125 604.24115Q1207.1875 603.8193 1207.8438 603.24115Q1208.5156 602.6474 1208.7969 602.0849L1209.4688 602.0849L1209.4688 610.7099ZM1212.7031 604.17865Q1212.7031 603.2568 1213.1562 602.61615Q1213.625 601.9755 1214.5 601.9755Q1215.3125 601.9755 1215.8438 602.55365Q1216.375 603.1318 1216.375 604.24115Q1216.375 605.3349 1215.8281 605.92865Q1215.2969 606.5068 1214.5156 606.5068Q1213.7344 606.5068 1213.2188 605.92865Q1212.7031 605.3505 1212.7031 604.17865ZM1214.5312 602.6943Q1214.1406 602.6943 1213.875 603.038Q1213.625 603.3818 1213.625 604.288Q1213.625 605.11615 1213.875 605.4599Q1214.1406 605.788 1214.5312 605.788Q1214.9375 605.788 1215.1875 605.4443Q1215.4531 605.1005 1215.4531 604.2099Q1215.4531 603.36615 1215.1875 603.038Q1214.9219 602.6943 1214.5312 602.6943ZM1214.5312 611.0224L1219.2344 601.9755L1220.0938 601.9755L1215.4062 611.0224L1214.5312 611.0224ZM1218.25 608.6943Q1218.25 607.7724 1218.7031 607.1318Q1219.1719 606.49115 1220.0625 606.49115Q1220.875 606.49115 1221.4062 607.0693Q1221.9375 607.6318 1221.9375 608.7568Q1221.9375 609.8505 1221.3906 610.4443Q1220.8594 611.0224 1220.0625 611.0224Q1219.2969 611.0224 1218.7656 610.4443Q1218.25 609.86615 1218.25 608.6943ZM1220.0938 607.2099Q1219.6875 607.2099 1219.4219 607.55365Q1219.1719 607.8974 1219.1719 608.80365Q1219.1719 609.61615 1219.4375 609.9599Q1219.7031 610.30365 1220.0938 610.30365Q1220.4844 610.30365 1220.75 609.9599Q1221.0156 609.61615 1221.0156 608.7099Q1221.0156 607.8818 1220.75 607.55365Q1220.4844 607.2099 1220.0938 607.2099Z" fill-rule="nonzero"/><path stroke="#757575" stroke-width="1.0" stroke-linecap="butt" d="M1223.0 598.2099L963.0 598.2099L880.6962 598.2099" fill-rule="nonzero"/><path fill="#9e9e9e" d="M882.6962 598.2099C882.6962 597.10535 881.80084 596.2099 880.6962 596.2099C879.5917 596.2099 878.6962 597.10535 878.6962 598.2099C878.6962 599.3145 879.5917 600.2099 880.6962 600.2099C881.80084 600.2099 882.6962 599.3145 882.6962 598.2099" fill-rule="nonzero"/><path fill="#757575" d="M50.765625 52.984375L52.65625 53.453125Q52.0625 55.796875 50.515625 57.03125Q48.96875 58.25 46.71875 58.25Q44.40625 58.25 42.953125 57.3125Q41.515625 56.359375 40.75 54.578125Q40.0 52.78125 40.0 50.734375Q40.0 48.5 40.84375 46.84375Q41.703125 45.171875 43.28125 44.3125Q44.859375 43.4375 46.75 43.4375Q48.90625 43.4375 50.359375 44.53125Q51.828125 45.625 52.40625 47.609375L50.546875 48.046875Q50.046875 46.484375 49.09375 45.78125Q48.15625 45.0625 46.71875 45.0625Q45.0625 45.0625 43.953125 45.859375Q42.84375 46.640625 42.390625 47.984375Q41.953125 49.3125 41.953125 50.71875Q41.953125 52.546875 42.484375 53.921875Q43.015625 55.28125 44.140625 55.953125Q45.265625 56.625 46.5625 56.625Q48.15625 56.625 49.265625 55.703125Q50.375 54.78125 50.765625 52.984375ZM61.109375 58.0L61.109375 56.46875Q59.90625 58.234375 57.828125 58.234375Q56.90625 58.234375 56.109375 57.890625Q55.3125 57.53125 54.921875 57.0Q54.546875 56.46875 54.390625 55.6875Q54.28125 55.171875 54.28125 54.046875L54.28125 47.625L56.03125 47.625L56.03125 53.375Q56.03125 54.75 56.140625 55.234375Q56.3125 55.921875 56.84375 56.328125Q57.390625 56.71875 58.171875 56.71875Q58.96875 56.71875 59.65625 56.3125Q60.359375 55.90625 60.640625 55.21875Q60.9375 54.515625 60.9375 53.1875L60.9375 47.625L62.6875 47.625L62.6875 58.0L61.109375 58.0ZM65.3125 58.0L65.3125 47.625L66.890625 47.625L66.890625 49.078125Q67.375 48.328125 68.1875 47.859375Q69.0 47.390625 70.03125 47.390625Q71.1875 47.390625 71.921875 47.875Q72.65625 48.34375 72.96875 49.203125Q74.203125 47.390625 76.171875 47.390625Q77.71875 47.390625 78.546875 48.25Q79.375 49.109375 79.375 50.875L79.375 58.0L77.625 58.0L77.625 51.46875Q77.625 50.40625 77.453125 49.953125Q77.28125 49.484375 76.828125 49.203125Q76.390625 48.921875 75.78125 48.921875Q74.6875 48.921875 73.953125 49.65625Q73.234375 50.375 73.234375 51.96875L73.234375 58.0L71.484375 58.0L71.484375 51.265625Q71.484375 50.09375 71.046875 49.515625Q70.625 48.921875 69.640625 48.921875Q68.90625 48.921875 68.265625 49.3125Q67.640625 49.703125 67.359375 50.453125Q67.078125 51.203125 67.078125 52.625L67.078125 58.0L65.3125 58.0ZM95.09375 56.71875Q94.109375 57.546875 93.203125 57.890625Q92.296875 58.234375 91.265625 58.234375Q89.5625 58.234375 88.640625 57.40625Q87.71875 56.5625 87.71875 55.265625Q87.71875 54.5 88.0625 53.875Q88.421875 53.25 88.984375 52.875Q89.546875 52.484375 90.25 52.28125Q90.765625 52.15625 91.8125 52.015625Q93.9375 51.765625 94.9375 51.421875Q94.953125 51.0625 94.953125 50.953125Q94.953125 49.890625 94.453125 49.4375Q93.78125 48.84375 92.453125 48.84375Q91.203125 48.84375 90.609375 49.28125Q90.03125 49.71875 89.75 50.828125L88.03125 50.59375Q88.265625 49.484375 88.796875 48.8125Q89.328125 48.125 90.34375 47.765625Q91.359375 47.390625 92.703125 47.390625Q94.03125 47.390625 94.859375 47.703125Q95.6875 48.015625 96.078125 48.5Q96.46875 48.96875 96.625 49.6875Q96.71875 50.140625 96.71875 51.3125L96.71875 53.65625Q96.71875 56.109375 96.828125 56.765625Q96.9375 57.40625 97.28125 58.0L95.4375 58.0Q95.171875 57.453125 95.09375 56.71875ZM94.9375 52.796875Q93.984375 53.1875 92.0625 53.453125Q90.984375 53.609375 90.53125 53.8125Q90.09375 54.0 89.84375 54.375Q89.59375 54.75 89.59375 55.21875Q89.59375 55.921875 90.125 56.390625Q90.65625 56.859375 91.6875 56.859375Q92.703125 56.859375 93.484375 56.421875Q94.28125 55.96875 94.65625 55.203125Q94.9375 54.59375 94.9375 53.4375L94.9375 52.796875ZM103.15625 56.421875L103.40625 57.984375Q102.671875 58.140625 102.078125 58.140625Q101.125 58.140625 100.59375 57.84375Q100.078125 57.53125 99.859375 57.046875Q99.640625 56.546875 99.640625 54.96875L99.640625 49.0L98.359375 49.0L98.359375 47.625L99.640625 47.625L99.640625 45.0625L101.390625 44.0L101.390625 47.625L103.15625 47.625L103.15625 49.0L101.390625 49.0L101.390625 55.0625Q101.390625 55.8125 101.484375 56.03125Q101.578125 56.234375 101.78125 56.375Q102.0 56.5 102.390625 56.5Q102.671875 56.5 103.15625 56.421875ZM100.6875 60.984375L100.6875 59.1875L102.5 59.1875L102.5 60.984375Q102.5 61.65625 102.140625 62.25Q101.78125 62.859375 101.015625 63.203125L100.59375 62.515625Q101.515625 62.109375 101.578125 60.984375L100.6875 60.984375ZM105.328125 45.703125L105.328125 43.6875L107.09375 43.6875L107.09375 45.703125L105.328125 45.703125ZM105.328125 58.0L105.328125 47.625L107.09375 47.625L107.09375 58.0L105.328125 58.0ZM122.09375 56.71875Q121.109375 57.546875 120.203125 57.890625Q119.296875 58.234375 118.265625 58.234375Q116.5625 58.234375 115.640625 57.40625Q114.71875 56.5625 114.71875 55.265625Q114.71875 54.5 115.0625 53.875Q115.421875 53.25 115.984375 52.875Q116.546875 52.484375 117.25 52.28125Q117.765625 52.15625 118.8125 52.015625Q120.9375 51.765625 121.9375 51.421875Q121.953125 51.0625 121.953125 50.953125Q121.953125 49.890625 121.453125 49.4375Q120.78125 48.84375 119.453125 48.84375Q118.203125 48.84375 117.609375 49.28125Q117.03125 49.71875 116.75 50.828125L115.03125 50.59375Q115.265625 49.484375 115.796875 48.8125Q116.328125 48.125 117.34375 47.765625Q118.359375 47.390625 119.703125 47.390625Q121.03125 47.390625 121.859375 47.703125Q122.6875 48.015625 123.078125 48.5Q123.46875 48.96875 123.625 49.6875Q123.71875 50.140625 123.71875 51.3125L123.71875 53.65625Q123.71875 56.109375 123.828125 56.765625Q123.9375 57.40625 124.28125 58.0L122.4375 58.0Q122.171875 57.453125 122.09375 56.71875ZM121.9375 52.796875Q120.984375 53.1875 119.0625 53.453125Q117.984375 53.609375 117.53125 53.8125Q117.09375 54.0 116.84375 54.375Q116.59375 54.75 116.59375 55.21875Q116.59375 55.921875 117.125 56.390625Q117.65625 56.859375 118.6875 56.859375Q119.703125 56.859375 120.484375 56.421875Q121.28125 55.96875 121.65625 55.203125Q121.9375 54.59375 121.9375 53.4375L121.9375 52.796875ZM126.3125 45.71875L126.3125 43.6875L128.0625 43.6875L128.0625 45.71875L126.3125 45.71875ZM124.078125 62.03125L124.40625 60.53125Q124.9375 60.671875 125.25 60.671875Q125.78125 60.671875 126.046875 60.3125Q126.3125 59.953125 126.3125 58.53125L126.3125 47.625L128.0625 47.625L128.0625 58.5625Q128.0625 60.484375 127.5625 61.234375Q126.9375 62.203125 125.453125 62.203125Q124.75 62.203125 124.078125 62.03125ZM137.10938 58.0L137.10938 56.46875Q135.90625 58.234375 133.82812 58.234375Q132.90625 58.234375 132.10938 57.890625Q131.3125 57.53125 130.92188 57.0Q130.54688 56.46875 130.39062 55.6875Q130.28125 55.171875 130.28125 54.046875L130.28125 47.625L132.03125 47.625L132.03125 53.375Q132.03125 54.75 132.14062 55.234375Q132.3125 55.921875 132.84375 56.328125Q133.39062 56.71875 134.17188 56.71875Q134.96875 56.71875 135.65625 56.3125Q136.35938 55.90625 136.64062 55.21875Q136.9375 54.515625 136.9375 53.1875L136.9375 47.625L138.6875 47.625L138.6875 58.0L137.10938 58.0ZM141.3125 58.0L141.3125 47.625L142.90625 47.625L142.90625 49.109375Q144.04688 47.390625 146.20312 47.390625Q147.14062 47.390625 147.92188 47.734375Q148.71875 48.0625 149.10938 48.609375Q149.5 49.15625 149.65625 49.90625Q149.75 50.40625 149.75 51.625L149.75 58.0L147.98438 58.0L147.98438 51.6875Q147.98438 50.609375 147.78125 50.078125Q147.57812 49.546875 147.04688 49.234375Q146.53125 48.921875 145.82812 48.921875Q144.70312 48.921875 143.89062 49.640625Q143.07812 50.34375 143.07812 52.328125L143.07812 58.0L141.3125 58.0ZM151.60938 54.90625L153.35938 54.625Q153.5 55.671875 154.17188 56.234375Q154.84375 56.78125 156.04688 56.78125Q157.25 56.78125 157.82812 56.296875Q158.42188 55.796875 158.42188 55.140625Q158.42188 54.546875 157.90625 54.203125Q157.54688 53.96875 156.10938 53.609375Q154.17188 53.109375 153.42188 52.765625Q152.6875 52.40625 152.29688 51.78125Q151.90625 51.140625 151.90625 50.375Q151.90625 49.6875 152.21875 49.09375Q152.54688 48.5 153.09375 48.109375Q153.5 47.8125 154.20312 47.609375Q154.92188 47.390625 155.73438 47.390625Q156.95312 47.390625 157.875 47.75Q158.79688 48.09375 159.23438 48.703125Q159.67188 49.296875 159.84375 50.296875L158.125 50.53125Q158.0 49.734375 157.4375 49.296875Q156.875 48.84375 155.85938 48.84375Q154.64062 48.84375 154.125 49.25Q153.60938 49.640625 153.60938 50.171875Q153.60938 50.515625 153.82812 50.796875Q154.03125 51.078125 154.5 51.265625Q154.76562 51.359375 156.04688 51.703125Q157.92188 52.203125 158.65625 52.53125Q159.39062 52.84375 159.8125 53.453125Q160.23438 54.046875 160.23438 54.953125Q160.23438 55.828125 159.71875 56.609375Q159.20312 57.390625 158.23438 57.8125Q157.26562 58.234375 156.04688 58.234375Q154.03125 58.234375 152.96875 57.390625Q151.90625 56.546875 151.60938 54.90625ZM168.9375 58.0L168.9375 47.625L170.6875 47.625L170.6875 58.0L168.9375 58.0ZM170.35938 44.671875L169.25 46.34375L167.25 46.34375L169.35938 43.609375L171.23438 43.609375L173.42188 46.34375L171.4375 46.34375L170.35938 44.671875ZM174.3125 58.0L174.3125 47.625L175.90625 47.625L175.90625 49.109375Q177.04688 47.390625 179.20312 47.390625Q180.14062 47.390625 180.92188 47.734375Q181.71875 48.0625 182.10938 48.609375Q182.5 49.15625 182.65625 49.90625Q182.75 50.40625 182.75 51.625L182.75 58.0L180.98438 58.0L180.98438 51.6875Q180.98438 50.609375 180.78125 50.078125Q180.57812 49.546875 180.04688 49.234375Q179.53125 48.921875 178.82812 48.921875Q177.70312 48.921875 176.89062 49.640625Q176.07812 50.34375 176.07812 52.328125L176.07812 58.0L174.3125 58.0ZM191.3125 61.96875L191.3125 47.625L192.92188 47.625L192.92188 48.96875Q193.48438 48.1875 194.1875 47.796875Q194.90625 47.390625 195.92188 47.390625Q197.25 47.390625 198.26562 48.078125Q199.28125 48.765625 199.79688 50.015625Q200.32812 51.25 200.32812 52.734375Q200.32812 54.328125 199.75 55.609375Q199.1875 56.875 198.09375 57.5625Q197.0 58.234375 195.79688 58.234375Q194.92188 58.234375 194.21875 57.859375Q193.53125 57.484375 193.07812 56.921875L193.07812 61.96875L191.3125 61.96875ZM192.90625 52.875Q192.90625 54.875 193.71875 55.828125Q194.53125 56.78125 195.6875 56.78125Q196.85938 56.78125 197.6875 55.796875Q198.53125 54.8125 198.53125 52.71875Q198.53125 50.75 197.70312 49.765625Q196.89062 48.765625 195.76562 48.765625Q194.64062 48.765625 193.76562 49.828125Q192.90625 50.875 192.90625 52.875ZM201.67188 52.8125Q201.67188 49.9375 203.26562 48.546875Q204.60938 47.390625 206.53125 47.390625Q208.67188 47.390625 210.01562 48.796875Q211.375 50.203125 211.375 52.671875Q211.375 54.671875 210.78125 55.828125Q210.1875 56.96875 209.03125 57.609375Q207.89062 58.234375 206.53125 58.234375Q204.34375 58.234375 203.0 56.84375Q201.67188 55.4375 201.67188 52.8125ZM203.46875 52.8125Q203.46875 54.8125 204.32812 55.796875Q205.20312 56.78125 206.53125 56.78125Q207.84375 56.78125 208.70312 55.796875Q209.57812 54.796875 209.57812 52.75Q209.57812 50.828125 208.70312 49.84375Q207.82812 48.84375 206.53125 48.84375Q205.20312 48.84375 204.32812 49.84375Q203.46875 50.828125 203.46875 52.8125ZM212.60938 54.90625L214.35938 54.625Q214.5 55.671875 215.17188 56.234375Q215.84375 56.78125 217.04688 56.78125Q218.25 56.78125 218.82812 56.296875Q219.42188 55.796875 219.42188 55.140625Q219.42188 54.546875 218.90625 54.203125Q218.54688 53.96875 217.10938 53.609375Q215.17188 53.109375 214.42188 52.765625Q213.6875 52.40625 213.29688 51.78125Q212.90625 51.140625 212.90625 50.375Q212.90625 49.6875 213.21875 49.09375Q213.54688 48.5 214.09375 48.109375Q214.5 47.8125 215.20312 47.609375Q215.92188 47.390625 216.73438 47.390625Q217.95312 47.390625 218.875 47.75Q219.79688 48.09375 220.23438 48.703125Q220.67188 49.296875 220.84375 50.296875L219.125 50.53125Q219.0 49.734375 218.4375 49.296875Q217.875 48.84375 216.85938 48.84375Q215.64062 48.84375 215.125 49.25Q214.60938 49.640625 214.60938 50.171875Q214.60938 50.515625 214.82812 50.796875Q215.03125 51.078125 215.5 51.265625Q215.76562 51.359375 217.04688 51.703125Q218.92188 52.203125 219.65625 52.53125Q220.39062 52.84375 220.8125 53.453125Q221.23438 54.046875 221.23438 54.953125Q221.23438 55.828125 220.71875 56.609375Q220.20312 57.390625 219.23438 57.8125Q218.26562 58.234375 217.04688 58.234375Q215.03125 58.234375 213.96875 57.390625Q212.90625 56.546875 212.60938 54.90625ZM230.42188 54.65625L232.23438 54.890625Q231.8125 56.46875 230.64062 57.359375Q229.48438 58.234375 227.67188 58.234375Q225.40625 58.234375 224.0625 56.84375Q222.73438 55.4375 222.73438 52.90625Q222.73438 50.28125 224.07812 48.84375Q225.42188 47.390625 227.57812 47.390625Q229.65625 47.390625 230.96875 48.8125Q232.29688 50.21875 232.29688 52.796875Q232.29688 52.953125 232.28125 53.265625L224.54688 53.265625Q224.64062 54.96875 225.51562 55.875Q226.39062 56.78125 227.6875 56.78125Q228.65625 56.78125 229.32812 56.28125Q230.01562 55.765625 230.42188 54.65625ZM224.64062 51.8125L230.4375 51.8125Q230.32812 50.515625 229.78125 49.859375Q228.9375 48.84375 227.59375 48.84375Q226.39062 48.84375 225.5625 49.65625Q224.73438 50.453125 224.64062 51.8125ZM233.60938 54.90625L235.35938 54.625Q235.5 55.671875 236.17188 56.234375Q236.84375 56.78125 238.04688 56.78125Q239.25 56.78125 239.82812 56.296875Q240.42188 55.796875 240.42188 55.140625Q240.42188 54.546875 239.90625 54.203125Q239.54688 53.96875 238.10938 53.609375Q236.17188 53.109375 235.42188 52.765625Q234.6875 52.40625 234.29688 51.78125Q233.90625 51.140625 233.90625 50.375Q233.90625 49.6875 234.21875 49.09375Q234.54688 48.5 235.09375 48.109375Q235.5 47.8125 236.20312 47.609375Q236.92188 47.390625 237.73438 47.390625Q238.95312 47.390625 239.875 47.75Q240.79688 48.09375 241.23438 48.703125Q241.67188 49.296875 241.84375 50.296875L240.125 50.53125Q240.0 49.734375 239.4375 49.296875Q238.875 48.84375 237.85938 48.84375Q236.64062 48.84375 236.125 49.25Q235.60938 49.640625 235.60938 50.171875Q235.60938 50.515625 235.82812 50.796875Q236.03125 51.078125 236.5 51.265625Q236.76562 51.359375 238.04688 51.703125Q239.92188 52.203125 240.65625 52.53125Q241.39062 52.84375 241.8125 53.453125Q242.23438 54.046875 242.23438 54.953125Q242.23438 55.828125 241.71875 56.609375Q241.20312 57.390625 240.23438 57.8125Q239.26562 58.234375 238.04688 58.234375Q236.03125 58.234375 234.96875 57.390625Q233.90625 56.546875 233.60938 54.90625ZM244.32812 45.703125L244.32812 43.6875L246.09375 43.6875L246.09375 45.703125L244.32812 45.703125ZM244.32812 58.0L244.32812 47.625L246.09375 47.625L246.09375 58.0L244.32812 58.0ZM255.09375 56.71875Q254.10938 57.546875 253.20312 57.890625Q252.29688 58.234375 251.26562 58.234375Q249.5625 58.234375 248.64062 57.40625Q247.71875 56.5625 247.71875 55.265625Q247.71875 54.5 248.0625 53.875Q248.42188 53.25 248.98438 52.875Q249.54688 52.484375 250.25 52.28125Q250.76562 52.15625 251.8125 52.015625Q253.9375 51.765625 254.9375 51.421875Q254.95312 51.0625 254.95312 50.953125Q254.95312 49.890625 254.45312 49.4375Q253.78125 48.84375 252.45312 48.84375Q251.20312 48.84375 250.60938 49.28125Q250.03125 49.71875 249.75 50.828125L248.03125 50.59375Q248.26562 49.484375 248.79688 48.8125Q249.32812 48.125 250.34375 47.765625Q251.35938 47.390625 252.70312 47.390625Q254.03125 47.390625 254.85938 47.703125Q255.6875 48.015625 256.07812 48.5Q256.46875 48.96875 256.625 49.6875Q256.71875 50.140625 256.71875 51.3125L256.71875 53.65625Q256.71875 56.109375 256.82812 56.765625Q256.9375 57.40625 257.28125 58.0L255.4375 58.0Q255.17188 57.453125 255.09375 56.71875ZM254.9375 52.796875Q253.98438 53.1875 252.0625 53.453125Q250.98438 53.609375 250.53125 53.8125Q250.09375 54.0 249.84375 54.375Q249.59375 54.75 249.59375 55.21875Q249.59375 55.921875 250.125 56.390625Q250.65625 56.859375 251.6875 56.859375Q252.70312 56.859375 253.48438 56.421875Q254.28125 55.96875 254.65625 55.203125Q254.9375 54.59375 254.9375 53.4375L254.9375 52.796875ZM272.09375 56.71875Q271.10938 57.546875 270.20312 57.890625Q269.29688 58.234375 268.26562 58.234375Q266.5625 58.234375 265.64062 57.40625Q264.71875 56.5625 264.71875 55.265625Q264.71875 54.5 265.0625 53.875Q265.42188 53.25 265.98438 52.875Q266.54688 52.484375 267.25 52.28125Q267.76562 52.15625 268.8125 52.015625Q270.9375 51.765625 271.9375 51.421875Q271.95312 51.0625 271.95312 50.953125Q271.95312 49.890625 271.45312 49.4375Q270.78125 48.84375 269.45312 48.84375Q268.20312 48.84375 267.60938 49.28125Q267.03125 49.71875 266.75 50.828125L265.03125 50.59375Q265.26562 49.484375 265.79688 48.8125Q266.32812 48.125 267.34375 47.765625Q268.35938 47.390625 269.70312 47.390625Q271.03125 47.390625 271.85938 47.703125Q272.6875 48.015625 273.07812 48.5Q273.46875 48.96875 273.625 49.6875Q273.71875 50.140625 273.71875 51.3125L273.71875 53.65625Q273.71875 56.109375 273.82812 56.765625Q273.9375 57.40625 274.28125 58.0L272.4375 58.0Q272.17188 57.453125 272.09375 56.71875ZM271.9375 52.796875Q270.98438 53.1875 269.0625 53.453125Q267.98438 53.609375 267.53125 53.8125Q267.09375 54.0 266.84375 54.375Q266.59375 54.75 266.59375 55.21875Q266.59375 55.921875 267.125 56.390625Q267.65625 56.859375 268.6875 56.859375Q269.70312 56.859375 270.48438 56.421875Q271.28125 55.96875 271.65625 55.203125Q271.9375 54.59375 271.9375 53.4375L271.9375 52.796875ZM276.3125 58.0L276.3125 47.625L277.90625 47.625L277.90625 49.109375Q279.04688 47.390625 281.20312 47.390625Q282.14062 47.390625 282.92188 47.734375Q283.71875 48.0625 284.10938 48.609375Q284.5 49.15625 284.65625 49.90625Q284.75 50.40625 284.75 51.625L284.75 58.0L282.98438 58.0L282.98438 51.6875Q282.98438 50.609375 282.78125 50.078125Q282.57812 49.546875 282.04688 49.234375Q281.53125 48.921875 280.82812 48.921875Q279.70312 48.921875 278.89062 49.640625Q278.07812 50.34375 278.07812 52.328125L278.07812 58.0L276.3125 58.0ZM287.32812 45.703125L287.32812 43.6875L289.09375 43.6875L289.09375 45.703125L287.32812 45.703125ZM287.32812 58.0L287.32812 47.625L289.09375 47.625L289.09375 58.0L287.32812 58.0ZM291.3125 58.0L291.3125 47.625L292.89062 47.625L292.89062 49.078125Q293.375 48.328125 294.1875 47.859375Q295.0 47.390625 296.03125 47.390625Q297.1875 47.390625 297.92188 47.875Q298.65625 48.34375 298.96875 49.203125Q300.20312 47.390625 302.17188 47.390625Q303.71875 47.390625 304.54688 48.25Q305.375 49.109375 305.375 50.875L305.375 58.0L303.625 58.0L303.625 51.46875Q303.625 50.40625 303.45312 49.953125Q303.28125 49.484375 302.82812 49.203125Q302.39062 48.921875 301.78125 48.921875Q300.6875 48.921875 299.95312 49.65625Q299.23438 50.375 299.23438 51.96875L299.23438 58.0L297.48438 58.0L297.48438 51.265625Q297.48438 50.09375 297.04688 49.515625Q296.625 48.921875 295.64062 48.921875Q294.90625 48.921875 294.26562 49.3125Q293.64062 49.703125 293.35938 50.453125Q293.07812 51.203125 293.07812 52.625L293.07812 58.0L291.3125 58.0ZM315.09375 56.71875Q314.10938 57.546875 313.20312 57.890625Q312.29688 58.234375 311.26562 58.234375Q309.5625 58.234375 308.64062 57.40625Q307.71875 56.5625 307.71875 55.265625Q307.71875 54.5 308.0625 53.875Q308.42188 53.25 308.98438 52.875Q309.54688 52.484375 310.25 52.28125Q310.76562 52.15625 311.8125 52.015625Q313.9375 51.765625 314.9375 51.421875Q314.95312 51.0625 314.95312 50.953125Q314.95312 49.890625 314.45312 49.4375Q313.78125 48.84375 312.45312 48.84375Q311.20312 48.84375 310.60938 49.28125Q310.03125 49.71875 309.75 50.828125L308.03125 50.59375Q308.26562 49.484375 308.79688 48.8125Q309.32812 48.125 310.34375 47.765625Q311.35938 47.390625 312.70312 47.390625Q314.03125 47.390625 314.85938 47.703125Q315.6875 48.015625 316.07812 48.5Q316.46875 48.96875 316.625 49.6875Q316.71875 50.140625 316.71875 51.3125L316.71875 53.65625Q316.71875 56.109375 316.82812 56.765625Q316.9375 57.40625 317.28125 58.0L315.4375 58.0Q315.17188 57.453125 315.09375 56.71875ZM314.9375 52.796875Q313.98438 53.1875 312.0625 53.453125Q310.98438 53.609375 310.53125 53.8125Q310.09375 54.0 309.84375 54.375Q309.59375 54.75 309.59375 55.21875Q309.59375 55.921875 310.125 56.390625Q310.65625 56.859375 311.6875 56.859375Q312.70312 56.859375 313.48438 56.421875Q314.28125 55.96875 314.65625 55.203125Q314.9375 54.59375 314.9375 53.4375L314.9375 52.796875ZM319.28125 58.0L319.28125 43.6875L321.03125 43.6875L321.03125 58.0L319.28125 58.0ZM330.10938 58.0L330.10938 56.46875Q328.90625 58.234375 326.82812 58.234375Q325.90625 58.234375 325.10938 57.890625Q324.3125 57.53125 323.92188 57.0Q323.54688 56.46875 323.39062 55.6875Q323.28125 55.171875 323.28125 54.046875L323.28125 47.625L325.03125 47.625L325.03125 53.375Q325.03125 54.75 325.14062 55.234375Q325.3125 55.921875 325.84375 56.328125Q326.39062 56.71875 327.17188 56.71875Q327.96875 56.71875 328.65625 56.3125Q329.35938 55.90625 329.64062 55.21875Q329.9375 54.515625 329.9375 53.1875L329.9375 47.625L331.6875 47.625L331.6875 58.0L330.10938 58.0ZM334.28125 58.0L334.28125 43.6875L336.03125 43.6875L336.03125 58.0L334.28125 58.0ZM345.10938 58.0L345.10938 56.46875Q343.90625 58.234375 341.82812 58.234375Q340.90625 58.234375 340.10938 57.890625Q339.3125 57.53125 338.92188 57.0Q338.54688 56.46875 338.39062 55.6875Q338.28125 55.171875 338.28125 54.046875L338.28125 47.625L340.03125 47.625L340.03125 53.375Q340.03125 54.75 340.14062 55.234375Q340.3125 55.921875 340.84375 56.328125Q341.39062 56.71875 342.17188 56.71875Q342.96875 56.71875 343.65625 56.3125Q344.35938 55.90625 344.64062 55.21875Q344.9375 54.515625 344.9375 53.1875L344.9375 47.625L346.6875 47.625L346.6875 58.0L345.10938 58.0ZM349.32812 45.703125L349.32812 43.6875L351.09375 43.6875L351.09375 45.703125L349.32812 45.703125ZM349.32812 58.0L349.32812 47.625L351.09375 47.625L351.09375 58.0L349.32812 58.0ZM366.04688 58.0L366.04688 56.6875Q365.0625 58.234375 363.14062 58.234375Q361.90625 58.234375 360.85938 57.546875Q359.82812 56.859375 359.25 55.640625Q358.6875 54.421875 358.6875 52.828125Q358.6875 51.265625 359.20312 50.0Q359.71875 48.734375 360.75 48.0625Q361.79688 47.390625 363.0625 47.390625Q364.0 47.390625 364.73438 47.796875Q365.46875 48.1875 365.9375 48.8125L365.9375 43.6875L367.67188 43.6875L367.67188 58.0L366.04688 58.0ZM360.48438 52.828125Q360.48438 54.8125 361.32812 55.796875Q362.17188 56.78125 363.3125 56.78125Q364.46875 56.78125 365.26562 55.84375Q366.07812 54.90625 366.07812 52.96875Q366.07812 50.84375 365.25 49.84375Q364.4375 48.84375 363.23438 48.84375Q362.0625 48.84375 361.26562 49.8125Q360.48438 50.765625 360.48438 52.828125ZM377.42188 54.65625L379.23438 54.890625Q378.8125 56.46875 377.64062 57.359375Q376.48438 58.234375 374.67188 58.234375Q372.40625 58.234375 371.0625 56.84375Q369.73438 55.4375 369.73438 52.90625Q369.73438 50.28125 371.07812 48.84375Q372.42188 47.390625 374.57812 47.390625Q376.65625 47.390625 377.96875 48.8125Q379.29688 50.21875 379.29688 52.796875Q379.29688 52.953125 379.28125 53.265625L371.54688 53.265625Q371.64062 54.96875 372.51562 55.875Q373.39062 56.78125 374.6875 56.78125Q375.65625 56.78125 376.32812 56.28125Q377.01562 55.765625 377.42188 54.65625ZM371.64062 51.8125L377.4375 51.8125Q377.32812 50.515625 376.78125 49.859375Q375.9375 48.84375 374.59375 48.84375Q373.39062 48.84375 372.5625 49.65625Q371.73438 50.453125 371.64062 51.8125ZM394.09375 54.203125L395.8125 54.421875Q395.53125 56.21875 394.35938 57.234375Q393.20312 58.234375 391.5 58.234375Q389.375 58.234375 388.07812 56.84375Q386.78125 55.453125 386.78125 52.859375Q386.78125 51.171875 387.32812 49.921875Q387.89062 48.65625 389.03125 48.03125Q390.17188 47.390625 391.51562 47.390625Q393.20312 47.390625 394.26562 48.25Q395.34375 49.109375 395.65625 50.671875L393.9375 50.9375Q393.70312 49.890625 393.07812 49.375Q392.45312 48.84375 391.57812 48.84375Q390.25 48.84375 389.42188 49.796875Q388.59375 50.75 388.59375 52.796875Q388.59375 54.890625 389.39062 55.84375Q390.1875 56.78125 391.48438 56.78125Q392.51562 56.78125 393.20312 56.15625Q393.90625 55.515625 394.09375 54.203125ZM396.67188 52.8125Q396.67188 49.9375 398.26562 48.546875Q399.60938 47.390625 401.53125 47.390625Q403.67188 47.390625 405.01562 48.796875Q406.375 50.203125 406.375 52.671875Q406.375 54.671875 405.78125 55.828125Q405.1875 56.96875 404.03125 57.609375Q402.89062 58.234375 401.53125 58.234375Q399.34375 58.234375 398.0 56.84375Q396.67188 55.4375 396.67188 52.8125ZM398.46875 52.8125Q398.46875 54.8125 399.32812 55.796875Q400.20312 56.78125 401.53125 56.78125Q402.84375 56.78125 403.70312 55.796875Q404.57812 54.796875 404.57812 52.75Q404.57812 50.828125 403.70312 49.84375Q402.82812 48.84375 401.53125 48.84375Q400.20312 48.84375 399.32812 49.84375Q398.46875 50.828125 398.46875 52.8125ZM408.3125 58.0L408.3125 47.625L409.89062 47.625L409.89062 49.078125Q410.375 48.328125 411.1875 47.859375Q412.0 47.390625 413.03125 47.390625Q414.1875 47.390625 414.92188 47.875Q415.65625 48.34375 415.96875 49.203125Q417.20312 47.390625 419.17188 47.390625Q420.71875 47.390625 421.54688 48.25Q422.375 49.109375 422.375 50.875L422.375 58.0L420.625 58.0L420.625 51.46875Q420.625 50.40625 420.45312 49.953125Q420.28125 49.484375 419.82812 49.203125Q419.39062 48.921875 418.78125 48.921875Q417.6875 48.921875 416.95312 49.65625Q416.23438 50.375 416.23438 51.96875L416.23438 58.0L414.48438 58.0L414.48438 51.265625Q414.48438 50.09375 414.04688 49.515625Q413.625 48.921875 412.64062 48.921875Q411.90625 48.921875 411.26562 49.3125Q410.64062 49.703125 410.35938 50.453125Q410.07812 51.203125 410.07812 52.625L410.07812 58.0L408.3125 58.0ZM425.3125 61.96875L425.3125 47.625L426.92188 47.625L426.92188 48.96875Q427.48438 48.1875 428.1875 47.796875Q428.90625 47.390625 429.92188 47.390625Q431.25 47.390625 432.26562 48.078125Q433.28125 48.765625 433.79688 50.015625Q434.32812 51.25 434.32812 52.734375Q434.32812 54.328125 433.75 55.609375Q433.1875 56.875 432.09375 57.5625Q431.0 58.234375 429.79688 58.234375Q428.92188 58.234375 428.21875 57.859375Q427.53125 57.484375 427.07812 56.921875L427.07812 61.96875L425.3125 61.96875ZM426.90625 52.875Q426.90625 54.875 427.71875 55.828125Q428.53125 56.78125 429.6875 56.78125Q430.85938 56.78125 431.6875 55.796875Q432.53125 54.8125 432.53125 52.71875Q432.53125 50.75 431.70312 49.765625Q430.89062 48.765625 429.76562 48.765625Q428.64062 48.765625 427.76562 49.828125Q426.90625 50.875 426.90625 52.875ZM443.09375 56.71875Q442.10938 57.546875 441.20312 57.890625Q440.29688 58.234375 439.26562 58.234375Q437.5625 58.234375 436.64062 57.40625Q435.71875 56.5625 435.71875 55.265625Q435.71875 54.5 436.0625 53.875Q436.42188 53.25 436.98438 52.875Q437.54688 52.484375 438.25 52.28125Q438.76562 52.15625 439.8125 52.015625Q441.9375 51.765625 442.9375 51.421875Q442.95312 51.0625 442.95312 50.953125Q442.95312 49.890625 442.45312 49.4375Q441.78125 48.84375 440.45312 48.84375Q439.20312 48.84375 438.60938 49.28125Q438.03125 49.71875 437.75 50.828125L436.03125 50.59375Q436.26562 49.484375 436.79688 48.8125Q437.32812 48.125 438.34375 47.765625Q439.35938 47.390625 440.70312 47.390625Q442.03125 47.390625 442.85938 47.703125Q443.6875 48.015625 444.07812 48.5Q444.46875 48.96875 444.625 49.6875Q444.71875 50.140625 444.71875 51.3125L444.71875 53.65625Q444.71875 56.109375 444.82812 56.765625Q444.9375 57.40625 445.28125 58.0L443.4375 58.0Q443.17188 57.453125 443.09375 56.71875ZM442.9375 52.796875Q441.98438 53.1875 440.0625 53.453125Q438.98438 53.609375 438.53125 53.8125Q438.09375 54.0 437.84375 54.375Q437.59375 54.75 437.59375 55.21875Q437.59375 55.921875 438.125 56.390625Q438.65625 56.859375 439.6875 56.859375Q440.70312 56.859375 441.48438 56.421875Q442.28125 55.96875 442.65625 55.203125Q442.9375 54.59375 442.9375 53.4375L442.9375 52.796875ZM447.3125 58.0L447.3125 47.625L448.90625 47.625L448.90625 49.109375Q450.04688 47.390625 452.20312 47.390625Q453.14062 47.390625 453.92188 47.734375Q454.71875 48.0625 455.10938 48.609375Q455.5 49.15625 455.65625 49.90625Q455.75 50.40625 455.75 51.625L455.75 58.0L453.98438 58.0L453.98438 51.6875Q453.98438 50.609375 453.78125 50.078125Q453.57812 49.546875 453.04688 49.234375Q452.53125 48.921875 451.82812 48.921875Q450.70312 48.921875 449.89062 49.640625Q449.07812 50.34375 449.07812 52.328125L449.07812 58.0L447.3125 58.0ZM458.32812 45.703125L458.32812 43.6875L460.09375 43.6875L460.09375 45.703125L458.32812 45.703125ZM458.32812 58.0L458.32812 47.625L460.09375 47.625L460.09375 58.0L458.32812 58.0ZM469.42188 54.65625L471.23438 54.890625Q470.8125 56.46875 469.64062 57.359375Q468.48438 58.234375 466.67188 58.234375Q464.40625 58.234375 463.0625 56.84375Q461.73438 55.4375 461.73438 52.90625Q461.73438 50.28125 463.07812 48.84375Q464.42188 47.390625 466.57812 47.390625Q468.65625 47.390625 469.96875 48.8125Q471.29688 50.21875 471.29688 52.796875Q471.29688 52.953125 471.28125 53.265625L463.54688 53.265625Q463.64062 54.96875 464.51562 55.875Q465.39062 56.78125 466.6875 56.78125Q467.65625 56.78125 468.32812 56.28125Q469.01562 55.765625 469.42188 54.65625ZM463.64062 51.8125L469.4375 51.8125Q469.32812 50.515625 468.78125 49.859375Q467.9375 48.84375 466.59375 48.84375Q465.39062 48.84375 464.5625 49.65625Q463.73438 50.453125 463.64062 51.8125ZM476.60938 54.46875Q476.59375 54.125 476.59375 53.953125Q476.59375 52.90625 476.89062 52.15625Q477.10938 51.59375 477.59375 51.015625Q477.9375 50.59375 478.84375 49.796875Q479.76562 48.984375 480.03125 48.515625Q480.3125 48.03125 480.3125 47.46875Q480.3125 46.4375 479.5 45.671875Q478.70312 44.890625 477.54688 44.890625Q476.42188 44.890625 475.67188 45.59375Q474.92188 46.296875 474.6875 47.78125L472.875 47.5625Q473.125 45.5625 474.32812 44.5Q475.53125 43.4375 477.51562 43.4375Q479.625 43.4375 480.875 44.578125Q482.125 45.71875 482.125 47.34375Q482.125 48.28125 481.67188 49.078125Q481.23438 49.859375 479.95312 51.0Q479.09375 51.765625 478.82812 52.125Q478.57812 52.484375 478.4375 52.953125Q478.3125 53.421875 478.29688 54.46875L476.60938 54.46875ZM476.5 58.0L476.5 56.0L478.5 56.0L478.5 58.0L476.5 58.0Z" fill-rule="nonzero"/></svg>