<svg id="Capa_1" enable-background="new 0 0 512 512" height="512" viewBox="0 0 512 512" width="512" xmlns="http://www.w3.org/2000/svg"><path d="m256 512c-2.985 0-5.97-.889-8.538-2.667l-208.866-144.6c-4.047-2.802-6.462-7.411-6.462-12.333v-176.733c0-1.612.26-3.214.77-4.743l13.135-39.405-9.52-9.519c-23.562-23.563-23.562-61.902 0-85.464.024-.024.049-.048.073-.073 23.451-23.392 61.655-23.697 85.406.057l6.879 6.878c7.289-5.465 54.525-43.398 127.115-43.398 72.602 0 119.846 37.93 127.134 43.395l6.876-6.877c23.421-23.421 61.624-23.778 85.406-.056.024.024.049.048.073.073 23.562 23.563 23.562 61.901 0 85.463l-9.52 9.52 13.135 39.405c.51 1.529.77 3.131.77 4.743v176.734c0 4.922-2.415 9.531-6.462 12.333l-208.866 144.6c-2.568 1.778-5.553 2.667-8.538 2.667z" fill="#912200"/><path d="m473.404 364.733c4.047-2.802 6.462-7.411 6.462-12.333v-176.733c0-1.612-.26-3.214-.77-4.743l-13.135-39.405 9.52-9.52c23.562-23.563 23.562-61.901 0-85.463-.024-.024-.049-.048-.073-.073-23.782-23.722-61.985-23.365-85.406.056l-6.876 6.877c-7.288-5.466-54.528-43.393-127.126-43.396v512c2.985 0 5.97-.889 8.538-2.667z" fill="#5f0000"/><path d="m256 384.659c-58.163 0-111.4-43.166-111.4-104.399v-39.187c0-25.463 9.917-49.403 27.924-67.41l50.151-50.152c18.375-18.375 48.274-18.374 66.65-.001l50.151 50.153c18.007 18.007 27.924 41.947 27.924 67.41v39.187c0 61.115-53.166 104.399-111.4 104.399z" fill="#c24400"/><path d="m367.4 280.26v-39.187c0-25.463-9.917-49.403-27.924-67.41l-50.151-50.153c-9.188-9.186-21.257-13.78-33.325-13.78v274.929c58.234 0 111.4-43.284 111.4-104.399z" fill="#912200"/><path d="m256 319.2c-29.533 0-53.56-21.144-53.56-47.133 0-25.99 24.026-47.134 53.56-47.134s53.56 21.144 53.56 47.134c0 25.989-24.027 47.133-53.56 47.133z" fill="#5f0000"/><path d="m309.56 272.067c0-25.99-24.026-47.134-53.56-47.134v94.267c29.533 0 53.56-21.144 53.56-47.133z" fill="#280000"/><g clip-rule="evenodd" fill-rule="evenodd"><circle cx="143.533" cy="127.467" fill="#5f0000" r="15"/><circle cx="368.467" cy="127.467" fill="#280000" r="15"/></g></svg>